{"glyphs":{"0":{"ha":842,"x_min":64,"x_max":778,"o":"m 421 -14 q 226 50 307 -14 q 105 226 146 114 q 64 486 64 339 q 105 746 64 633 q 226 922 146 858 q 421 986 307 986 q 615 922 535 986 q 737 746 696 858 q 778 486 778 633 q 737 226 778 339 q 615 50 696 114 q 421 -14 535 -14 m 421 119 q 578 215 522 119 q 635 486 635 311 q 578 757 635 661 q 421 853 522 853 q 263 757 319 853 q 207 486 207 661 q 263 215 207 311 q 421 119 319 119 z "},"1":{"ha":488,"x_min":7,"x_max":372,"o":"m 310 972 q 355 952 338 971 q 372 906 372 933 l 372 67 q 351 19 372 39 q 300 0 331 0 q 250 19 269 0 q 231 67 231 39 l 231 789 l 108 715 q 74 706 93 706 q 26 727 46 706 q 7 774 7 749 q 17 806 7 790 q 42 831 26 821 l 261 963 q 310 972 281 972 z "},"2":{"ha":763,"x_min":83,"x_max":713,"o":"m 650 122 q 694 104 676 122 q 713 60 713 86 q 694 17 713 33 q 650 0 676 0 l 157 0 q 111 17 129 0 q 93 64 93 35 q 113 111 93 89 l 422 447 q 551 690 551 585 q 502 815 551 765 q 376 864 453 864 q 278 835 325 864 q 201 751 231 806 q 149 722 179 722 q 104 740 125 722 q 83 782 83 758 q 94 814 83 797 q 124 853 104 831 q 240 950 169 914 q 383 986 311 986 q 544 949 476 986 q 649 846 613 911 q 686 696 686 781 q 514 351 686 536 l 304 122 l 650 122 z "},"3":{"ha":724,"x_min":50,"x_max":660,"o":"m 382 615 q 524 576 461 615 q 624 468 588 536 q 660 315 660 400 q 614 142 660 217 q 488 26 568 67 q 303 -14 407 -14 q 195 1 247 -14 q 106 46 143 17 q 68 103 68 67 q 87 151 68 129 q 132 174 106 174 q 182 156 157 174 q 325 103 239 103 q 426 128 379 103 q 500 199 472 153 q 528 307 528 246 q 472 446 528 397 q 339 494 417 494 q 275 485 317 494 q 229 476 244 476 q 189 494 204 476 q 174 538 174 511 q 179 564 174 553 q 197 590 185 575 l 433 850 l 113 850 q 68 868 86 850 q 50 913 50 886 q 68 956 50 939 q 113 972 86 972 l 556 972 q 606 953 588 972 q 624 906 624 933 q 597 854 624 881 l 382 615 z "},"4":{"ha":896,"x_min":93,"x_max":807,"o":"m 744 400 q 789 383 771 400 q 807 339 807 365 q 789 296 807 313 q 744 279 771 279 l 671 279 l 671 67 q 651 19 671 39 q 604 0 632 0 q 558 19 576 0 q 539 67 539 39 l 539 279 l 158 279 q 113 299 133 279 q 93 344 93 318 q 108 389 93 369 l 551 946 q 576 965 561 958 q 606 972 590 972 q 652 953 633 972 q 671 906 671 933 l 671 400 l 744 400 m 539 400 l 539 747 l 268 400 l 539 400 z "},"5":{"ha":788,"x_min":79,"x_max":690,"o":"m 369 650 q 533 609 460 650 q 649 495 607 568 q 690 332 690 422 q 641 158 690 236 q 506 35 592 81 q 319 -10 421 -10 q 206 8 263 -10 q 110 58 149 26 q 88 88 96 69 q 79 124 79 106 q 97 162 79 144 q 142 179 114 179 q 190 158 160 179 q 318 113 253 113 q 440 142 385 113 q 526 221 494 171 q 558 331 558 271 q 500 474 558 419 q 353 528 442 528 q 287 518 315 528 q 218 489 258 508 q 185 474 201 481 q 158 468 169 468 q 99 492 118 468 q 79 546 79 515 l 81 560 l 131 919 q 153 957 135 942 q 199 972 172 972 l 607 972 q 651 954 633 972 q 668 910 668 936 q 651 866 668 883 q 607 849 633 849 l 244 849 l 208 611 q 283 639 239 628 q 369 650 326 650 z "},"6":{"ha":754,"x_min":64,"x_max":703,"o":"m 408 624 q 553 580 485 624 q 662 463 621 536 q 703 304 703 389 q 661 145 703 218 q 547 29 619 72 q 388 -14 475 -14 q 215 38 288 -14 q 103 172 142 89 q 64 351 64 256 q 106 587 64 458 q 242 826 147 715 q 486 983 338 936 q 511 988 499 988 q 559 972 540 988 q 578 924 578 957 q 563 882 578 900 q 521 857 547 864 q 340 738 424 822 q 221 547 257 653 q 408 624 303 624 m 386 108 q 518 164 465 108 q 571 304 571 219 q 520 444 571 386 q 389 501 469 501 q 252 444 306 501 q 199 301 199 386 q 251 165 199 221 q 386 108 303 108 z "},"7":{"ha":761,"x_min":83,"x_max":710,"o":"m 640 972 q 690 954 669 972 q 710 908 710 936 q 703 878 710 894 l 331 36 q 306 6 322 17 q 269 -6 289 -6 q 222 13 243 -6 q 201 57 201 31 q 208 88 201 71 l 547 850 l 146 850 q 101 868 119 850 q 83 913 83 886 q 101 956 83 939 q 146 972 118 972 l 640 972 z "},"8":{"ha":803,"x_min":88,"x_max":715,"o":"m 569 503 q 676 406 636 465 q 715 278 715 346 q 674 137 715 201 q 560 34 632 72 q 401 -4 488 -4 q 243 34 315 -4 q 129 137 171 72 q 88 278 88 201 q 127 409 88 353 q 229 501 167 465 q 144 581 178 531 q 111 700 111 632 q 150 838 111 775 q 255 936 189 900 q 401 972 321 972 q 547 936 481 972 q 652 838 614 900 q 690 700 690 775 q 656 580 690 629 q 569 503 621 531 m 401 850 q 288 807 332 850 q 243 697 243 764 q 289 588 243 632 q 401 544 335 544 q 513 588 467 544 q 558 697 558 632 q 514 807 558 764 q 401 850 469 850 m 401 118 q 531 164 479 118 q 583 279 583 210 q 530 396 583 349 q 401 443 476 443 q 274 396 326 443 q 221 279 221 349 q 272 164 221 210 q 401 118 324 118 z "},"9":{"ha":764,"x_min":64,"x_max":703,"o":"m 381 989 q 553 938 481 989 q 665 803 626 886 q 703 624 703 719 q 661 390 703 517 q 525 155 619 264 q 282 -1 431 46 q 257 -6 269 -6 q 209 10 229 -6 q 189 58 189 26 q 204 100 189 82 q 246 125 219 118 q 428 242 344 160 q 547 429 513 324 q 360 351 467 351 q 215 395 283 351 q 105 513 146 439 q 64 672 64 588 q 106 830 64 757 q 221 946 149 903 q 381 989 293 989 m 378 475 q 516 532 463 475 q 569 674 569 589 q 517 810 569 754 q 381 867 464 867 q 250 811 303 867 q 197 672 197 756 q 248 532 197 589 q 378 475 299 475 z "},"\r":{"ha":385,"x_min":0,"x_max":0,"o":""}," ":{"ha":385,"x_min":0,"x_max":0,"o":""},"A":{"ha":892,"x_min":25,"x_max":867,"o":"m 863 86 q 867 60 867 74 q 848 14 867 32 q 804 -4 829 -4 q 769 8 785 -4 q 743 40 753 19 l 657 244 l 228 244 l 143 39 q 120 7 136 18 q 85 -4 104 -4 q 40 11 56 -4 q 25 53 25 26 q 28 75 25 58 l 382 933 q 409 967 392 956 q 449 976 426 979 q 486 965 469 976 q 510 933 503 954 l 863 86 m 604 371 l 442 760 l 281 371 l 604 371 z "},"Á":{"ha":892,"x_min":25,"x_max":867,"o":"m 863 86 q 867 60 867 74 q 848 14 867 32 q 804 -4 829 -4 q 769 8 785 -4 q 743 40 753 19 l 657 244 l 228 244 l 143 39 q 120 7 136 18 q 85 -4 104 -4 q 40 11 56 -4 q 25 53 25 26 q 28 75 25 58 l 382 933 q 409 967 392 956 q 449 976 426 979 q 486 965 469 976 q 510 933 503 954 l 863 86 m 604 371 l 442 760 l 281 371 l 604 371 m 450 1031 q 417 1041 429 1031 q 406 1069 406 1051 q 422 1101 406 1088 l 544 1204 q 600 1228 574 1228 q 642 1211 624 1228 q 661 1171 661 1194 q 650 1136 661 1153 q 619 1110 639 1119 l 482 1039 q 450 1031 465 1031 z "},"Ă":{"ha":892,"x_min":25,"x_max":867,"o":"m 863 86 q 867 60 867 74 q 848 14 867 32 q 804 -4 829 -4 q 769 8 785 -4 q 743 40 753 19 l 657 244 l 228 244 l 143 39 q 120 7 136 18 q 85 -4 104 -4 q 40 11 56 -4 q 25 53 25 26 q 28 75 25 58 l 382 933 q 409 967 392 956 q 449 976 426 979 q 486 965 469 976 q 510 933 503 954 l 863 86 m 604 371 l 442 760 l 281 371 l 604 371 m 449 1063 q 319 1097 374 1063 q 242 1196 264 1132 q 236 1221 236 1208 q 247 1249 236 1239 q 275 1258 257 1258 q 310 1249 297 1258 q 342 1215 322 1239 q 449 1160 376 1160 q 556 1215 524 1160 q 584 1247 569 1238 q 621 1257 599 1257 q 651 1248 640 1257 q 661 1221 661 1239 q 657 1197 661 1210 q 580 1098 635 1133 q 449 1063 525 1063 z "},"Ắ":{"ha":892,"x_min":25,"x_max":867,"o":"m 863 86 q 867 60 867 74 q 848 14 867 32 q 804 -4 829 -4 q 769 8 785 -4 q 743 40 753 19 l 657 244 l 228 244 l 143 39 q 120 7 136 18 q 85 -4 104 -4 q 40 11 56 -4 q 25 53 25 26 q 28 75 25 58 l 382 933 q 409 967 392 956 q 449 976 426 979 q 486 965 469 976 q 510 933 503 954 l 863 86 m 604 371 l 442 760 l 281 371 l 604 371 m 449 1063 q 319 1097 374 1063 q 242 1196 264 1132 q 236 1221 236 1208 q 247 1249 236 1239 q 275 1258 257 1258 q 310 1249 297 1258 q 342 1215 322 1239 q 449 1160 376 1160 q 556 1215 524 1160 q 584 1247 569 1238 q 621 1257 599 1257 q 651 1248 640 1257 q 661 1221 661 1239 q 657 1197 661 1210 q 580 1098 635 1133 q 449 1063 525 1063 m 450 1294 q 417 1305 429 1294 q 406 1333 406 1315 q 422 1365 406 1351 l 544 1468 q 600 1492 574 1492 q 642 1475 624 1492 q 661 1435 661 1458 q 650 1400 661 1417 q 619 1374 639 1383 l 482 1303 q 450 1294 465 1294 z "},"Ặ":{"ha":892,"x_min":25,"x_max":867,"o":"m 863 86 q 867 60 867 74 q 848 14 867 32 q 804 -4 829 -4 q 769 8 785 -4 q 743 40 753 19 l 657 244 l 228 244 l 143 39 q 120 7 136 18 q 85 -4 104 -4 q 40 11 56 -4 q 25 53 25 26 q 28 75 25 58 l 382 933 q 409 967 392 956 q 449 976 426 979 q 486 965 469 976 q 510 933 503 954 l 863 86 m 604 371 l 442 760 l 281 371 l 604 371 m 447 -200 q 391 -185 408 -200 q 374 -136 374 -169 l 374 -115 q 447 -51 374 -51 q 506 -66 489 -51 q 524 -115 524 -81 l 524 -136 q 506 -185 524 -171 q 447 -200 488 -200 m 449 1063 q 319 1097 374 1063 q 242 1196 264 1132 q 236 1221 236 1208 q 247 1249 236 1239 q 275 1258 257 1258 q 310 1249 297 1258 q 342 1215 322 1239 q 449 1160 376 1160 q 556 1215 524 1160 q 584 1247 569 1238 q 621 1257 599 1257 q 651 1248 640 1257 q 661 1221 661 1239 q 657 1197 661 1210 q 580 1098 635 1133 q 449 1063 525 1063 z "},"Ằ":{"ha":892,"x_min":25,"x_max":867,"o":"m 863 86 q 867 60 867 74 q 848 14 867 32 q 804 -4 829 -4 q 769 8 785 -4 q 743 40 753 19 l 657 244 l 228 244 l 143 39 q 120 7 136 18 q 85 -4 104 -4 q 40 11 56 -4 q 25 53 25 26 q 28 75 25 58 l 382 933 q 409 967 392 956 q 449 976 426 979 q 486 965 469 976 q 510 933 503 954 l 863 86 m 604 371 l 442 760 l 281 371 l 604 371 m 449 1063 q 319 1097 374 1063 q 242 1196 264 1132 q 236 1221 236 1208 q 247 1249 236 1239 q 275 1258 257 1258 q 310 1249 297 1258 q 342 1215 322 1239 q 449 1160 376 1160 q 556 1215 524 1160 q 584 1247 569 1238 q 621 1257 599 1257 q 651 1248 640 1257 q 661 1221 661 1239 q 657 1197 661 1210 q 580 1098 635 1133 q 449 1063 525 1063 m 447 1297 q 415 1307 435 1297 l 278 1378 q 247 1405 258 1389 q 236 1439 236 1421 q 255 1479 236 1463 q 297 1496 274 1496 q 354 1471 324 1496 l 475 1369 q 492 1338 492 1356 q 480 1308 492 1319 q 447 1297 468 1297 z "},"Ẳ":{"ha":892,"x_min":25,"x_max":867,"o":"m 863 86 q 867 60 867 74 q 848 14 867 32 q 804 -4 829 -4 q 769 8 785 -4 q 743 40 753 19 l 657 244 l 228 244 l 143 39 q 120 7 136 18 q 85 -4 104 -4 q 40 11 56 -4 q 25 53 25 26 q 28 75 25 58 l 382 933 q 409 967 392 956 q 449 976 426 979 q 486 965 469 976 q 510 933 503 954 l 863 86 m 604 371 l 442 760 l 281 371 l 604 371 m 449 1063 q 319 1097 374 1063 q 242 1196 264 1132 q 236 1221 236 1208 q 247 1249 236 1239 q 275 1258 257 1258 q 310 1249 297 1258 q 342 1215 322 1239 q 449 1160 376 1160 q 556 1215 524 1160 q 584 1247 569 1238 q 621 1257 599 1257 q 651 1248 640 1257 q 661 1221 661 1239 q 657 1197 661 1210 q 580 1098 635 1133 q 449 1063 525 1063 m 326 1540 q 433 1582 375 1582 q 534 1547 504 1582 q 564 1468 564 1513 q 556 1428 564 1446 q 529 1389 547 1410 q 501 1343 503 1360 q 489 1322 501 1329 q 457 1315 476 1315 q 433 1323 443 1315 q 422 1344 422 1331 q 444 1399 422 1372 q 471 1433 463 1419 q 479 1460 479 1447 q 465 1488 479 1476 q 431 1499 451 1499 q 371 1475 406 1499 q 347 1465 358 1465 q 318 1481 332 1465 q 308 1504 308 1490 q 326 1540 308 1522 z "},"Ẵ":{"ha":892,"x_min":25,"x_max":867,"o":"m 863 86 q 867 60 867 74 q 848 14 867 32 q 804 -4 829 -4 q 769 8 785 -4 q 743 40 753 19 l 657 244 l 228 244 l 143 39 q 120 7 136 18 q 85 -4 104 -4 q 40 11 56 -4 q 25 53 25 26 q 28 75 25 58 l 382 933 q 409 967 392 956 q 449 976 426 979 q 486 965 469 976 q 510 933 503 954 l 863 86 m 604 371 l 442 760 l 281 371 l 604 371 m 449 1063 q 319 1097 374 1063 q 242 1196 264 1132 q 236 1221 236 1208 q 247 1249 236 1239 q 275 1258 257 1258 q 310 1249 297 1258 q 342 1215 322 1239 q 449 1160 376 1160 q 556 1215 524 1160 q 584 1247 569 1238 q 621 1257 599 1257 q 651 1248 640 1257 q 661 1221 661 1239 q 657 1197 661 1210 q 580 1098 635 1133 q 449 1063 525 1063 m 264 1307 q 223 1327 239 1307 q 207 1382 207 1347 q 245 1467 207 1432 q 347 1501 283 1501 q 408 1488 378 1501 q 478 1451 439 1475 q 526 1424 510 1432 q 556 1417 542 1417 q 583 1428 572 1417 q 592 1457 593 1439 q 590 1471 590 1463 q 602 1500 590 1489 q 632 1511 614 1511 q 674 1490 658 1511 q 690 1438 690 1469 q 657 1354 690 1392 q 567 1317 624 1317 q 501 1331 533 1317 q 425 1368 468 1344 q 380 1390 401 1381 q 344 1400 358 1400 q 317 1390 328 1400 q 306 1360 306 1379 q 307 1349 307 1356 q 294 1318 307 1329 q 264 1307 282 1307 z "},"Ǎ":{"ha":892,"x_min":25,"x_max":867,"o":"m 863 86 q 867 60 867 74 q 848 14 867 32 q 804 -4 829 -4 q 769 8 785 -4 q 743 40 753 19 l 657 244 l 228 244 l 143 39 q 120 7 136 18 q 85 -4 104 -4 q 40 11 56 -4 q 25 53 25 26 q 28 75 25 58 l 382 933 q 409 967 392 956 q 449 976 426 979 q 486 965 469 976 q 510 933 503 954 l 863 86 m 604 371 l 442 760 l 281 371 l 604 371 m 604 1238 q 630 1228 619 1238 q 640 1208 640 1219 q 637 1193 640 1200 q 622 1175 633 1186 l 528 1069 q 497 1044 513 1053 q 458 1036 481 1036 l 439 1036 q 401 1044 417 1036 q 371 1069 385 1053 l 275 1175 q 263 1192 267 1185 q 258 1208 258 1200 q 268 1228 258 1219 q 293 1238 278 1238 q 350 1214 317 1238 l 450 1146 l 547 1214 q 604 1238 581 1238 z "},"Â":{"ha":892,"x_min":25,"x_max":867,"o":"m 863 86 q 867 60 867 74 q 848 14 867 32 q 804 -4 829 -4 q 769 8 785 -4 q 743 40 753 19 l 657 244 l 228 244 l 143 39 q 120 7 136 18 q 85 -4 104 -4 q 40 11 56 -4 q 25 53 25 26 q 28 75 25 58 l 382 933 q 409 967 392 956 q 449 976 426 979 q 486 965 469 976 q 510 933 503 954 l 863 86 m 604 371 l 442 760 l 281 371 l 604 371 m 622 1103 q 639 1069 639 1085 q 628 1049 639 1058 q 604 1040 618 1040 q 579 1048 594 1040 q 547 1065 564 1056 l 446 1131 l 349 1065 q 317 1047 332 1054 q 292 1040 303 1040 q 267 1049 278 1040 q 257 1069 257 1058 q 261 1085 257 1078 q 274 1103 265 1093 l 369 1208 q 400 1234 385 1226 q 438 1242 415 1242 l 457 1242 q 495 1233 479 1242 q 526 1208 511 1225 l 622 1103 z "},"Ấ":{"ha":892,"x_min":25,"x_max":869,"o":"m 863 86 q 867 60 867 74 q 848 14 867 32 q 804 -4 829 -4 q 769 8 785 -4 q 743 40 753 19 l 657 244 l 228 244 l 143 39 q 120 7 136 18 q 85 -4 104 -4 q 40 11 56 -4 q 25 53 25 26 q 28 75 25 58 l 382 933 q 409 967 392 956 q 449 976 426 979 q 486 965 469 976 q 510 933 503 954 l 863 86 m 604 371 l 442 760 l 281 371 l 604 371 m 622 1103 q 639 1069 639 1085 q 628 1049 639 1058 q 604 1040 618 1040 q 579 1048 594 1040 q 547 1065 564 1056 l 446 1131 l 349 1065 q 317 1047 332 1054 q 292 1040 303 1040 q 267 1049 278 1040 q 257 1069 257 1058 q 261 1085 257 1078 q 274 1103 265 1093 l 369 1208 q 400 1234 385 1226 q 438 1242 415 1242 l 457 1242 q 495 1233 479 1242 q 526 1208 511 1225 l 622 1103 m 658 1143 q 626 1153 638 1143 q 614 1182 614 1164 q 631 1214 614 1200 l 753 1317 q 808 1340 782 1340 q 851 1324 832 1340 q 869 1283 869 1307 q 858 1249 869 1265 q 828 1222 847 1232 l 690 1151 q 658 1143 674 1143 z "},"Ậ":{"ha":892,"x_min":25,"x_max":867,"o":"m 863 86 q 867 60 867 74 q 848 14 867 32 q 804 -4 829 -4 q 769 8 785 -4 q 743 40 753 19 l 657 244 l 228 244 l 143 39 q 120 7 136 18 q 85 -4 104 -4 q 40 11 56 -4 q 25 53 25 26 q 28 75 25 58 l 382 933 q 409 967 392 956 q 449 976 426 979 q 486 965 469 976 q 510 933 503 954 l 863 86 m 604 371 l 442 760 l 281 371 l 604 371 m 447 -200 q 391 -185 408 -200 q 374 -136 374 -169 l 374 -115 q 447 -51 374 -51 q 506 -66 489 -51 q 524 -115 524 -81 l 524 -136 q 506 -185 524 -171 q 447 -200 488 -200 m 622 1103 q 639 1069 639 1085 q 628 1049 639 1058 q 604 1040 618 1040 q 579 1048 594 1040 q 547 1065 564 1056 l 446 1131 l 349 1065 q 317 1047 332 1054 q 292 1040 303 1040 q 267 1049 278 1040 q 257 1069 257 1058 q 261 1085 257 1078 q 274 1103 265 1093 l 369 1208 q 400 1234 385 1226 q 438 1242 415 1242 l 457 1242 q 495 1233 479 1242 q 526 1208 511 1225 l 622 1103 z "},"Ầ":{"ha":892,"x_min":25,"x_max":867,"o":"m 863 86 q 867 60 867 74 q 848 14 867 32 q 804 -4 829 -4 q 769 8 785 -4 q 743 40 753 19 l 657 244 l 228 244 l 143 39 q 120 7 136 18 q 85 -4 104 -4 q 40 11 56 -4 q 25 53 25 26 q 28 75 25 58 l 382 933 q 409 967 392 956 q 449 976 426 979 q 486 965 469 976 q 510 933 503 954 l 863 86 m 604 371 l 442 760 l 281 371 l 604 371 m 622 1103 q 639 1069 639 1085 q 628 1049 639 1058 q 604 1040 618 1040 q 579 1048 594 1040 q 547 1065 564 1056 l 446 1131 l 349 1065 q 317 1047 332 1054 q 292 1040 303 1040 q 267 1049 278 1040 q 257 1069 257 1058 q 261 1085 257 1078 q 274 1103 265 1093 l 369 1208 q 400 1234 385 1226 q 438 1242 415 1242 l 457 1242 q 495 1233 479 1242 q 526 1208 511 1225 l 622 1103 m 636 1217 q 604 1226 624 1217 l 467 1297 q 436 1324 447 1308 q 425 1358 425 1340 q 444 1399 425 1382 q 486 1415 463 1415 q 543 1390 513 1415 l 664 1289 q 681 1257 681 1275 q 669 1228 681 1239 q 636 1217 657 1217 z "},"Ẩ":{"ha":892,"x_min":25,"x_max":867,"o":"m 863 86 q 867 60 867 74 q 848 14 867 32 q 804 -4 829 -4 q 769 8 785 -4 q 743 40 753 19 l 657 244 l 228 244 l 143 39 q 120 7 136 18 q 85 -4 104 -4 q 40 11 56 -4 q 25 53 25 26 q 28 75 25 58 l 382 933 q 409 967 392 956 q 449 976 426 979 q 486 965 469 976 q 510 933 503 954 l 863 86 m 604 371 l 442 760 l 281 371 l 604 371 m 622 1103 q 639 1069 639 1085 q 628 1049 639 1058 q 604 1040 618 1040 q 579 1048 594 1040 q 547 1065 564 1056 l 446 1131 l 349 1065 q 317 1047 332 1054 q 292 1040 303 1040 q 267 1049 278 1040 q 257 1069 257 1058 q 261 1085 257 1078 q 274 1103 265 1093 l 369 1208 q 400 1234 385 1226 q 438 1242 415 1242 l 457 1242 q 495 1233 479 1242 q 526 1208 511 1225 l 622 1103 m 558 1353 q 665 1394 607 1394 q 766 1360 736 1394 q 796 1281 796 1325 q 788 1240 796 1258 q 761 1201 779 1222 q 733 1156 735 1172 q 721 1135 733 1142 q 689 1128 708 1128 q 665 1135 675 1128 q 654 1157 654 1143 q 676 1211 654 1185 q 703 1246 694 1232 q 711 1272 711 1260 q 697 1300 711 1289 q 663 1311 683 1311 q 603 1288 638 1311 q 579 1278 590 1278 q 550 1293 564 1278 q 540 1317 540 1303 q 558 1353 540 1335 z "},"Ẫ":{"ha":892,"x_min":25,"x_max":867,"o":"m 863 86 q 867 60 867 74 q 848 14 867 32 q 804 -4 829 -4 q 769 8 785 -4 q 743 40 753 19 l 657 244 l 228 244 l 143 39 q 120 7 136 18 q 85 -4 104 -4 q 40 11 56 -4 q 25 53 25 26 q 28 75 25 58 l 382 933 q 409 967 392 956 q 449 976 426 979 q 486 965 469 976 q 510 933 503 954 l 863 86 m 604 371 l 442 760 l 281 371 l 604 371 m 622 1086 q 639 1053 639 1068 q 628 1033 639 1042 q 604 1024 618 1024 q 579 1031 594 1024 q 547 1049 564 1039 l 446 1114 l 349 1049 q 317 1031 332 1038 q 292 1024 303 1024 q 267 1033 278 1024 q 257 1053 257 1042 q 261 1069 257 1061 q 274 1086 265 1076 l 369 1192 q 400 1217 385 1210 q 438 1225 415 1225 l 457 1225 q 495 1217 479 1225 q 526 1192 511 1208 l 622 1086 m 264 1231 q 223 1251 239 1231 q 207 1306 207 1271 q 245 1390 207 1356 q 347 1425 283 1425 q 408 1412 378 1425 q 478 1375 439 1399 q 526 1348 510 1356 q 556 1340 542 1340 q 583 1351 572 1340 q 592 1381 593 1363 q 590 1394 590 1386 q 602 1424 590 1413 q 632 1435 614 1435 q 674 1414 658 1435 q 690 1361 690 1393 q 657 1278 690 1315 q 567 1240 624 1240 q 501 1254 533 1240 q 425 1292 468 1268 q 380 1314 401 1304 q 344 1324 358 1324 q 317 1313 328 1324 q 306 1283 306 1303 q 307 1272 307 1279 q 294 1242 307 1253 q 264 1231 282 1231 z "},"Ȁ":{"ha":892,"x_min":25,"x_max":867,"o":"m 863 86 q 867 60 867 74 q 848 14 867 32 q 804 -4 829 -4 q 769 8 785 -4 q 743 40 753 19 l 657 244 l 228 244 l 143 39 q 120 7 136 18 q 85 -4 104 -4 q 40 11 56 -4 q 25 53 25 26 q 28 75 25 58 l 382 933 q 409 967 392 956 q 449 976 426 979 q 486 965 469 976 q 510 933 503 954 l 863 86 m 604 371 l 442 760 l 281 371 l 604 371 m 603 1054 q 572 1063 592 1054 l 435 1133 q 393 1194 393 1157 q 412 1235 393 1219 q 454 1251 431 1251 q 510 1228 481 1251 l 631 1126 q 649 1093 649 1110 q 636 1065 649 1076 q 603 1054 624 1054 m 339 1046 q 308 1056 325 1046 l 171 1126 q 129 1188 129 1147 q 148 1228 129 1211 q 189 1244 167 1244 q 246 1219 218 1244 l 367 1118 q 385 1086 385 1104 q 372 1057 385 1068 q 339 1046 360 1046 z "},"Ä":{"ha":892,"x_min":25,"x_max":867,"o":"m 863 86 q 867 60 867 74 q 848 14 867 32 q 804 -4 829 -4 q 769 8 785 -4 q 743 40 753 19 l 657 244 l 228 244 l 143 39 q 120 7 136 18 q 85 -4 104 -4 q 40 11 56 -4 q 25 53 25 26 q 28 75 25 58 l 382 933 q 409 967 392 956 q 449 976 426 979 q 486 965 469 976 q 510 933 503 954 l 863 86 m 604 371 l 442 760 l 281 371 l 604 371 m 317 1064 q 263 1079 281 1064 q 244 1128 244 1094 l 244 1149 q 318 1211 244 1211 q 374 1197 356 1211 q 392 1149 392 1182 l 392 1128 q 374 1079 392 1094 q 317 1064 356 1064 m 578 1064 q 524 1079 542 1064 q 506 1128 506 1094 l 506 1149 q 524 1197 506 1182 q 578 1211 542 1211 q 635 1197 617 1211 q 653 1149 653 1182 l 653 1128 q 635 1079 653 1094 q 578 1064 617 1064 z "},"Ạ":{"ha":892,"x_min":25,"x_max":867,"o":"m 863 86 q 867 60 867 74 q 848 14 867 32 q 804 -4 829 -4 q 769 8 785 -4 q 743 40 753 19 l 657 244 l 228 244 l 143 39 q 120 7 136 18 q 85 -4 104 -4 q 40 11 56 -4 q 25 53 25 26 q 28 75 25 58 l 382 933 q 409 967 392 956 q 449 976 426 979 q 486 965 469 976 q 510 933 503 954 l 863 86 m 604 371 l 442 760 l 281 371 l 604 371 m 447 -200 q 391 -185 408 -200 q 374 -136 374 -169 l 374 -115 q 447 -51 374 -51 q 506 -66 489 -51 q 524 -115 524 -81 l 524 -136 q 506 -185 524 -171 q 447 -200 488 -200 z "},"À":{"ha":892,"x_min":25,"x_max":867,"o":"m 863 86 q 867 60 867 74 q 848 14 867 32 q 804 -4 829 -4 q 769 8 785 -4 q 743 40 753 19 l 657 244 l 228 244 l 143 39 q 120 7 136 18 q 85 -4 104 -4 q 40 11 56 -4 q 25 53 25 26 q 28 75 25 58 l 382 933 q 409 967 392 956 q 449 976 426 979 q 486 965 469 976 q 510 933 503 954 l 863 86 m 604 371 l 442 760 l 281 371 l 604 371 m 447 1033 q 415 1043 435 1033 l 278 1114 q 247 1141 258 1125 q 236 1175 236 1157 q 255 1215 236 1199 q 297 1232 274 1232 q 354 1207 324 1232 l 475 1106 q 492 1074 492 1092 q 480 1044 492 1056 q 447 1033 468 1033 z "},"Ả":{"ha":892,"x_min":25,"x_max":867,"o":"m 863 86 q 867 60 867 74 q 848 14 867 32 q 804 -4 829 -4 q 769 8 785 -4 q 743 40 753 19 l 657 244 l 228 244 l 143 39 q 120 7 136 18 q 85 -4 104 -4 q 40 11 56 -4 q 25 53 25 26 q 28 75 25 58 l 382 933 q 409 967 392 956 q 449 976 426 979 q 486 965 469 976 q 510 933 503 954 l 863 86 m 604 371 l 442 760 l 281 371 l 604 371 m 326 1275 q 433 1317 375 1317 q 534 1282 504 1317 q 564 1203 564 1247 q 556 1163 564 1181 q 529 1124 547 1144 q 501 1078 503 1094 q 489 1057 501 1064 q 457 1050 476 1050 q 433 1058 443 1050 q 422 1079 422 1065 q 444 1133 422 1107 q 471 1168 463 1154 q 479 1194 479 1182 q 465 1222 479 1211 q 431 1233 451 1233 q 371 1210 406 1233 q 347 1200 358 1200 q 318 1215 332 1200 q 308 1239 308 1225 q 326 1275 308 1257 z "},"Ȃ":{"ha":892,"x_min":25,"x_max":867,"o":"m 863 86 q 867 60 867 74 q 848 14 867 32 q 804 -4 829 -4 q 769 8 785 -4 q 743 40 753 19 l 657 244 l 228 244 l 143 39 q 120 7 136 18 q 85 -4 104 -4 q 40 11 56 -4 q 25 53 25 26 q 28 75 25 58 l 382 933 q 409 967 392 956 q 449 976 426 979 q 486 965 469 976 q 510 933 503 954 l 863 86 m 604 371 l 442 760 l 281 371 l 604 371 m 447 1253 q 578 1217 522 1253 q 650 1121 633 1181 q 654 1099 654 1108 q 643 1070 654 1081 q 614 1060 632 1060 q 578 1070 592 1060 q 549 1103 564 1081 q 447 1154 521 1154 q 385 1141 411 1154 q 346 1103 358 1128 q 317 1070 331 1081 q 279 1060 303 1060 q 250 1070 261 1060 q 239 1097 239 1081 q 243 1118 239 1108 q 317 1216 261 1179 q 447 1253 372 1253 z "},"Ā":{"ha":892,"x_min":25,"x_max":867,"o":"m 863 86 q 867 60 867 74 q 848 14 867 32 q 804 -4 829 -4 q 769 8 785 -4 q 743 40 753 19 l 657 244 l 228 244 l 143 39 q 120 7 136 18 q 85 -4 104 -4 q 40 11 56 -4 q 25 53 25 26 q 28 75 25 58 l 382 933 q 409 967 392 956 q 449 976 426 979 q 486 965 469 976 q 510 933 503 954 l 863 86 m 604 371 l 442 760 l 281 371 l 604 371 m 278 1063 q 235 1076 250 1063 q 221 1114 221 1089 q 278 1164 221 1164 l 622 1164 q 679 1114 679 1164 q 665 1076 679 1089 q 622 1063 650 1063 l 278 1063 z "},"Ą":{"ha":896,"x_min":26,"x_max":893,"o":"m 844 -133 q 879 -147 865 -133 q 893 -185 893 -161 q 873 -228 893 -206 q 820 -264 853 -250 q 751 -278 788 -278 q 642 -241 686 -278 q 599 -136 599 -204 q 638 -25 599 -68 q 740 46 676 18 l 657 244 l 228 244 l 143 39 q 120 7 136 18 q 85 -4 104 -4 q 40 9 53 -4 q 26 50 26 22 l 26 57 q 31 78 26 68 l 382 933 q 409 967 392 956 q 449 976 426 979 q 486 965 469 976 q 510 933 503 954 l 872 61 q 878 42 878 51 q 869 15 878 26 q 842 -1 860 3 q 749 -47 786 -17 q 711 -112 711 -78 q 726 -158 711 -142 q 763 -174 742 -174 q 797 -157 785 -174 q 844 -133 814 -133 m 604 371 l 442 760 l 281 371 l 604 371 z "},"Å":{"ha":896,"x_min":25,"x_max":867,"o":"m 863 86 q 867 60 867 74 q 848 14 867 32 q 804 -4 829 -4 q 769 8 785 -4 q 743 40 753 19 l 657 244 l 228 244 l 143 39 q 120 7 136 18 q 85 -4 104 -4 q 40 11 56 -4 q 25 53 25 26 q 28 75 25 58 l 375 917 q 319 970 340 936 q 297 1043 297 1004 q 342 1146 297 1103 q 449 1189 388 1189 q 554 1146 508 1189 q 600 1043 600 1103 q 577 968 600 1003 q 518 914 554 933 l 863 86 m 449 1108 q 399 1090 419 1108 q 379 1043 379 1072 q 399 997 379 1015 q 449 978 419 978 q 498 997 478 978 q 518 1043 518 1015 q 497 1090 518 1072 q 449 1108 476 1108 m 604 371 l 442 760 l 281 371 l 604 371 z "},"Ǻ":{"ha":896,"x_min":25,"x_max":867,"o":"m 863 86 q 867 60 867 74 q 848 14 867 32 q 804 -4 829 -4 q 769 8 785 -4 q 743 40 753 19 l 657 244 l 228 244 l 143 39 q 120 7 136 18 q 85 -4 104 -4 q 40 11 56 -4 q 25 53 25 26 q 28 75 25 58 l 375 917 q 319 970 340 936 q 297 1043 297 1004 q 342 1146 297 1103 q 449 1189 388 1189 q 554 1146 508 1189 q 600 1043 600 1103 q 577 968 600 1003 q 518 914 554 933 l 863 86 m 449 1108 q 399 1090 419 1108 q 379 1043 379 1072 q 399 997 379 1015 q 449 978 419 978 q 498 997 478 978 q 518 1043 518 1015 q 497 1090 518 1072 q 449 1108 476 1108 m 604 371 l 442 760 l 281 371 l 604 371 m 450 1242 q 417 1252 429 1242 q 406 1281 406 1263 q 422 1313 406 1299 l 544 1415 q 600 1439 574 1439 q 642 1422 624 1439 q 661 1382 661 1406 q 650 1347 661 1364 q 619 1321 639 1331 l 482 1250 q 450 1242 465 1242 z "},"Ã":{"ha":892,"x_min":25,"x_max":867,"o":"m 863 86 q 867 60 867 74 q 848 14 867 32 q 804 -4 829 -4 q 769 8 785 -4 q 743 40 753 19 l 657 244 l 228 244 l 143 39 q 120 7 136 18 q 85 -4 104 -4 q 40 11 56 -4 q 25 53 25 26 q 28 75 25 58 l 382 933 q 409 967 392 956 q 449 976 426 979 q 486 965 469 976 q 510 933 503 954 l 863 86 m 604 371 l 442 760 l 281 371 l 604 371 m 264 1042 q 223 1062 239 1042 q 207 1117 207 1082 q 245 1201 207 1167 q 347 1236 283 1236 q 408 1223 378 1236 q 478 1186 439 1210 q 526 1159 510 1167 q 556 1151 542 1151 q 583 1163 572 1151 q 592 1192 593 1174 q 590 1206 590 1197 q 602 1235 590 1224 q 632 1246 614 1246 q 674 1225 658 1246 q 690 1172 690 1204 q 657 1089 690 1126 q 567 1051 624 1051 q 501 1065 533 1051 q 425 1103 468 1079 q 380 1125 401 1115 q 344 1135 358 1135 q 317 1124 328 1135 q 306 1094 306 1114 q 307 1083 307 1090 q 294 1053 307 1064 q 264 1042 282 1042 z "},"Æ":{"ha":1249,"x_min":7,"x_max":1189,"o":"m 1121 128 q 1169 108 1150 128 q 1189 63 1189 89 q 1169 17 1189 35 q 1121 0 1150 0 l 661 0 q 614 19 633 0 q 594 67 594 39 l 594 214 l 249 214 l 118 22 q 69 -6 97 -6 q 28 11 46 -6 q 8 54 10 28 q 21 99 7 75 l 611 943 q 672 972 633 972 l 1121 972 q 1169 954 1150 972 q 1189 907 1189 936 q 1169 862 1189 879 q 1121 844 1150 844 l 731 844 l 731 557 l 1058 557 q 1107 539 1088 557 q 1126 492 1126 521 q 1107 447 1126 464 q 1058 429 1088 429 l 731 429 l 731 128 l 1121 128 m 335 339 l 594 339 l 594 719 l 335 339 z "},"Ǽ":{"ha":1249,"x_min":7,"x_max":1189,"o":"m 1121 128 q 1169 108 1150 128 q 1189 63 1189 89 q 1169 17 1189 35 q 1121 0 1150 0 l 661 0 q 614 19 633 0 q 594 67 594 39 l 594 214 l 249 214 l 118 22 q 69 -6 97 -6 q 28 11 46 -6 q 8 54 10 28 q 21 99 7 75 l 611 943 q 672 972 633 972 l 1121 972 q 1169 954 1150 972 q 1189 907 1189 936 q 1169 862 1189 879 q 1121 844 1150 844 l 731 844 l 731 557 l 1058 557 q 1107 539 1088 557 q 1126 492 1126 521 q 1107 447 1126 464 q 1058 429 1088 429 l 731 429 l 731 128 l 1121 128 m 335 339 l 594 339 l 594 719 l 335 339 m 846 1031 q 813 1041 825 1031 q 801 1069 801 1051 q 818 1101 801 1088 l 940 1204 q 996 1228 969 1228 q 1038 1211 1019 1228 q 1057 1171 1057 1194 q 1046 1136 1057 1153 q 1015 1110 1035 1119 l 878 1039 q 846 1031 861 1031 z "},"B":{"ha":907,"x_min":115,"x_max":847,"o":"m 672 531 q 798 444 749 504 q 847 286 847 383 q 758 66 847 132 q 539 0 668 0 l 182 0 q 135 19 154 0 q 115 67 115 39 l 115 906 q 135 953 115 933 q 182 972 154 972 l 539 972 q 731 910 665 972 q 797 729 797 847 q 765 610 797 663 q 672 531 733 558 m 654 708 q 619 808 654 774 q 519 842 583 842 l 257 842 l 257 571 l 522 571 q 617 608 579 572 q 654 708 654 643 m 538 128 q 660 167 614 128 q 706 286 706 207 q 531 440 706 440 l 257 440 l 257 128 l 538 128 z "},"C":{"ha":886,"x_min":60,"x_max":843,"o":"m 808 915 q 842 860 842 897 q 825 814 842 835 q 779 792 808 792 q 742 801 760 792 q 556 850 656 850 q 372 804 451 850 q 247 676 292 758 q 203 486 203 593 q 249 288 203 371 q 375 160 294 204 q 556 117 456 117 q 742 167 658 117 q 778 175 758 175 q 826 151 808 175 q 843 107 843 131 q 834 76 843 90 q 810 53 825 61 q 688 4 756 22 q 556 -14 621 -14 q 308 46 421 -14 q 127 219 194 106 q 60 486 60 333 q 124 740 60 626 q 302 917 189 853 q 556 982 415 982 q 808 915 690 982 z "},"Ć":{"ha":886,"x_min":60,"x_max":843,"o":"m 808 915 q 842 860 842 897 q 825 814 842 835 q 779 792 808 792 q 742 801 760 792 q 556 850 656 850 q 372 804 451 850 q 247 676 292 758 q 203 486 203 593 q 249 288 203 371 q 375 160 294 204 q 556 117 456 117 q 742 167 658 117 q 778 175 758 175 q 826 151 808 175 q 843 107 843 131 q 834 76 843 90 q 810 53 825 61 q 688 4 756 22 q 556 -14 621 -14 q 308 46 421 -14 q 127 219 194 106 q 60 486 60 333 q 124 740 60 626 q 302 917 189 853 q 556 982 415 982 q 808 915 690 982 m 522 1031 q 490 1041 501 1031 q 478 1069 478 1051 q 494 1101 478 1088 l 617 1204 q 672 1228 646 1228 q 715 1211 696 1228 q 733 1171 733 1194 q 722 1136 733 1153 q 692 1110 711 1119 l 554 1039 q 522 1031 538 1031 z "},"Č":{"ha":886,"x_min":60,"x_max":843,"o":"m 808 915 q 842 860 842 897 q 825 814 842 835 q 779 792 808 792 q 742 801 760 792 q 556 850 656 850 q 372 804 451 850 q 247 676 292 758 q 203 486 203 593 q 249 288 203 371 q 375 160 294 204 q 556 117 456 117 q 742 167 658 117 q 778 175 758 175 q 826 151 808 175 q 843 107 843 131 q 834 76 843 90 q 810 53 825 61 q 688 4 756 22 q 556 -14 621 -14 q 308 46 421 -14 q 127 219 194 106 q 60 486 60 333 q 124 740 60 626 q 302 917 189 853 q 556 982 415 982 q 808 915 690 982 m 676 1238 q 702 1228 692 1238 q 713 1208 713 1219 q 709 1193 713 1200 q 694 1175 706 1186 l 600 1069 q 569 1044 585 1053 q 531 1036 553 1036 l 511 1036 q 473 1044 489 1036 q 443 1069 457 1053 l 347 1175 q 335 1192 339 1185 q 331 1208 331 1200 q 340 1228 331 1219 q 365 1238 350 1238 q 422 1214 389 1238 l 522 1146 l 619 1214 q 676 1238 653 1238 z "},"Ç":{"ha":886,"x_min":60,"x_max":843,"o":"m 826 151 q 843 107 843 131 q 834 76 843 90 q 810 53 825 61 q 697 7 760 25 q 572 -14 635 -11 l 511 -168 q 463 -206 494 -206 q 413 -189 440 -206 q 385 -150 385 -172 q 399 -115 385 -131 l 481 -8 q 267 71 363 7 q 115 241 171 135 q 60 486 60 347 q 124 740 60 626 q 302 917 189 853 q 556 982 415 982 q 808 915 690 982 q 842 860 842 897 q 825 814 842 835 q 779 792 808 792 q 742 801 760 792 q 556 850 656 850 q 372 804 451 850 q 247 676 292 758 q 203 486 203 593 q 249 288 203 371 q 375 160 294 204 q 556 117 456 117 q 742 167 658 117 q 778 175 758 175 q 826 151 808 175 z "},"Ḉ":{"ha":886,"x_min":60,"x_max":843,"o":"m 524 1029 q 490 1040 503 1029 q 478 1069 478 1051 q 496 1101 478 1085 l 617 1203 q 674 1228 644 1228 q 715 1211 696 1228 q 733 1171 733 1194 q 723 1135 733 1151 q 692 1110 713 1119 l 554 1038 q 524 1029 540 1029 m 826 151 q 843 107 843 131 q 834 76 843 90 q 810 53 825 61 q 697 7 760 25 q 572 -14 635 -11 l 511 -168 q 463 -206 494 -206 q 413 -189 440 -206 q 385 -150 385 -172 q 399 -115 385 -131 l 481 -8 q 267 71 363 7 q 115 241 171 135 q 60 486 60 347 q 124 740 60 626 q 302 917 189 853 q 556 982 415 982 q 808 915 690 982 q 842 860 842 897 q 825 814 842 835 q 779 792 808 792 q 742 801 760 792 q 556 850 656 850 q 372 804 451 850 q 247 676 292 758 q 203 486 203 593 q 249 288 203 371 q 375 160 294 204 q 556 117 456 117 q 742 167 658 117 q 778 175 758 175 q 826 151 808 175 z "},"Ĉ":{"ha":886,"x_min":60,"x_max":843,"o":"m 808 915 q 842 860 842 897 q 825 814 842 835 q 779 792 808 792 q 742 801 760 792 q 556 850 656 850 q 372 804 451 850 q 247 676 292 758 q 203 486 203 593 q 249 288 203 371 q 375 160 294 204 q 556 117 456 117 q 742 167 658 117 q 778 175 758 175 q 826 151 808 175 q 843 107 843 131 q 834 76 843 90 q 810 53 825 61 q 688 4 756 22 q 556 -14 621 -14 q 308 46 421 -14 q 127 219 194 106 q 60 486 60 333 q 124 740 60 626 q 302 917 189 853 q 556 982 415 982 q 808 915 690 982 m 694 1103 q 711 1069 711 1085 q 701 1049 711 1058 q 676 1040 690 1040 q 651 1048 667 1040 q 619 1065 636 1056 l 518 1131 l 421 1065 q 390 1047 404 1054 q 364 1040 375 1040 q 340 1049 350 1040 q 329 1069 329 1058 q 333 1085 329 1078 q 346 1103 338 1093 l 442 1208 q 472 1234 457 1226 q 510 1242 488 1242 l 529 1242 q 567 1233 551 1242 q 599 1208 583 1225 l 694 1103 z "},"Ċ":{"ha":886,"x_min":60,"x_max":843,"o":"m 808 915 q 842 860 842 897 q 825 814 842 835 q 779 792 808 792 q 742 801 760 792 q 556 850 656 850 q 372 804 451 850 q 247 676 292 758 q 203 486 203 593 q 249 288 203 371 q 375 160 294 204 q 556 117 456 117 q 742 167 658 117 q 778 175 758 175 q 826 151 808 175 q 843 107 843 131 q 834 76 843 90 q 810 53 825 61 q 688 4 756 22 q 556 -14 621 -14 q 308 46 421 -14 q 127 219 194 106 q 60 486 60 333 q 124 740 60 626 q 302 917 189 853 q 556 982 415 982 q 808 915 690 982 m 511 1046 q 455 1060 472 1046 q 438 1108 438 1075 l 438 1131 q 456 1178 438 1164 q 513 1193 475 1193 q 570 1178 553 1193 q 588 1131 588 1164 l 588 1108 q 569 1060 588 1075 q 511 1046 551 1046 z "},"D":{"ha":996,"x_min":115,"x_max":935,"o":"m 524 972 q 747 907 654 972 q 888 731 840 842 q 935 486 935 621 q 888 240 935 350 q 747 65 840 129 q 524 0 654 0 l 182 0 q 135 19 154 0 q 115 67 115 39 l 115 906 q 135 953 115 933 q 182 972 154 972 l 524 972 m 510 128 q 722 228 651 128 q 793 486 793 329 q 722 743 793 642 q 510 844 650 844 l 253 844 l 253 128 l 510 128 z "},"Ǆ":{"ha":1893,"x_min":115,"x_max":1839,"o":"m 524 972 q 747 907 654 972 q 888 731 840 842 q 935 486 935 621 q 888 240 935 350 q 747 65 840 129 q 524 0 654 0 l 182 0 q 135 19 154 0 q 115 67 115 39 l 115 906 q 135 953 115 933 q 182 972 154 972 l 524 972 m 510 128 q 722 228 651 128 q 793 486 793 329 q 722 743 793 642 q 510 844 650 844 l 253 844 l 253 128 l 510 128 z "},"Ð":{"ha":996,"x_min":7,"x_max":935,"o":"m 524 972 q 747 907 654 972 q 888 731 840 842 q 935 486 935 621 q 888 240 935 350 q 747 65 840 129 q 524 0 654 0 l 182 0 q 135 19 154 0 q 115 67 115 39 l 115 428 l 74 428 q 26 445 44 428 q 7 489 7 463 q 26 532 7 515 q 74 549 44 549 l 115 549 l 115 906 q 135 953 115 933 q 182 972 154 972 l 524 972 m 510 128 q 722 228 651 128 q 793 486 793 329 q 722 743 793 642 q 510 844 650 844 l 253 844 l 253 549 l 310 549 q 358 532 339 549 q 376 489 376 515 q 358 445 376 463 q 310 428 339 428 l 253 428 l 253 128 l 510 128 z "},"Ď":{"ha":996,"x_min":115,"x_max":935,"o":"m 524 972 q 747 907 654 972 q 888 731 840 842 q 935 486 935 621 q 888 240 935 350 q 747 65 840 129 q 524 0 654 0 l 182 0 q 135 19 154 0 q 115 67 115 39 l 115 906 q 135 953 115 933 q 182 972 154 972 l 524 972 m 510 128 q 722 228 651 128 q 793 486 793 329 q 722 743 793 642 q 510 844 650 844 l 253 844 l 253 128 l 510 128 m 585 1238 q 610 1228 600 1238 q 621 1208 621 1219 q 617 1193 621 1200 q 603 1175 614 1186 l 508 1069 q 477 1044 493 1053 q 439 1036 461 1036 l 419 1036 q 381 1044 397 1036 q 351 1069 365 1053 l 256 1175 q 243 1192 247 1185 q 239 1208 239 1200 q 249 1228 239 1219 q 274 1238 258 1238 q 331 1214 297 1238 l 431 1146 l 528 1214 q 585 1238 561 1238 z "},"Đ":{"ha":996,"x_min":7,"x_max":935,"o":"m 524 972 q 747 907 654 972 q 888 731 840 842 q 935 486 935 621 q 888 240 935 350 q 747 65 840 129 q 524 0 654 0 l 182 0 q 135 19 154 0 q 115 67 115 39 l 115 428 l 74 428 q 26 445 44 428 q 7 489 7 463 q 26 532 7 515 q 74 549 44 549 l 115 549 l 115 906 q 135 953 115 933 q 182 972 154 972 l 524 972 m 510 128 q 722 228 651 128 q 793 486 793 329 q 722 743 793 642 q 510 844 650 844 l 253 844 l 253 549 l 310 549 q 358 532 339 549 q 376 489 376 515 q 358 445 376 463 q 310 428 339 428 l 253 428 l 253 128 l 510 128 z "},"Ḍ":{"ha":996,"x_min":115,"x_max":935,"o":"m 524 972 q 747 907 654 972 q 888 731 840 842 q 935 486 935 621 q 888 240 935 350 q 747 65 840 129 q 524 0 654 0 l 182 0 q 135 19 154 0 q 115 67 115 39 l 115 906 q 135 953 115 933 q 182 972 154 972 l 524 972 m 510 128 q 722 228 651 128 q 793 486 793 329 q 722 743 793 642 q 510 844 650 844 l 253 844 l 253 128 l 510 128 m 442 -200 q 385 -185 403 -200 q 368 -136 368 -169 l 368 -115 q 442 -51 368 -51 q 501 -66 483 -51 q 518 -115 518 -81 l 518 -136 q 500 -185 518 -171 q 442 -200 482 -200 z "},"Ḏ":{"ha":996,"x_min":115,"x_max":935,"o":"m 524 972 q 747 907 654 972 q 888 731 840 842 q 935 486 935 621 q 888 240 935 350 q 747 65 840 129 q 524 0 654 0 l 182 0 q 135 19 154 0 q 115 67 115 39 l 115 906 q 135 953 115 933 q 182 972 154 972 l 524 972 m 510 128 q 722 228 651 128 q 793 486 793 329 q 722 743 793 642 q 510 844 650 844 l 253 844 l 253 128 l 510 128 m 296 -196 q 253 -183 268 -196 q 239 -146 239 -169 q 254 -108 239 -122 q 296 -94 269 -94 l 614 -94 q 655 -108 640 -94 q 669 -146 669 -122 q 655 -183 669 -169 q 614 -196 640 -196 l 296 -196 z "},"ǲ":{"ha":1663,"x_min":115,"x_max":1617,"o":"m 524 972 q 747 907 654 972 q 888 731 840 842 q 935 486 935 621 q 888 240 935 350 q 747 65 840 129 q 524 0 654 0 l 182 0 q 135 19 154 0 q 115 67 115 39 l 115 906 q 135 953 115 933 q 182 972 154 972 l 524 972 m 510 128 q 722 228 651 128 q 793 486 793 329 q 722 743 793 642 q 510 844 650 844 l 253 844 l 253 128 l 510 128 m 1554 122 q 1599 105 1581 122 q 1617 61 1617 88 q 1599 17 1617 35 q 1554 0 1581 0 l 1106 0 q 1062 19 1079 0 q 1044 60 1044 39 q 1050 90 1046 78 q 1065 117 1054 101 l 1429 603 l 1128 603 q 1083 621 1101 603 q 1065 665 1065 639 q 1083 708 1065 692 q 1128 725 1100 725 l 1554 725 q 1598 706 1581 725 q 1614 658 1615 686 q 1609 634 1613 644 q 1594 611 1606 624 l 1228 122 l 1554 122 z "},"ǅ":{"ha":1664,"x_min":115,"x_max":1618,"o":"m 524 972 q 747 907 654 972 q 888 731 840 842 q 935 486 935 621 q 888 240 935 350 q 747 65 840 129 q 524 0 654 0 l 182 0 q 135 19 154 0 q 115 67 115 39 l 115 906 q 135 953 115 933 q 182 972 154 972 l 524 972 m 510 128 q 722 228 651 128 q 793 486 793 329 q 722 743 793 642 q 510 844 650 844 l 253 844 l 253 128 l 510 128 z "},"E":{"ha":792,"x_min":115,"x_max":732,"o":"m 665 128 q 713 108 694 128 q 732 63 732 89 q 713 17 732 35 q 665 0 694 0 l 182 0 q 135 19 154 0 q 115 67 115 39 l 115 906 q 135 953 115 933 q 182 972 154 972 l 665 972 q 713 954 694 972 q 732 907 732 936 q 713 862 732 879 q 665 844 694 844 l 253 844 l 253 561 l 603 561 q 651 543 632 561 q 669 497 669 525 q 651 451 669 468 q 603 435 632 435 l 253 435 l 253 128 l 665 128 z "},"É":{"ha":792,"x_min":115,"x_max":732,"o":"m 665 128 q 713 108 694 128 q 732 63 732 89 q 713 17 732 35 q 665 0 694 0 l 182 0 q 135 19 154 0 q 115 67 115 39 l 115 906 q 135 953 115 933 q 182 972 154 972 l 665 972 q 713 954 694 972 q 732 907 732 936 q 713 862 732 879 q 665 844 694 844 l 253 844 l 253 561 l 603 561 q 651 543 632 561 q 669 497 669 525 q 651 451 669 468 q 603 435 632 435 l 253 435 l 253 128 l 665 128 m 433 1031 q 401 1041 413 1031 q 389 1069 389 1051 q 406 1101 389 1088 l 528 1204 q 583 1228 557 1228 q 626 1211 607 1228 q 644 1171 644 1194 q 633 1136 644 1153 q 603 1110 622 1119 l 465 1039 q 433 1031 449 1031 z "},"Ĕ":{"ha":792,"x_min":115,"x_max":732,"o":"m 665 128 q 713 108 694 128 q 732 63 732 89 q 713 17 732 35 q 665 0 694 0 l 182 0 q 135 19 154 0 q 115 67 115 39 l 115 906 q 135 953 115 933 q 182 972 154 972 l 665 972 q 713 954 694 972 q 732 907 732 936 q 713 862 732 879 q 665 844 694 844 l 253 844 l 253 561 l 603 561 q 651 543 632 561 q 669 497 669 525 q 651 451 669 468 q 603 435 632 435 l 253 435 l 253 128 l 665 128 m 432 1063 q 302 1097 357 1063 q 225 1196 247 1132 q 219 1221 219 1208 q 230 1249 219 1239 q 258 1258 240 1258 q 293 1249 281 1258 q 325 1215 306 1239 q 432 1160 360 1160 q 539 1215 507 1160 q 567 1247 553 1238 q 604 1257 582 1257 q 634 1248 624 1257 q 644 1221 644 1239 q 640 1197 644 1210 q 563 1098 618 1133 q 432 1063 508 1063 z "},"Ě":{"ha":792,"x_min":115,"x_max":732,"o":"m 665 128 q 713 108 694 128 q 732 63 732 89 q 713 17 732 35 q 665 0 694 0 l 182 0 q 135 19 154 0 q 115 67 115 39 l 115 906 q 135 953 115 933 q 182 972 154 972 l 665 972 q 713 954 694 972 q 732 907 732 936 q 713 862 732 879 q 665 844 694 844 l 253 844 l 253 561 l 603 561 q 651 543 632 561 q 669 497 669 525 q 651 451 669 468 q 603 435 632 435 l 253 435 l 253 128 l 665 128 m 588 1238 q 613 1228 603 1238 q 624 1208 624 1219 q 620 1193 624 1200 q 606 1175 617 1186 l 511 1069 q 480 1044 496 1053 q 442 1036 464 1036 l 422 1036 q 384 1044 400 1036 q 354 1069 368 1053 l 258 1175 q 246 1192 250 1185 q 242 1208 242 1200 q 251 1228 242 1219 q 276 1238 261 1238 q 333 1214 300 1238 l 433 1146 l 531 1214 q 588 1238 564 1238 z "},"Ḝ":{"ha":792,"x_min":115,"x_max":732,"o":"m 432 1063 q 302 1097 357 1063 q 225 1196 247 1132 q 219 1221 219 1208 q 230 1249 219 1239 q 258 1258 240 1258 q 294 1249 281 1258 q 325 1217 307 1240 q 432 1161 360 1161 q 539 1217 508 1161 q 567 1247 553 1238 q 604 1257 582 1257 q 634 1248 624 1257 q 644 1221 644 1239 q 640 1197 644 1210 q 563 1098 618 1133 q 432 1063 508 1063 m 665 128 q 713 108 694 128 q 732 63 732 89 q 713 17 732 35 q 665 0 694 0 l 444 0 l 378 -168 q 329 -206 364 -206 q 279 -189 307 -206 q 251 -150 251 -172 q 265 -115 251 -131 l 354 0 l 182 0 q 135 19 154 0 q 115 67 115 39 l 115 906 q 135 953 115 933 q 182 972 154 972 l 665 972 q 713 954 694 972 q 732 907 732 936 q 713 862 732 879 q 665 844 694 844 l 253 844 l 253 561 l 603 561 q 651 543 632 561 q 669 497 669 525 q 651 451 669 468 q 603 435 632 435 l 253 435 l 253 128 l 665 128 z "},"Ê":{"ha":792,"x_min":115,"x_max":732,"o":"m 665 128 q 713 108 694 128 q 732 63 732 89 q 713 17 732 35 q 665 0 694 0 l 182 0 q 135 19 154 0 q 115 67 115 39 l 115 906 q 135 953 115 933 q 182 972 154 972 l 665 972 q 713 954 694 972 q 732 907 732 936 q 713 862 732 879 q 665 844 694 844 l 253 844 l 253 561 l 603 561 q 651 543 632 561 q 669 497 669 525 q 651 451 669 468 q 603 435 632 435 l 253 435 l 253 128 l 665 128 m 606 1103 q 622 1069 622 1085 q 612 1049 622 1058 q 588 1040 601 1040 q 563 1048 578 1040 q 531 1065 547 1056 l 429 1131 l 332 1065 q 301 1047 315 1054 q 275 1040 286 1040 q 251 1049 261 1040 q 240 1069 240 1058 q 244 1085 240 1078 q 257 1103 249 1093 l 353 1208 q 383 1234 368 1226 q 421 1242 399 1242 l 440 1242 q 478 1233 463 1242 q 510 1208 494 1225 l 606 1103 z "},"Ế":{"ha":792,"x_min":115,"x_max":872,"o":"m 665 128 q 713 108 694 128 q 732 63 732 89 q 713 17 732 35 q 665 0 694 0 l 182 0 q 135 19 154 0 q 115 67 115 39 l 115 906 q 135 953 115 933 q 182 972 154 972 l 665 972 q 713 954 694 972 q 732 907 732 936 q 713 862 732 879 q 665 844 694 844 l 253 844 l 253 561 l 603 561 q 651 543 632 561 q 669 497 669 525 q 651 451 669 468 q 603 435 632 435 l 253 435 l 253 128 l 665 128 m 606 1103 q 622 1069 622 1085 q 612 1049 622 1058 q 588 1040 601 1040 q 563 1048 578 1040 q 531 1065 547 1056 l 429 1131 l 332 1065 q 301 1047 315 1054 q 275 1040 286 1040 q 251 1049 261 1040 q 240 1069 240 1058 q 244 1085 240 1078 q 257 1103 249 1093 l 353 1208 q 383 1234 368 1226 q 421 1242 399 1242 l 440 1242 q 478 1233 463 1242 q 510 1208 494 1225 l 606 1103 m 661 1136 q 628 1147 640 1136 q 617 1175 617 1157 q 633 1207 617 1193 l 756 1310 q 811 1333 785 1333 q 853 1317 835 1333 q 872 1276 872 1300 q 861 1242 872 1258 q 831 1215 850 1225 l 693 1144 q 661 1136 676 1136 z "},"Ệ":{"ha":792,"x_min":115,"x_max":732,"o":"m 665 128 q 713 108 694 128 q 732 63 732 89 q 713 17 732 35 q 665 0 694 0 l 182 0 q 135 19 154 0 q 115 67 115 39 l 115 906 q 135 953 115 933 q 182 972 154 972 l 665 972 q 713 954 694 972 q 732 907 732 936 q 713 862 732 879 q 665 844 694 844 l 253 844 l 253 561 l 603 561 q 651 543 632 561 q 669 497 669 525 q 651 451 669 468 q 603 435 632 435 l 253 435 l 253 128 l 665 128 m 411 -200 q 355 -185 372 -200 q 338 -136 338 -169 l 338 -115 q 411 -51 338 -51 q 470 -66 453 -51 q 488 -115 488 -81 l 488 -136 q 469 -185 488 -171 q 411 -200 451 -200 m 606 1103 q 622 1069 622 1085 q 612 1049 622 1058 q 588 1040 601 1040 q 563 1048 578 1040 q 531 1065 547 1056 l 429 1131 l 332 1065 q 301 1047 315 1054 q 275 1040 286 1040 q 251 1049 261 1040 q 240 1069 240 1058 q 244 1085 240 1078 q 257 1103 249 1093 l 353 1208 q 383 1234 368 1226 q 421 1242 399 1242 l 440 1242 q 478 1233 463 1242 q 510 1208 494 1225 l 606 1103 z "},"Ề":{"ha":792,"x_min":115,"x_max":732,"o":"m 665 128 q 713 108 694 128 q 732 63 732 89 q 713 17 732 35 q 665 0 694 0 l 182 0 q 135 19 154 0 q 115 67 115 39 l 115 906 q 135 953 115 933 q 182 972 154 972 l 665 972 q 713 954 694 972 q 732 907 732 936 q 713 862 732 879 q 665 844 694 844 l 253 844 l 253 561 l 603 561 q 651 543 632 561 q 669 497 669 525 q 651 451 669 468 q 603 435 632 435 l 253 435 l 253 128 l 665 128 m 606 1103 q 622 1069 622 1085 q 612 1049 622 1058 q 588 1040 601 1040 q 563 1048 578 1040 q 531 1065 547 1056 l 429 1131 l 332 1065 q 301 1047 315 1054 q 275 1040 286 1040 q 251 1049 261 1040 q 240 1069 240 1058 q 244 1085 240 1078 q 257 1103 249 1093 l 353 1208 q 383 1234 368 1226 q 421 1242 399 1242 l 440 1242 q 478 1233 463 1242 q 510 1208 494 1225 l 606 1103 m 621 1221 q 589 1231 608 1221 l 451 1301 q 421 1328 432 1313 q 410 1363 410 1344 q 428 1403 410 1386 q 471 1419 447 1419 q 528 1394 497 1419 l 649 1293 q 665 1261 665 1279 q 653 1232 665 1243 q 621 1221 642 1221 z "},"Ể":{"ha":792,"x_min":115,"x_max":732,"o":"m 665 128 q 713 108 694 128 q 732 63 732 89 q 713 17 732 35 q 665 0 694 0 l 182 0 q 135 19 154 0 q 115 67 115 39 l 115 906 q 135 953 115 933 q 182 972 154 972 l 665 972 q 713 954 694 972 q 732 907 732 936 q 713 862 732 879 q 665 844 694 844 l 253 844 l 253 561 l 603 561 q 651 543 632 561 q 669 497 669 525 q 651 451 669 468 q 603 435 632 435 l 253 435 l 253 128 l 665 128 m 606 1103 q 622 1069 622 1085 q 612 1049 622 1058 q 588 1040 601 1040 q 563 1048 578 1040 q 531 1065 547 1056 l 429 1131 l 332 1065 q 301 1047 315 1054 q 275 1040 286 1040 q 251 1049 261 1040 q 240 1069 240 1058 q 244 1085 240 1078 q 257 1103 249 1093 l 353 1208 q 383 1234 368 1226 q 421 1242 399 1242 l 440 1242 q 478 1233 463 1242 q 510 1208 494 1225 l 606 1103 m 310 1574 q 417 1615 358 1615 q 517 1581 488 1615 q 547 1501 547 1546 q 539 1461 547 1479 q 513 1422 531 1443 q 485 1376 486 1393 q 472 1356 485 1363 q 440 1349 460 1349 q 416 1356 426 1349 q 406 1378 406 1364 q 428 1432 406 1406 q 454 1467 446 1453 q 463 1493 463 1481 q 449 1521 463 1510 q 414 1532 435 1532 q 354 1508 389 1532 q 331 1499 342 1499 q 301 1514 315 1499 q 292 1538 292 1524 q 310 1574 292 1556 z "},"Ễ":{"ha":792,"x_min":115,"x_max":732,"o":"m 665 128 q 713 108 694 128 q 732 63 732 89 q 713 17 732 35 q 665 0 694 0 l 182 0 q 135 19 154 0 q 115 67 115 39 l 115 906 q 135 953 115 933 q 182 972 154 972 l 665 972 q 713 954 694 972 q 732 907 732 936 q 713 862 732 879 q 665 844 694 844 l 253 844 l 253 561 l 603 561 q 651 543 632 561 q 669 497 669 525 q 651 451 669 468 q 603 435 632 435 l 253 435 l 253 128 l 665 128 m 606 1103 q 622 1069 622 1085 q 612 1049 622 1058 q 588 1040 601 1040 q 563 1048 578 1040 q 531 1065 547 1056 l 429 1131 l 332 1065 q 301 1047 315 1054 q 275 1040 286 1040 q 251 1049 261 1040 q 240 1069 240 1058 q 244 1085 240 1078 q 257 1103 249 1093 l 353 1208 q 383 1234 368 1226 q 421 1242 399 1242 l 440 1242 q 478 1233 463 1242 q 510 1208 494 1225 l 606 1103 m 247 1246 q 206 1266 222 1246 q 190 1321 190 1286 q 228 1406 190 1371 q 331 1440 267 1440 q 392 1427 361 1440 q 461 1390 422 1414 q 509 1363 493 1371 q 539 1356 525 1356 q 566 1367 556 1356 q 575 1396 576 1378 q 574 1410 574 1401 q 585 1439 574 1428 q 615 1450 597 1450 q 658 1429 642 1450 q 674 1376 674 1408 q 640 1293 674 1331 q 550 1256 607 1256 q 484 1269 517 1256 q 408 1307 451 1283 q 363 1329 385 1319 q 328 1339 342 1339 q 300 1328 311 1339 q 289 1299 289 1318 q 290 1288 290 1294 q 278 1257 290 1268 q 247 1246 265 1246 z "},"Ȅ":{"ha":792,"x_min":113,"x_max":732,"o":"m 665 128 q 713 108 694 128 q 732 63 732 89 q 713 17 732 35 q 665 0 694 0 l 182 0 q 135 19 154 0 q 115 67 115 39 l 115 906 q 135 953 115 933 q 182 972 154 972 l 665 972 q 713 954 694 972 q 732 907 732 936 q 713 862 732 879 q 665 844 694 844 l 253 844 l 253 561 l 603 561 q 651 543 632 561 q 669 497 669 525 q 651 451 669 468 q 603 435 632 435 l 253 435 l 253 128 l 665 128 m 586 1054 q 556 1063 575 1054 l 418 1133 q 376 1194 376 1157 q 395 1235 376 1219 q 438 1251 414 1251 q 493 1228 464 1251 l 614 1126 q 632 1093 632 1110 q 619 1065 632 1076 q 586 1054 607 1054 m 322 1046 q 292 1056 308 1046 l 154 1126 q 113 1188 113 1147 q 131 1228 113 1211 q 172 1244 150 1244 q 229 1219 201 1244 l 350 1118 q 368 1086 368 1104 q 356 1057 368 1068 q 322 1046 343 1046 z "},"Ë":{"ha":792,"x_min":115,"x_max":732,"o":"m 665 128 q 713 108 694 128 q 732 63 732 89 q 713 17 732 35 q 665 0 694 0 l 182 0 q 135 19 154 0 q 115 67 115 39 l 115 906 q 135 953 115 933 q 182 972 154 972 l 665 972 q 713 954 694 972 q 732 907 732 936 q 713 862 732 879 q 665 844 694 844 l 253 844 l 253 561 l 603 561 q 651 543 632 561 q 669 497 669 525 q 651 451 669 468 q 603 435 632 435 l 253 435 l 253 128 l 665 128 m 300 1064 q 246 1079 264 1064 q 228 1128 228 1094 l 228 1149 q 301 1211 228 1211 q 357 1197 339 1211 q 375 1149 375 1182 l 375 1128 q 357 1079 375 1094 q 300 1064 339 1064 m 561 1064 q 507 1079 525 1064 q 489 1128 489 1094 l 489 1149 q 507 1197 489 1182 q 561 1211 525 1211 q 618 1197 600 1211 q 636 1149 636 1182 l 636 1128 q 618 1079 636 1094 q 561 1064 600 1064 z "},"Ė":{"ha":792,"x_min":115,"x_max":732,"o":"m 665 128 q 713 108 694 128 q 732 63 732 89 q 713 17 732 35 q 665 0 694 0 l 182 0 q 135 19 154 0 q 115 67 115 39 l 115 906 q 135 953 115 933 q 182 972 154 972 l 665 972 q 713 954 694 972 q 732 907 732 936 q 713 862 732 879 q 665 844 694 844 l 253 844 l 253 561 l 603 561 q 651 543 632 561 q 669 497 669 525 q 651 451 669 468 q 603 435 632 435 l 253 435 l 253 128 l 665 128 m 431 1046 q 374 1060 392 1046 q 357 1108 357 1075 l 357 1131 q 376 1178 357 1164 q 432 1193 394 1193 q 490 1178 472 1193 q 507 1131 507 1164 l 507 1108 q 489 1060 507 1075 q 431 1046 471 1046 z "},"Ẹ":{"ha":792,"x_min":115,"x_max":732,"o":"m 665 128 q 713 108 694 128 q 732 63 732 89 q 713 17 732 35 q 665 0 694 0 l 182 0 q 135 19 154 0 q 115 67 115 39 l 115 906 q 135 953 115 933 q 182 972 154 972 l 665 972 q 713 954 694 972 q 732 907 732 936 q 713 862 732 879 q 665 844 694 844 l 253 844 l 253 561 l 603 561 q 651 543 632 561 q 669 497 669 525 q 651 451 669 468 q 603 435 632 435 l 253 435 l 253 128 l 665 128 m 411 -200 q 355 -185 372 -200 q 338 -136 338 -169 l 338 -115 q 411 -51 338 -51 q 470 -66 453 -51 q 488 -115 488 -81 l 488 -136 q 469 -185 488 -171 q 411 -200 451 -200 z "},"È":{"ha":792,"x_min":115,"x_max":732,"o":"m 665 128 q 713 108 694 128 q 732 63 732 89 q 713 17 732 35 q 665 0 694 0 l 182 0 q 135 19 154 0 q 115 67 115 39 l 115 906 q 135 953 115 933 q 182 972 154 972 l 665 972 q 713 954 694 972 q 732 907 732 936 q 713 862 732 879 q 665 844 694 844 l 253 844 l 253 561 l 603 561 q 651 543 632 561 q 669 497 669 525 q 651 451 669 468 q 603 435 632 435 l 253 435 l 253 128 l 665 128 m 431 1033 q 399 1043 418 1033 l 261 1114 q 231 1141 242 1125 q 219 1175 219 1157 q 238 1215 219 1199 q 281 1232 257 1232 q 338 1207 307 1232 l 458 1106 q 475 1074 475 1092 q 463 1044 475 1056 q 431 1033 451 1033 z "},"Ẻ":{"ha":792,"x_min":115,"x_max":732,"o":"m 665 128 q 713 108 694 128 q 732 63 732 89 q 713 17 732 35 q 665 0 694 0 l 182 0 q 135 19 154 0 q 115 67 115 39 l 115 906 q 135 953 115 933 q 182 972 154 972 l 665 972 q 713 954 694 972 q 732 907 732 936 q 713 862 732 879 q 665 844 694 844 l 253 844 l 253 561 l 603 561 q 651 543 632 561 q 669 497 669 525 q 651 451 669 468 q 603 435 632 435 l 253 435 l 253 128 l 665 128 m 310 1275 q 417 1317 358 1317 q 517 1282 488 1317 q 547 1203 547 1247 q 539 1163 547 1181 q 513 1124 531 1144 q 485 1078 486 1094 q 472 1057 485 1064 q 440 1050 460 1050 q 416 1058 426 1050 q 406 1079 406 1065 q 428 1133 406 1107 q 454 1168 446 1154 q 463 1194 463 1182 q 449 1222 463 1211 q 414 1233 435 1233 q 354 1210 389 1233 q 331 1200 342 1200 q 301 1215 315 1200 q 292 1239 292 1225 q 310 1275 292 1257 z "},"Ȇ":{"ha":792,"x_min":115,"x_max":732,"o":"m 665 128 q 713 108 694 128 q 732 63 732 89 q 713 17 732 35 q 665 0 694 0 l 182 0 q 135 19 154 0 q 115 67 115 39 l 115 906 q 135 953 115 933 q 182 972 154 972 l 665 972 q 713 954 694 972 q 732 907 732 936 q 713 862 732 879 q 665 844 694 844 l 253 844 l 253 561 l 603 561 q 651 543 632 561 q 669 497 669 525 q 651 451 669 468 q 603 435 632 435 l 253 435 l 253 128 l 665 128 m 431 1253 q 561 1217 506 1253 q 633 1121 617 1181 q 638 1099 638 1108 q 626 1070 638 1081 q 597 1060 615 1060 q 561 1070 575 1060 q 532 1103 547 1081 q 431 1154 504 1154 q 368 1141 394 1154 q 329 1103 342 1128 q 300 1070 314 1081 q 263 1060 286 1060 q 233 1070 244 1060 q 222 1097 222 1081 q 226 1118 222 1108 q 300 1216 244 1179 q 431 1253 356 1253 z "},"Ē":{"ha":792,"x_min":115,"x_max":732,"o":"m 665 128 q 713 108 694 128 q 732 63 732 89 q 713 17 732 35 q 665 0 694 0 l 182 0 q 135 19 154 0 q 115 67 115 39 l 115 906 q 135 953 115 933 q 182 972 154 972 l 665 972 q 713 954 694 972 q 732 907 732 936 q 713 862 732 879 q 665 844 694 844 l 253 844 l 253 561 l 603 561 q 651 543 632 561 q 669 497 669 525 q 651 451 669 468 q 603 435 632 435 l 253 435 l 253 128 l 665 128 m 261 1063 q 219 1076 233 1063 q 204 1114 204 1089 q 261 1164 204 1164 l 606 1164 q 663 1114 663 1164 q 648 1076 663 1089 q 606 1063 633 1063 l 261 1063 z "},"Ḗ":{"ha":792,"x_min":115,"x_max":732,"o":"m 665 128 q 713 108 694 128 q 732 63 732 89 q 713 17 732 35 q 665 0 694 0 l 182 0 q 135 19 154 0 q 115 67 115 39 l 115 906 q 135 953 115 933 q 182 972 154 972 l 665 972 q 713 954 694 972 q 732 907 732 936 q 713 862 732 879 q 665 844 694 844 l 253 844 l 253 561 l 603 561 q 651 543 632 561 q 669 497 669 525 q 651 451 669 468 q 603 435 632 435 l 253 435 l 253 128 l 665 128 m 261 1063 q 219 1076 233 1063 q 204 1114 204 1089 q 261 1164 204 1164 l 606 1164 q 663 1114 663 1164 q 648 1076 663 1089 q 606 1063 633 1063 l 261 1063 m 433 1256 q 401 1266 413 1256 q 389 1294 389 1276 q 406 1326 389 1313 l 528 1429 q 583 1453 557 1453 q 626 1436 607 1453 q 644 1396 644 1419 q 633 1361 644 1378 q 603 1335 622 1344 l 465 1264 q 433 1256 449 1256 z "},"Ḕ":{"ha":792,"x_min":115,"x_max":732,"o":"m 665 128 q 713 108 694 128 q 732 63 732 89 q 713 17 732 35 q 665 0 694 0 l 182 0 q 135 19 154 0 q 115 67 115 39 l 115 906 q 135 953 115 933 q 182 972 154 972 l 665 972 q 713 954 694 972 q 732 907 732 936 q 713 862 732 879 q 665 844 694 844 l 253 844 l 253 561 l 603 561 q 651 543 632 561 q 669 497 669 525 q 651 451 669 468 q 603 435 632 435 l 253 435 l 253 128 l 665 128 m 261 1063 q 219 1076 233 1063 q 204 1114 204 1089 q 261 1164 204 1164 l 606 1164 q 663 1114 663 1164 q 648 1076 663 1089 q 606 1063 633 1063 l 261 1063 m 431 1258 q 399 1268 418 1258 l 261 1339 q 231 1366 242 1350 q 219 1400 219 1382 q 238 1440 219 1424 q 281 1457 257 1457 q 338 1432 307 1457 l 458 1331 q 475 1299 475 1317 q 463 1269 475 1281 q 431 1258 451 1258 z "},"Ę":{"ha":799,"x_min":115,"x_max":732,"o":"m 665 128 q 713 110 694 128 q 732 63 732 92 q 715 22 732 36 q 665 0 697 7 q 570 -42 608 -11 q 532 -111 532 -74 q 548 -157 532 -140 q 585 -174 564 -174 q 619 -157 607 -174 q 668 -133 636 -133 q 702 -147 689 -133 q 715 -185 715 -161 q 695 -228 715 -206 q 642 -264 675 -250 q 574 -278 610 -278 q 465 -241 508 -278 q 421 -136 421 -204 q 504 0 421 -57 l 182 0 q 135 19 154 0 q 115 67 115 39 l 115 906 q 135 953 115 933 q 182 972 154 972 l 665 972 q 713 954 694 972 q 732 907 732 936 q 713 864 732 882 q 665 846 694 846 l 253 846 l 253 561 l 603 561 q 651 543 632 561 q 669 497 669 525 q 650 453 669 472 q 603 435 631 435 l 253 435 l 253 128 l 665 128 z "},"Ẽ":{"ha":792,"x_min":115,"x_max":732,"o":"m 665 128 q 713 108 694 128 q 732 63 732 89 q 713 17 732 35 q 665 0 694 0 l 182 0 q 135 19 154 0 q 115 67 115 39 l 115 906 q 135 953 115 933 q 182 972 154 972 l 665 972 q 713 954 694 972 q 732 907 732 936 q 713 862 732 879 q 665 844 694 844 l 253 844 l 253 561 l 603 561 q 651 543 632 561 q 669 497 669 525 q 651 451 669 468 q 603 435 632 435 l 253 435 l 253 128 l 665 128 m 247 1042 q 206 1062 222 1042 q 190 1117 190 1082 q 228 1201 190 1167 q 331 1236 267 1236 q 392 1223 361 1236 q 461 1186 422 1210 q 509 1159 493 1167 q 539 1151 525 1151 q 566 1163 556 1151 q 575 1192 576 1174 q 574 1206 574 1197 q 585 1235 574 1224 q 615 1246 597 1246 q 658 1225 642 1246 q 674 1172 674 1204 q 640 1089 674 1126 q 550 1051 607 1051 q 484 1065 517 1051 q 408 1103 451 1079 q 363 1125 385 1115 q 328 1135 342 1135 q 300 1124 311 1135 q 289 1094 289 1114 q 290 1083 290 1090 q 278 1053 290 1064 q 247 1042 265 1042 z "},"F":{"ha":783,"x_min":115,"x_max":722,"o":"m 251 844 l 251 557 l 593 557 q 641 539 622 557 q 660 492 660 521 q 641 449 660 467 q 593 431 622 431 l 251 431 l 251 67 q 231 19 251 39 q 183 0 211 0 q 135 19 154 0 q 115 67 115 39 l 115 906 q 135 953 115 933 q 182 972 154 972 l 656 972 q 703 954 685 972 q 722 907 722 936 q 703 863 722 882 q 656 844 683 844 l 251 844 z "},"G":{"ha":965,"x_min":60,"x_max":894,"o":"m 829 511 q 876 492 857 511 q 894 444 894 472 l 894 132 q 861 74 894 94 q 721 9 797 32 q 564 -14 644 -14 q 309 53 425 -14 q 126 234 193 119 q 60 486 60 349 q 126 738 60 624 q 309 919 193 853 q 564 986 425 986 q 698 971 633 986 q 814 925 763 956 q 839 901 831 915 q 847 871 847 888 q 828 823 847 843 q 783 803 810 803 q 747 813 763 803 q 564 854 657 854 q 381 806 464 854 q 251 672 299 757 q 203 486 203 588 q 251 301 203 385 q 381 167 299 217 q 564 118 464 118 q 663 129 611 118 q 753 158 715 140 l 753 379 l 585 379 q 538 398 557 379 q 518 444 518 417 q 538 492 518 474 q 585 511 557 511 l 829 511 z "},"Ğ":{"ha":965,"x_min":60,"x_max":894,"o":"m 829 511 q 876 492 857 511 q 894 444 894 472 l 894 132 q 861 74 894 94 q 721 9 797 32 q 564 -14 644 -14 q 309 53 425 -14 q 126 234 193 119 q 60 486 60 349 q 126 738 60 624 q 309 919 193 853 q 564 986 425 986 q 698 971 633 986 q 814 925 763 956 q 839 901 831 915 q 847 871 847 888 q 828 823 847 843 q 783 803 810 803 q 747 813 763 803 q 564 854 657 854 q 381 806 464 854 q 251 672 299 757 q 203 486 203 588 q 251 301 203 385 q 381 167 299 217 q 564 118 464 118 q 663 129 611 118 q 753 158 715 140 l 753 379 l 585 379 q 538 398 557 379 q 518 444 518 417 q 538 492 518 474 q 585 511 557 511 l 829 511 m 535 1063 q 405 1097 460 1063 q 328 1196 350 1132 q 322 1221 322 1208 q 333 1249 322 1239 q 361 1258 343 1258 q 396 1249 383 1258 q 428 1215 408 1239 q 535 1160 463 1160 q 642 1215 610 1160 q 670 1247 656 1238 q 707 1257 685 1257 q 737 1248 726 1257 q 747 1221 747 1239 q 743 1197 747 1210 q 666 1098 721 1133 q 535 1063 611 1063 z "},"Ǧ":{"ha":965,"x_min":60,"x_max":894,"o":"m 829 511 q 876 492 857 511 q 894 444 894 472 l 894 132 q 861 74 894 94 q 721 9 797 32 q 564 -14 644 -14 q 309 53 425 -14 q 126 234 193 119 q 60 486 60 349 q 126 738 60 624 q 309 919 193 853 q 564 986 425 986 q 698 971 633 986 q 814 925 763 956 q 839 901 831 915 q 847 871 847 888 q 828 823 847 843 q 783 803 810 803 q 747 813 763 803 q 564 854 657 854 q 381 806 464 854 q 251 672 299 757 q 203 486 203 588 q 251 301 203 385 q 381 167 299 217 q 564 118 464 118 q 663 129 611 118 q 753 158 715 140 l 753 379 l 585 379 q 538 398 557 379 q 518 444 518 417 q 538 492 518 474 q 585 511 557 511 l 829 511 m 689 1238 q 715 1228 704 1238 q 725 1208 725 1219 q 722 1193 725 1200 q 707 1175 718 1186 l 613 1069 q 581 1044 597 1053 q 543 1036 565 1036 l 524 1036 q 485 1044 501 1036 q 456 1069 469 1053 l 360 1175 q 347 1192 351 1185 q 343 1208 343 1200 q 353 1228 343 1219 q 378 1238 363 1238 q 435 1214 401 1238 l 535 1146 l 632 1214 q 689 1238 665 1238 z "},"Ĝ":{"ha":965,"x_min":60,"x_max":894,"o":"m 829 511 q 876 492 857 511 q 894 444 894 472 l 894 132 q 861 74 894 94 q 721 9 797 32 q 564 -14 644 -14 q 309 53 425 -14 q 126 234 193 119 q 60 486 60 349 q 126 738 60 624 q 309 919 193 853 q 564 986 425 986 q 698 971 633 986 q 814 925 763 956 q 839 901 831 915 q 847 871 847 888 q 828 823 847 843 q 783 803 810 803 q 747 813 763 803 q 564 854 657 854 q 381 806 464 854 q 251 672 299 757 q 203 486 203 588 q 251 301 203 385 q 381 167 299 217 q 564 118 464 118 q 663 129 611 118 q 753 158 715 140 l 753 379 l 585 379 q 538 398 557 379 q 518 444 518 417 q 538 492 518 474 q 585 511 557 511 l 829 511 m 707 1103 q 724 1069 724 1085 q 713 1049 724 1058 q 689 1040 703 1040 q 664 1048 679 1040 q 632 1065 649 1056 l 531 1131 l 433 1065 q 402 1047 417 1054 q 376 1040 388 1040 q 352 1049 363 1040 q 342 1069 342 1058 q 346 1085 342 1078 q 358 1103 350 1093 l 454 1208 q 485 1234 469 1226 q 522 1242 500 1242 l 542 1242 q 580 1233 564 1242 q 611 1208 596 1225 l 707 1103 z "},"Ģ":{"ha":965,"x_min":60,"x_max":894,"o":"m 829 511 q 876 492 857 511 q 894 444 894 472 l 894 132 q 861 74 894 94 q 721 9 797 32 q 564 -14 644 -14 q 309 53 425 -14 q 126 234 193 119 q 60 486 60 349 q 126 738 60 624 q 309 919 193 853 q 564 986 425 986 q 698 971 633 986 q 814 925 763 956 q 839 901 831 915 q 847 871 847 888 q 828 823 847 843 q 783 803 810 803 q 747 813 763 803 q 564 854 657 854 q 381 806 464 854 q 251 672 299 757 q 203 486 203 588 q 251 301 203 385 q 381 167 299 217 q 564 118 464 118 q 663 129 611 118 q 753 158 715 140 l 753 379 l 585 379 q 538 398 557 379 q 518 444 518 417 q 538 492 518 474 q 585 511 557 511 l 829 511 m 656 -146 q 617 -229 656 -192 q 528 -267 579 -267 q 485 -256 500 -267 q 469 -229 469 -244 q 477 -208 469 -215 q 496 -200 485 -200 q 512 -203 501 -200 q 532 -206 522 -206 q 558 -194 547 -206 q 568 -164 568 -183 q 554 -146 568 -146 q 540 -152 549 -146 q 519 -158 532 -158 q 487 -144 499 -158 q 475 -110 475 -131 q 498 -65 475 -81 q 560 -50 521 -50 q 628 -76 601 -50 q 656 -146 656 -101 z "},"Ġ":{"ha":965,"x_min":60,"x_max":894,"o":"m 829 511 q 876 492 857 511 q 894 444 894 472 l 894 132 q 861 74 894 94 q 721 9 797 32 q 564 -14 644 -14 q 309 53 425 -14 q 126 234 193 119 q 60 486 60 349 q 126 738 60 624 q 309 919 193 853 q 564 986 425 986 q 698 971 633 986 q 814 925 763 956 q 839 901 831 915 q 847 871 847 888 q 828 823 847 843 q 783 803 810 803 q 747 813 763 803 q 564 854 657 854 q 381 806 464 854 q 251 672 299 757 q 203 486 203 588 q 251 301 203 385 q 381 167 299 217 q 564 118 464 118 q 663 129 611 118 q 753 158 715 140 l 753 379 l 585 379 q 538 398 557 379 q 518 444 518 417 q 538 492 518 474 q 585 511 557 511 l 829 511 m 533 1046 q 477 1060 494 1046 q 460 1108 460 1075 l 460 1131 q 478 1178 460 1164 q 535 1193 497 1193 q 592 1178 575 1193 q 610 1131 610 1164 l 610 1108 q 592 1060 610 1075 q 533 1046 574 1046 z "},"Ḡ":{"ha":965,"x_min":60,"x_max":894,"o":"m 829 511 q 876 492 857 511 q 894 444 894 472 l 894 132 q 861 74 894 94 q 721 9 797 32 q 564 -14 644 -14 q 309 53 425 -14 q 126 234 193 119 q 60 486 60 349 q 126 738 60 624 q 309 919 193 853 q 564 986 425 986 q 698 971 633 986 q 814 925 763 956 q 839 901 831 915 q 847 871 847 888 q 828 823 847 843 q 783 803 810 803 q 747 813 763 803 q 564 854 657 854 q 381 806 464 854 q 251 672 299 757 q 203 486 203 588 q 251 301 203 385 q 381 167 299 217 q 564 118 464 118 q 663 129 611 118 q 753 158 715 140 l 753 379 l 585 379 q 538 398 557 379 q 518 444 518 417 q 538 492 518 474 q 585 511 557 511 l 829 511 m 364 1063 q 322 1076 336 1063 q 307 1114 307 1089 q 364 1164 307 1164 l 708 1164 q 765 1114 765 1164 q 751 1076 765 1089 q 708 1063 736 1063 l 364 1063 z "},"H":{"ha":999,"x_min":115,"x_max":885,"o":"m 815 972 q 865 953 846 972 q 885 906 885 935 l 885 68 q 864 19 883 39 q 814 0 844 0 q 766 19 786 0 q 746 68 746 39 l 746 428 l 253 428 l 253 68 q 232 19 253 39 q 183 0 211 0 q 134 19 153 0 q 115 68 115 39 l 115 906 q 135 953 115 933 q 185 972 154 972 q 233 953 213 972 q 253 906 253 933 l 253 556 l 746 556 l 746 906 q 767 953 746 933 q 815 972 788 972 z "},"Ħ":{"ha":1133,"x_min":82,"x_max":1053,"o":"m 994 793 q 1036 777 1019 793 q 1053 736 1053 761 q 1036 697 1053 713 q 994 681 1019 681 l 951 681 l 951 68 q 931 19 951 39 q 881 0 911 0 q 833 19 853 0 q 814 68 814 39 l 814 428 l 319 428 l 319 68 q 299 19 319 39 q 250 0 278 0 q 201 19 219 0 q 182 68 182 39 l 182 681 l 139 681 q 98 697 114 681 q 82 738 82 713 q 98 777 82 761 q 139 793 114 793 l 182 793 l 182 906 q 202 953 182 933 q 253 972 222 972 q 299 953 279 972 q 319 906 319 933 l 319 793 l 814 793 l 814 906 q 835 953 814 933 q 883 972 856 972 q 933 953 914 972 q 951 906 951 935 l 951 793 l 994 793 m 814 681 l 319 681 l 319 556 l 814 556 l 814 681 z "},"Ḫ":{"ha":999,"x_min":115,"x_max":885,"o":"m 815 972 q 865 953 846 972 q 885 906 885 935 l 885 68 q 864 19 883 39 q 814 0 844 0 q 766 19 786 0 q 746 68 746 39 l 746 428 l 253 428 l 253 68 q 232 19 253 39 q 183 0 211 0 q 134 19 153 0 q 115 68 115 39 l 115 906 q 135 953 115 933 q 185 972 154 972 q 233 953 213 972 q 253 906 253 933 l 253 556 l 746 556 l 746 906 q 767 953 746 933 q 815 972 788 972 m 500 -239 q 369 -199 425 -239 q 296 -93 314 -160 q 292 -72 292 -83 q 303 -44 292 -54 q 332 -33 314 -33 q 369 -44 356 -33 q 399 -76 383 -54 q 438 -125 411 -108 q 500 -142 464 -142 q 562 -124 536 -142 q 601 -76 588 -107 q 631 -44 617 -54 q 667 -33 644 -33 q 697 -44 685 -33 q 708 -71 708 -54 q 704 -92 708 -82 q 631 -199 686 -158 q 500 -239 575 -239 z "},"Ĥ":{"ha":999,"x_min":115,"x_max":885,"o":"m 815 972 q 865 953 846 972 q 885 906 885 935 l 885 68 q 864 19 883 39 q 814 0 844 0 q 766 19 786 0 q 746 68 746 39 l 746 428 l 253 428 l 253 68 q 232 19 253 39 q 183 0 211 0 q 134 19 153 0 q 115 68 115 39 l 115 906 q 135 953 115 933 q 185 972 154 972 q 233 953 213 972 q 253 906 253 933 l 253 556 l 746 556 l 746 906 q 767 953 746 933 q 815 972 788 972 m 674 1103 q 690 1069 690 1085 q 680 1049 690 1058 q 656 1040 669 1040 q 631 1048 646 1040 q 599 1065 615 1056 l 497 1131 l 400 1065 q 369 1047 383 1054 q 343 1040 354 1040 q 319 1049 329 1040 q 308 1069 308 1058 q 313 1085 308 1078 q 325 1103 317 1093 l 421 1208 q 451 1234 436 1226 q 489 1242 467 1242 l 508 1242 q 547 1233 531 1242 q 578 1208 563 1225 l 674 1103 z "},"Ḥ":{"ha":999,"x_min":115,"x_max":885,"o":"m 815 972 q 865 953 846 972 q 885 906 885 935 l 885 68 q 864 19 883 39 q 814 0 844 0 q 766 19 786 0 q 746 68 746 39 l 746 428 l 253 428 l 253 68 q 232 19 253 39 q 183 0 211 0 q 134 19 153 0 q 115 68 115 39 l 115 906 q 135 953 115 933 q 185 972 154 972 q 233 953 213 972 q 253 906 253 933 l 253 556 l 746 556 l 746 906 q 767 953 746 933 q 815 972 788 972 m 499 -200 q 442 -185 460 -200 q 425 -136 425 -169 l 425 -115 q 499 -51 425 -51 q 558 -66 540 -51 q 575 -115 575 -81 l 575 -136 q 557 -185 575 -171 q 499 -200 539 -200 z "},"I":{"ha":368,"x_min":115,"x_max":253,"o":"m 253 68 q 232 19 253 39 q 183 0 211 0 q 134 19 153 0 q 115 68 115 39 l 115 906 q 135 953 115 933 q 185 972 154 972 q 233 953 213 972 q 253 906 253 933 l 253 68 z "},"Ĳ":{"ha":822,"x_min":115,"x_max":707,"o":"m 388 -14 q 237 25 306 -14 q 128 132 168 64 q 115 169 115 151 q 136 215 115 196 q 179 233 157 233 q 240 199 211 233 q 388 118 297 118 q 517 169 464 118 q 569 296 569 221 l 569 906 q 590 953 569 933 q 639 972 611 972 q 688 953 669 972 q 707 906 707 935 l 707 296 q 665 140 707 211 q 550 28 624 69 q 388 -14 476 -14 m 265 410 q 244 363 265 382 q 196 343 224 343 q 147 362 165 343 q 128 410 128 381 l 128 906 q 148 953 128 933 q 199 972 168 972 q 245 953 225 972 q 265 906 265 933 l 265 410 z "},"Í":{"ha":368,"x_min":115,"x_max":399,"o":"m 253 68 q 232 19 253 39 q 183 0 211 0 q 134 19 153 0 q 115 68 115 39 l 115 906 q 135 953 115 933 q 185 972 154 972 q 233 953 213 972 q 253 906 253 933 l 253 68 m 188 1031 q 155 1041 167 1031 q 143 1069 143 1051 q 160 1101 143 1088 l 282 1204 q 338 1228 311 1228 q 380 1211 361 1228 q 399 1171 399 1194 q 388 1136 399 1153 q 357 1110 376 1119 l 219 1039 q 188 1031 203 1031 z "},"Ĭ":{"ha":368,"x_min":-26,"x_max":399,"o":"m 253 68 q 232 19 253 39 q 183 0 211 0 q 134 19 153 0 q 115 68 115 39 l 115 906 q 135 953 115 933 q 185 972 154 972 q 233 953 213 972 q 253 906 253 933 l 253 68 m 186 1063 q 56 1097 111 1063 q -21 1196 1 1132 q -26 1221 -26 1208 q -16 1249 -26 1239 q 13 1258 -6 1258 q 47 1249 35 1258 q 79 1215 60 1239 q 186 1160 114 1160 q 293 1215 261 1160 q 322 1247 307 1238 q 358 1257 336 1257 q 388 1248 378 1257 q 399 1221 399 1239 q 394 1197 399 1210 q 317 1098 372 1133 q 186 1063 263 1063 z "},"Ǐ":{"ha":368,"x_min":-4,"x_max":378,"o":"m 253 68 q 232 19 253 39 q 183 0 211 0 q 134 19 153 0 q 115 68 115 39 l 115 906 q 135 953 115 933 q 185 972 154 972 q 233 953 213 972 q 253 906 253 933 l 253 68 m 342 1238 q 367 1228 357 1238 q 378 1208 378 1219 q 374 1193 378 1200 q 360 1175 371 1186 l 265 1069 q 234 1044 250 1053 q 196 1036 218 1036 l 176 1036 q 138 1044 154 1036 q 108 1069 122 1053 l 13 1175 q 0 1192 4 1185 q -4 1208 -4 1200 q 6 1228 -4 1219 q 31 1238 15 1238 q 88 1214 54 1238 l 188 1146 l 285 1214 q 342 1238 318 1238 z "},"Î":{"ha":368,"x_min":-6,"x_max":376,"o":"m 253 68 q 232 19 253 39 q 183 0 211 0 q 134 19 153 0 q 115 68 115 39 l 115 906 q 135 953 115 933 q 185 972 154 972 q 233 953 213 972 q 253 906 253 933 l 253 68 m 360 1103 q 376 1069 376 1085 q 366 1049 376 1058 q 342 1040 356 1040 q 317 1048 332 1040 q 285 1065 301 1056 l 183 1131 l 86 1065 q 55 1047 69 1054 q 29 1040 40 1040 q 5 1049 15 1040 q -6 1069 -6 1058 q -1 1085 -6 1078 q 11 1103 3 1093 l 107 1208 q 138 1234 122 1226 q 175 1242 153 1242 l 194 1242 q 233 1233 217 1242 q 264 1208 249 1225 l 360 1103 z "},"Ȉ":{"ha":368,"x_min":-133,"x_max":386,"o":"m 253 68 q 232 19 253 39 q 183 0 211 0 q 134 19 153 0 q 115 68 115 39 l 115 906 q 135 953 115 933 q 185 972 154 972 q 233 953 213 972 q 253 906 253 933 l 253 68 m 340 1054 q 310 1063 329 1054 l 172 1133 q 131 1194 131 1157 q 149 1235 131 1219 q 192 1251 168 1251 q 247 1228 218 1251 l 368 1126 q 386 1093 386 1110 q 374 1065 386 1076 q 340 1054 361 1054 m 76 1046 q 46 1056 63 1046 l -92 1126 q -133 1188 -133 1147 q -115 1228 -133 1211 q -74 1244 -96 1244 q -17 1219 -44 1244 l 104 1118 q 122 1086 122 1104 q 110 1057 122 1068 q 76 1046 97 1046 z "},"Ï":{"ha":368,"x_min":-18,"x_max":390,"o":"m 253 68 q 232 19 253 39 q 183 0 211 0 q 134 19 153 0 q 115 68 115 39 l 115 906 q 135 953 115 933 q 185 972 154 972 q 233 953 213 972 q 253 906 253 933 l 253 68 m 54 1064 q 0 1079 18 1064 q -18 1128 -18 1094 l -18 1149 q 56 1211 -18 1211 q 111 1197 93 1211 q 129 1149 129 1182 l 129 1128 q 111 1079 129 1094 q 54 1064 93 1064 m 315 1064 q 261 1079 279 1064 q 243 1128 243 1094 l 243 1149 q 261 1197 243 1182 q 315 1211 279 1211 q 372 1197 354 1211 q 390 1149 390 1182 l 390 1128 q 372 1079 390 1094 q 315 1064 354 1064 z "},"Ḯ":{"ha":368,"x_min":-18,"x_max":399,"o":"m 253 68 q 232 19 253 39 q 183 0 211 0 q 134 19 153 0 q 115 68 115 39 l 115 906 q 135 953 115 933 q 185 972 154 972 q 233 953 213 972 q 253 906 253 933 l 253 68 m 54 1064 q 0 1079 18 1064 q -18 1128 -18 1094 l -18 1149 q 56 1211 -18 1211 q 111 1197 93 1211 q 129 1149 129 1182 l 129 1128 q 111 1079 129 1094 q 54 1064 93 1064 m 315 1064 q 261 1079 279 1064 q 243 1128 243 1094 l 243 1149 q 261 1197 243 1182 q 315 1211 279 1211 q 372 1197 354 1211 q 390 1149 390 1182 l 390 1128 q 372 1079 390 1094 q 315 1064 354 1064 m 188 1289 q 155 1299 167 1289 q 143 1328 143 1310 q 160 1360 143 1346 l 282 1463 q 338 1486 311 1486 q 380 1469 361 1486 q 399 1429 399 1453 q 388 1394 399 1411 q 357 1368 376 1378 l 219 1297 q 188 1289 203 1289 z "},"İ":{"ha":368,"x_min":111,"x_max":261,"o":"m 253 68 q 232 19 253 39 q 183 0 211 0 q 134 19 153 0 q 115 68 115 39 l 115 906 q 135 953 115 933 q 185 972 154 972 q 233 953 213 972 q 253 906 253 933 l 253 68 m 185 1046 q 128 1060 146 1046 q 111 1108 111 1075 l 111 1131 q 130 1178 111 1164 q 186 1193 149 1193 q 244 1178 226 1193 q 261 1131 261 1164 l 261 1108 q 243 1060 261 1075 q 185 1046 225 1046 z "},"Ị":{"ha":368,"x_min":111,"x_max":261,"o":"m 253 68 q 232 19 253 39 q 183 0 211 0 q 134 19 153 0 q 115 68 115 39 l 115 906 q 135 953 115 933 q 185 972 154 972 q 233 953 213 972 q 253 906 253 933 l 253 68 m 185 -200 q 128 -185 146 -200 q 111 -136 111 -169 l 111 -115 q 185 -51 111 -51 q 244 -66 226 -51 q 261 -115 261 -81 l 261 -136 q 243 -185 261 -171 q 185 -200 225 -200 z "},"Ì":{"ha":368,"x_min":-26,"x_max":253,"o":"m 253 68 q 232 19 253 39 q 183 0 211 0 q 134 19 153 0 q 115 68 115 39 l 115 906 q 135 953 115 933 q 185 972 154 972 q 233 953 213 972 q 253 906 253 933 l 253 68 m 185 1033 q 153 1043 172 1033 l 15 1114 q -15 1141 -4 1125 q -26 1175 -26 1157 q -8 1215 -26 1199 q 35 1232 11 1232 q 92 1207 61 1232 l 213 1106 q 229 1074 229 1092 q 217 1044 229 1056 q 185 1033 206 1033 z "},"Ỉ":{"ha":368,"x_min":46,"x_max":301,"o":"m 253 68 q 232 19 253 39 q 183 0 211 0 q 134 19 153 0 q 115 68 115 39 l 115 906 q 135 953 115 933 q 185 972 154 972 q 233 953 213 972 q 253 906 253 933 l 253 68 m 64 1275 q 171 1317 113 1317 q 272 1282 242 1317 q 301 1203 301 1247 q 293 1163 301 1181 q 267 1124 285 1144 q 239 1078 240 1094 q 226 1057 239 1064 q 194 1050 214 1050 q 170 1058 181 1050 q 160 1079 160 1065 q 182 1133 160 1107 q 208 1168 200 1154 q 217 1194 217 1182 q 203 1222 217 1211 q 168 1233 189 1233 q 108 1210 143 1233 q 85 1200 96 1200 q 56 1215 69 1200 q 46 1239 46 1225 q 64 1275 46 1257 z "},"Ȋ":{"ha":368,"x_min":-24,"x_max":392,"o":"m 253 68 q 232 19 253 39 q 183 0 211 0 q 134 19 153 0 q 115 68 115 39 l 115 906 q 135 953 115 933 q 185 972 154 972 q 233 953 213 972 q 253 906 253 933 l 253 68 m 185 1253 q 315 1217 260 1253 q 388 1121 371 1181 q 392 1099 392 1108 q 381 1070 392 1081 q 351 1060 369 1060 q 315 1070 329 1060 q 286 1103 301 1081 q 185 1154 258 1154 q 122 1141 149 1154 q 83 1103 96 1128 q 54 1070 68 1081 q 17 1060 40 1060 q -12 1070 -1 1060 q -24 1097 -24 1081 q -19 1118 -24 1108 q 54 1216 -1 1179 q 185 1253 110 1253 z "},"Ī":{"ha":368,"x_min":-40,"x_max":418,"o":"m 253 68 q 232 19 253 39 q 183 0 211 0 q 134 19 153 0 q 115 68 115 39 l 115 906 q 135 953 115 933 q 185 972 154 972 q 233 953 213 972 q 253 906 253 933 l 253 68 m 17 1063 q -26 1076 -11 1063 q -40 1114 -40 1089 q 17 1164 -40 1164 l 361 1164 q 418 1114 418 1164 q 403 1076 418 1089 q 361 1063 389 1063 l 17 1063 z "},"Į":{"ha":363,"x_min":-18,"x_max":276,"o":"m 228 -133 q 263 -147 249 -133 q 276 -185 276 -161 q 256 -228 276 -206 q 203 -264 236 -250 q 135 -278 171 -278 q 26 -241 69 -278 q -18 -136 -18 -204 q 114 43 -18 -18 l 114 906 q 135 953 114 933 q 186 972 156 972 q 237 953 217 972 q 257 906 257 933 l 257 46 q 224 1 257 13 q 130 -46 167 -17 q 93 -111 93 -75 q 109 -157 93 -140 q 146 -174 125 -174 q 168 -168 158 -174 q 188 -153 178 -162 q 207 -138 199 -143 q 228 -133 215 -133 z "},"Ĩ":{"ha":368,"x_min":-56,"x_max":428,"o":"m 253 68 q 232 19 253 39 q 183 0 211 0 q 134 19 153 0 q 115 68 115 39 l 115 906 q 135 953 115 933 q 185 972 154 972 q 233 953 213 972 q 253 906 253 933 l 253 68 m 1 1042 q -40 1062 -24 1042 q -56 1117 -56 1082 q -17 1201 -56 1167 q 85 1236 21 1236 q 146 1223 115 1236 q 215 1186 176 1210 q 263 1159 247 1167 q 293 1151 279 1151 q 320 1163 310 1151 q 329 1192 331 1174 q 328 1206 328 1197 q 340 1235 328 1224 q 369 1246 351 1246 q 412 1225 396 1246 q 428 1172 428 1204 q 394 1089 428 1126 q 304 1051 361 1051 q 238 1065 271 1051 q 163 1103 206 1079 q 117 1125 139 1115 q 82 1135 96 1135 q 54 1124 65 1135 q 43 1094 43 1114 q 44 1083 44 1090 q 32 1053 44 1064 q 1 1042 19 1042 z "},"J":{"ha":778,"x_min":71,"x_max":663,"o":"m 343 -14 q 192 25 261 -14 q 83 132 124 64 q 71 169 71 151 q 92 215 71 196 q 135 233 113 233 q 197 199 165 233 q 343 118 251 118 q 472 169 419 118 q 525 296 525 221 l 525 906 q 546 953 525 933 q 594 972 567 972 q 644 953 625 972 q 663 906 663 935 l 663 296 q 621 140 663 211 q 506 28 579 69 q 343 -14 433 -14 z "},"Ĵ":{"ha":778,"x_min":71,"x_max":785,"o":"m 343 -14 q 192 25 261 -14 q 83 132 124 64 q 71 169 71 151 q 92 215 71 196 q 135 233 113 233 q 197 199 165 233 q 343 118 251 118 q 472 169 419 118 q 525 296 525 221 l 525 906 q 546 953 525 933 q 594 972 567 972 q 644 953 625 972 q 663 906 663 935 l 663 296 q 621 140 663 211 q 506 28 579 69 q 343 -14 433 -14 m 768 1103 q 785 1069 785 1085 q 774 1049 785 1058 q 750 1040 764 1040 q 725 1048 740 1040 q 693 1065 710 1056 l 592 1131 l 494 1065 q 463 1047 478 1054 q 438 1040 449 1040 q 413 1049 424 1040 q 403 1069 403 1058 q 407 1085 403 1078 q 419 1103 411 1093 l 515 1208 q 546 1234 531 1226 q 583 1242 561 1242 l 603 1242 q 641 1233 625 1242 q 672 1208 657 1225 l 768 1103 z "},"K":{"ha":921,"x_min":115,"x_max":869,"o":"m 854 113 q 869 67 869 93 q 847 17 869 36 q 794 -3 824 -3 q 746 22 767 -3 l 408 457 l 253 310 l 253 68 q 233 19 253 39 q 183 0 214 0 q 134 19 153 0 q 115 68 115 39 l 115 906 q 135 953 115 933 q 185 972 154 972 q 234 953 215 972 q 253 906 253 935 l 253 474 l 746 951 q 799 975 772 975 q 842 954 824 975 q 860 910 860 933 q 840 867 860 889 l 511 556 l 854 113 z "},"Ķ":{"ha":921,"x_min":115,"x_max":869,"o":"m 854 113 q 869 67 869 93 q 847 17 869 36 q 794 -3 824 -3 q 746 22 767 -3 l 408 457 l 253 310 l 253 68 q 233 19 253 39 q 183 0 214 0 q 134 19 153 0 q 115 68 115 39 l 115 906 q 135 953 115 933 q 185 972 154 972 q 234 953 215 972 q 253 906 253 935 l 253 474 l 746 951 q 799 975 772 975 q 842 954 824 975 q 860 910 860 933 q 840 867 860 889 l 511 556 l 854 113 m 546 -146 q 508 -229 546 -192 q 418 -267 469 -267 q 375 -256 390 -267 q 360 -229 360 -244 q 367 -208 360 -215 q 386 -200 375 -200 q 402 -203 392 -200 q 422 -206 413 -206 q 448 -194 438 -206 q 458 -164 458 -183 q 444 -146 458 -146 q 431 -152 439 -146 q 410 -158 422 -158 q 377 -144 389 -158 q 365 -110 365 -131 q 388 -65 365 -81 q 450 -50 411 -50 q 519 -76 492 -50 q 546 -146 546 -101 z "},"L":{"ha":764,"x_min":115,"x_max":718,"o":"m 651 129 q 699 111 681 129 q 718 64 718 93 q 699 18 718 36 q 651 0 681 0 l 182 0 q 134 19 153 0 q 115 67 115 39 l 115 906 q 135 953 115 933 q 185 972 154 972 q 233 953 213 972 q 253 906 253 933 l 253 129 l 651 129 z "},"Ǉ":{"ha":1542,"x_min":115,"x_max":1426,"o":"m 651 129 q 699 111 681 129 q 718 64 718 93 q 699 18 718 36 q 651 0 681 0 l 182 0 q 134 19 153 0 q 115 67 115 39 l 115 906 q 135 953 115 933 q 185 972 154 972 q 233 953 213 972 q 253 906 253 933 l 253 129 l 651 129 m 1107 -14 q 956 25 1025 -14 q 847 132 888 64 q 835 169 835 151 q 856 215 835 196 q 899 233 876 233 q 961 199 929 233 q 1107 118 1015 118 q 1236 169 1183 118 q 1289 296 1289 221 l 1289 906 q 1310 953 1289 933 q 1358 972 1331 972 q 1408 953 1389 972 q 1426 906 1426 935 l 1426 296 q 1385 140 1426 211 q 1270 28 1343 69 q 1107 -14 1197 -14 z "},"Ĺ":{"ha":764,"x_min":115,"x_max":718,"o":"m 651 129 q 699 111 681 129 q 718 64 718 93 q 699 18 718 36 q 651 0 681 0 l 182 0 q 134 19 153 0 q 115 67 115 39 l 115 906 q 135 953 115 933 q 185 972 154 972 q 233 953 213 972 q 253 906 253 933 l 253 129 l 651 129 m 175 1031 q 142 1041 154 1031 q 131 1069 131 1051 q 147 1101 131 1088 l 269 1204 q 325 1228 299 1228 q 367 1211 349 1228 q 386 1171 386 1194 q 375 1136 386 1153 q 344 1110 364 1119 l 207 1039 q 175 1031 190 1031 z "},"Ľ":{"ha":764,"x_min":115,"x_max":718,"o":"m 651 132 q 699 113 681 132 q 718 65 718 93 q 699 19 718 38 q 651 0 681 0 l 182 0 q 134 19 153 0 q 115 67 115 39 l 115 906 q 135 953 115 933 q 182 972 154 972 q 228 953 210 972 q 247 906 247 933 l 247 143 q 258 132 247 132 l 651 132 m 717 836 q 694 755 717 800 q 638 678 672 710 q 568 647 604 647 q 529 659 544 647 q 514 693 514 671 q 524 719 514 711 q 547 732 533 728 q 567 739 560 736 q 606 800 606 758 q 594 826 606 815 q 563 838 582 838 q 525 826 540 838 q 504 844 511 833 q 497 872 497 854 q 533 931 499 906 q 607 957 568 957 q 688 925 658 957 q 717 836 717 893 z "},"Ļ":{"ha":764,"x_min":115,"x_max":718,"o":"m 651 129 q 699 111 681 129 q 718 64 718 93 q 699 18 718 36 q 651 0 681 0 l 182 0 q 134 19 153 0 q 115 67 115 39 l 115 906 q 135 953 115 933 q 185 972 154 972 q 233 953 213 972 q 253 906 253 933 l 253 129 l 651 129 m 494 -146 q 456 -229 494 -192 q 367 -267 418 -267 q 324 -256 339 -267 q 308 -229 308 -244 q 316 -208 308 -215 q 335 -200 324 -200 q 351 -203 340 -200 q 371 -206 361 -206 q 397 -194 386 -206 q 407 -164 407 -183 q 393 -146 407 -146 q 379 -152 388 -146 q 358 -158 371 -158 q 326 -144 338 -158 q 314 -110 314 -131 q 337 -65 314 -81 q 399 -50 360 -50 q 467 -76 440 -50 q 494 -146 494 -101 z "},"Ŀ":{"ha":750,"x_min":115,"x_max":718,"o":"m 651 129 q 699 111 681 129 q 718 64 718 93 q 699 18 718 36 q 651 0 681 0 l 182 0 q 134 19 153 0 q 115 67 115 39 l 115 906 q 135 953 115 933 q 185 972 154 972 q 233 953 213 972 q 253 906 253 933 l 253 129 l 651 129 m 579 424 q 527 442 546 424 q 508 494 508 461 l 508 521 q 527 574 508 556 q 579 592 546 592 l 593 592 q 646 574 628 592 q 664 521 664 556 l 664 494 q 646 442 664 461 q 593 424 628 424 l 579 424 z "},"Ḷ":{"ha":764,"x_min":115,"x_max":718,"o":"m 651 129 q 699 111 681 129 q 718 64 718 93 q 699 18 718 36 q 651 0 681 0 l 182 0 q 134 19 153 0 q 115 67 115 39 l 115 906 q 135 953 115 933 q 185 972 154 972 q 233 953 213 972 q 253 906 253 933 l 253 129 l 651 129 m 392 -200 q 335 -185 353 -200 q 318 -136 318 -169 l 318 -115 q 392 -51 318 -51 q 451 -66 433 -51 q 468 -115 468 -81 l 468 -136 q 450 -185 468 -171 q 392 -200 432 -200 z "},"ǈ":{"ha":1142,"x_min":115,"x_max":1022,"o":"m 651 129 q 699 111 681 129 q 718 64 718 93 q 699 18 718 36 q 651 0 681 0 l 182 0 q 134 19 153 0 q 115 67 115 39 l 115 906 q 135 953 115 933 q 185 972 154 972 q 233 953 213 972 q 253 906 253 933 l 253 129 l 651 129 z "},"Ḻ":{"ha":764,"x_min":115,"x_max":718,"o":"m 651 129 q 699 111 681 129 q 718 64 718 93 q 699 18 718 36 q 651 0 681 0 l 182 0 q 134 19 153 0 q 115 67 115 39 l 115 906 q 135 953 115 933 q 185 972 154 972 q 233 953 213 972 q 253 906 253 933 l 253 129 l 651 129 m 246 -196 q 203 -183 218 -196 q 189 -146 189 -169 q 204 -108 189 -122 q 246 -94 219 -94 l 564 -94 q 605 -108 590 -94 q 619 -146 619 -122 q 605 -183 619 -169 q 564 -196 590 -196 l 246 -196 z "},"Ł":{"ha":849,"x_min":56,"x_max":803,"o":"m 736 132 q 784 113 765 132 q 803 65 803 93 q 784 19 803 38 q 736 0 765 0 l 267 0 q 219 19 238 0 q 200 67 200 39 l 200 442 l 136 414 q 111 408 119 408 q 70 427 85 408 q 56 468 56 446 q 65 497 56 483 q 90 518 74 511 l 200 567 l 200 906 q 219 953 200 933 q 267 972 239 972 q 313 953 294 972 q 332 906 332 933 l 332 625 l 458 681 q 485 686 469 686 q 526 667 511 686 q 540 628 540 649 q 504 576 540 594 l 332 500 l 332 132 l 736 132 z "},"M":{"ha":1142,"x_min":115,"x_max":1026,"o":"m 960 974 q 1007 953 988 972 q 1026 907 1026 935 l 1026 67 q 1008 19 1026 39 q 958 0 989 0 q 908 19 928 0 q 889 67 889 38 l 889 710 l 619 301 q 595 281 610 289 q 565 274 581 272 q 537 281 551 272 q 513 301 522 289 l 242 722 l 242 67 q 224 19 242 38 q 178 0 207 0 q 133 19 150 0 q 115 67 115 38 l 115 907 q 135 953 115 933 q 183 974 154 974 q 216 965 200 974 q 242 943 232 957 l 571 444 l 904 943 q 960 974 926 974 z "},"Ṃ":{"ha":1142,"x_min":115,"x_max":1026,"o":"m 960 974 q 1007 953 988 972 q 1026 907 1026 935 l 1026 67 q 1008 19 1026 39 q 958 0 989 0 q 908 19 928 0 q 889 67 889 38 l 889 710 l 619 301 q 595 281 610 289 q 565 274 581 272 q 537 281 551 272 q 513 301 522 289 l 242 722 l 242 67 q 224 19 242 38 q 178 0 207 0 q 133 19 150 0 q 115 67 115 38 l 115 907 q 135 953 115 933 q 183 974 154 974 q 216 965 200 974 q 242 943 232 957 l 571 444 l 904 943 q 960 974 926 974 m 571 -200 q 515 -185 532 -200 q 497 -136 497 -169 l 497 -115 q 571 -51 497 -51 q 630 -66 613 -51 q 647 -115 647 -81 l 647 -136 q 629 -185 647 -171 q 571 -200 611 -200 z "},"N":{"ha":1017,"x_min":115,"x_max":901,"o":"m 842 972 q 885 955 868 972 q 901 911 901 938 l 901 68 q 883 19 901 39 q 835 0 864 0 q 805 5 819 0 q 782 19 790 10 l 236 731 l 236 61 q 219 17 236 35 q 175 0 201 0 q 132 17 149 0 q 115 61 115 35 l 115 906 q 134 953 115 935 q 181 972 153 972 q 213 966 197 972 q 236 949 228 960 l 781 236 l 781 911 q 798 955 781 938 q 842 972 815 972 z "},"Ǌ":{"ha":1794,"x_min":115,"x_max":1679,"o":"m 842 972 q 885 955 868 972 q 901 911 901 938 l 901 68 q 883 19 901 39 q 835 0 864 0 q 805 5 819 0 q 782 19 790 10 l 236 731 l 236 61 q 219 17 236 35 q 175 0 201 0 q 132 17 149 0 q 115 61 115 35 l 115 906 q 134 953 115 935 q 181 972 153 972 q 213 966 197 972 q 236 949 228 960 l 781 236 l 781 911 q 798 955 781 938 q 842 972 815 972 m 1360 -14 q 1209 25 1278 -14 q 1100 132 1140 64 q 1088 169 1088 151 q 1108 215 1088 196 q 1151 233 1129 233 q 1214 199 1182 233 q 1360 118 1268 118 q 1489 169 1436 118 q 1542 296 1542 221 l 1542 906 q 1563 953 1542 933 q 1611 972 1583 972 q 1660 953 1642 972 q 1679 906 1679 935 l 1679 296 q 1638 140 1679 211 q 1523 28 1596 69 q 1360 -14 1450 -14 z "},"Ń":{"ha":1017,"x_min":115,"x_max":901,"o":"m 842 972 q 885 955 868 972 q 901 911 901 938 l 901 68 q 883 19 901 39 q 835 0 864 0 q 805 5 819 0 q 782 19 790 10 l 236 731 l 236 61 q 219 17 236 35 q 175 0 201 0 q 132 17 149 0 q 115 61 115 35 l 115 906 q 134 953 115 935 q 181 972 153 972 q 213 966 197 972 q 236 949 228 960 l 781 236 l 781 911 q 798 955 781 938 q 842 972 815 972 m 511 1031 q 478 1041 490 1031 q 467 1069 467 1051 q 483 1101 467 1088 l 606 1204 q 661 1228 635 1228 q 703 1211 685 1228 q 722 1171 722 1194 q 711 1136 722 1153 q 681 1110 700 1119 l 543 1039 q 511 1031 526 1031 z "},"Ň":{"ha":1017,"x_min":115,"x_max":901,"o":"m 842 972 q 885 955 868 972 q 901 911 901 938 l 901 68 q 883 19 901 39 q 835 0 864 0 q 805 5 819 0 q 782 19 790 10 l 236 731 l 236 61 q 219 17 236 35 q 175 0 201 0 q 132 17 149 0 q 115 61 115 35 l 115 906 q 134 953 115 935 q 181 972 153 972 q 213 966 197 972 q 236 949 228 960 l 781 236 l 781 911 q 798 955 781 938 q 842 972 815 972 m 664 1238 q 690 1228 679 1238 q 700 1208 700 1219 q 697 1193 700 1200 q 682 1175 693 1186 l 588 1069 q 556 1044 572 1053 q 518 1036 540 1036 l 499 1036 q 460 1044 476 1036 q 431 1069 444 1053 l 335 1175 q 322 1192 326 1185 q 318 1208 318 1200 q 328 1228 318 1219 q 353 1238 338 1238 q 410 1214 376 1238 l 510 1146 l 607 1214 q 664 1238 640 1238 z "},"Ņ":{"ha":1017,"x_min":115,"x_max":901,"o":"m 842 972 q 885 955 868 972 q 901 911 901 938 l 901 68 q 883 19 901 39 q 835 0 864 0 q 805 5 819 0 q 782 19 790 10 l 236 731 l 236 61 q 219 17 236 35 q 175 0 201 0 q 132 17 149 0 q 115 61 115 35 l 115 906 q 134 953 115 935 q 181 972 153 972 q 213 966 197 972 q 236 949 228 960 l 781 236 l 781 911 q 798 955 781 938 q 842 972 815 972 m 611 -146 q 573 -229 611 -192 q 483 -267 535 -267 q 440 -256 456 -267 q 425 -229 425 -244 q 433 -208 425 -215 q 451 -200 440 -200 q 467 -203 457 -200 q 488 -206 478 -206 q 513 -194 503 -206 q 524 -164 524 -183 q 510 -146 524 -146 q 496 -152 504 -146 q 475 -158 488 -158 q 442 -144 454 -158 q 431 -110 431 -131 q 453 -65 431 -81 q 515 -50 476 -50 q 584 -76 557 -50 q 611 -146 611 -101 z "},"Ṅ":{"ha":1017,"x_min":115,"x_max":901,"o":"m 842 972 q 885 955 868 972 q 901 911 901 938 l 901 68 q 883 19 901 39 q 835 0 864 0 q 805 5 819 0 q 782 19 790 10 l 236 731 l 236 61 q 219 17 236 35 q 175 0 201 0 q 132 17 149 0 q 115 61 115 35 l 115 906 q 134 953 115 935 q 181 972 153 972 q 213 966 197 972 q 236 949 228 960 l 781 236 l 781 911 q 798 955 781 938 q 842 972 815 972 m 507 1046 q 451 1060 468 1046 q 433 1108 433 1075 l 433 1131 q 452 1178 433 1164 q 508 1193 471 1193 q 566 1178 549 1193 q 583 1131 583 1164 l 583 1108 q 565 1060 583 1075 q 507 1046 547 1046 z "},"Ṇ":{"ha":1017,"x_min":115,"x_max":901,"o":"m 842 972 q 885 955 868 972 q 901 911 901 938 l 901 68 q 883 19 901 39 q 835 0 864 0 q 805 5 819 0 q 782 19 790 10 l 236 731 l 236 61 q 219 17 236 35 q 175 0 201 0 q 132 17 149 0 q 115 61 115 35 l 115 906 q 134 953 115 935 q 181 972 153 972 q 213 966 197 972 q 236 949 228 960 l 781 236 l 781 911 q 798 955 781 938 q 842 972 815 972 m 507 -200 q 451 -185 468 -200 q 433 -136 433 -169 l 433 -115 q 507 -51 433 -51 q 566 -66 549 -51 q 583 -115 583 -81 l 583 -136 q 565 -185 583 -171 q 507 -200 547 -200 z "},"Ŋ":{"ha":1044,"x_min":115,"x_max":929,"o":"m 864 971 q 910 951 892 971 q 929 904 929 932 l 929 -32 q 865 -216 929 -154 q 689 -278 800 -278 q 635 -262 656 -278 q 614 -219 614 -247 q 632 -175 614 -193 q 678 -156 650 -157 q 770 -126 743 -154 q 797 -37 797 -97 l 797 40 l 247 728 l 247 67 q 228 19 247 39 q 181 0 208 0 q 134 19 153 0 q 115 67 115 39 l 115 906 q 135 953 115 935 q 182 972 154 972 q 238 943 215 972 l 797 242 l 797 904 q 817 951 797 932 q 864 971 836 971 z "},"Ɲ":{"ha":1017,"x_min":-32,"x_max":901,"o":"m 840 972 q 884 955 867 972 q 901 911 901 938 l 901 68 q 883 19 901 39 q 835 0 864 0 q 805 5 819 0 q 782 19 790 10 l 240 725 l 240 -35 q 171 -219 240 -171 q 31 -274 101 -267 q -14 -256 4 -274 q -32 -212 -32 -237 q -18 -164 -32 -179 q 25 -140 -4 -149 q 115 -1 115 -117 l 115 906 q 134 953 115 935 q 181 972 153 972 q 213 966 197 972 q 236 949 228 960 l 776 242 l 776 911 q 794 955 776 938 q 840 972 813 972 z "},"ǋ":{"ha":1396,"x_min":115,"x_max":1275,"o":"m 842 972 q 885 955 868 972 q 901 911 901 938 l 901 68 q 883 19 901 39 q 835 0 864 0 q 805 5 819 0 q 782 19 790 10 l 236 731 l 236 61 q 219 17 236 35 q 175 0 201 0 q 132 17 149 0 q 115 61 115 35 l 115 906 q 134 953 115 935 q 181 972 153 972 q 213 966 197 972 q 236 949 228 960 l 781 236 l 781 911 q 798 955 781 938 q 842 972 815 972 z "},"Ṉ":{"ha":1017,"x_min":115,"x_max":901,"o":"m 842 972 q 885 955 868 972 q 901 911 901 938 l 901 68 q 883 19 901 39 q 835 0 864 0 q 805 5 819 0 q 782 19 790 10 l 236 731 l 236 61 q 219 17 236 35 q 175 0 201 0 q 132 17 149 0 q 115 61 115 35 l 115 906 q 134 953 115 935 q 181 972 153 972 q 213 966 197 972 q 236 949 228 960 l 781 236 l 781 911 q 798 955 781 938 q 842 972 815 972 m 363 -196 q 320 -183 335 -196 q 306 -146 306 -169 q 321 -108 306 -122 q 363 -94 336 -94 l 681 -94 q 722 -108 707 -94 q 736 -146 736 -122 q 722 -183 736 -169 q 681 -196 707 -196 l 363 -196 z "},"Ñ":{"ha":1017,"x_min":115,"x_max":901,"o":"m 842 972 q 885 955 868 972 q 901 911 901 938 l 901 68 q 883 19 901 39 q 835 0 864 0 q 805 5 819 0 q 782 19 790 10 l 236 731 l 236 61 q 219 17 236 35 q 175 0 201 0 q 132 17 149 0 q 115 61 115 35 l 115 906 q 134 953 115 935 q 181 972 153 972 q 213 966 197 972 q 236 949 228 960 l 781 236 l 781 911 q 798 955 781 938 q 842 972 815 972 m 324 1042 q 283 1062 299 1042 q 267 1117 267 1082 q 305 1201 267 1167 q 407 1236 343 1236 q 468 1223 438 1236 q 538 1186 499 1210 q 585 1159 569 1167 q 615 1151 601 1151 q 642 1163 632 1151 q 651 1192 653 1174 q 650 1206 650 1197 q 662 1235 650 1224 q 692 1246 674 1246 q 734 1225 718 1246 q 750 1172 750 1204 q 717 1089 750 1126 q 626 1051 683 1051 q 560 1065 593 1051 q 485 1103 528 1079 q 440 1125 461 1115 q 404 1135 418 1135 q 376 1124 388 1135 q 365 1094 365 1114 q 367 1083 367 1090 q 354 1053 367 1064 q 324 1042 342 1042 z "},"O":{"ha":1058,"x_min":60,"x_max":999,"o":"m 999 486 q 938 232 999 346 q 771 52 878 118 q 529 -14 664 -14 q 288 52 394 -14 q 120 232 181 118 q 60 486 60 346 q 120 740 60 626 q 288 920 181 854 q 529 986 394 986 q 771 920 664 986 q 938 740 878 854 q 999 486 999 626 m 856 486 q 814 674 856 590 q 698 806 772 758 q 529 854 624 854 q 360 807 435 854 q 244 676 286 760 q 203 486 203 592 q 244 298 203 382 q 360 166 286 214 q 529 118 435 118 q 698 166 624 118 q 814 298 772 214 q 856 486 856 382 z "},"Ó":{"ha":1058,"x_min":60,"x_max":999,"o":"m 999 486 q 938 232 999 346 q 771 52 878 118 q 529 -14 664 -14 q 288 52 394 -14 q 120 232 181 118 q 60 486 60 346 q 120 740 60 626 q 288 920 181 854 q 529 986 394 986 q 771 920 664 986 q 938 740 878 854 q 999 486 999 626 m 856 486 q 814 674 856 590 q 698 806 772 758 q 529 854 624 854 q 360 807 435 854 q 244 676 286 760 q 203 486 203 592 q 244 298 203 382 q 360 166 286 214 q 529 118 435 118 q 698 166 624 118 q 814 298 772 214 q 856 486 856 382 m 531 1031 q 498 1041 510 1031 q 486 1069 486 1051 q 503 1101 486 1088 l 625 1204 q 681 1228 654 1228 q 723 1211 704 1228 q 742 1171 742 1194 q 731 1136 742 1153 q 700 1110 719 1119 l 563 1039 q 531 1031 546 1031 z "},"Ŏ":{"ha":1058,"x_min":60,"x_max":999,"o":"m 999 486 q 938 232 999 346 q 771 52 878 118 q 529 -14 664 -14 q 288 52 394 -14 q 120 232 181 118 q 60 486 60 346 q 120 740 60 626 q 288 920 181 854 q 529 986 394 986 q 771 920 664 986 q 938 740 878 854 q 999 486 999 626 m 856 486 q 814 674 856 590 q 698 806 772 758 q 529 854 624 854 q 360 807 435 854 q 244 676 286 760 q 203 486 203 592 q 244 298 203 382 q 360 166 286 214 q 529 118 435 118 q 698 166 624 118 q 814 298 772 214 q 856 486 856 382 m 529 1063 q 399 1097 454 1063 q 322 1196 344 1132 q 317 1221 317 1208 q 327 1249 317 1239 q 356 1258 338 1258 q 390 1249 378 1258 q 422 1215 403 1239 q 529 1160 457 1160 q 636 1215 604 1160 q 665 1247 650 1238 q 701 1257 679 1257 q 731 1248 721 1257 q 742 1221 742 1239 q 738 1197 742 1210 q 660 1098 715 1133 q 529 1063 606 1063 z "},"Ǒ":{"ha":1058,"x_min":60,"x_max":999,"o":"m 999 486 q 938 232 999 346 q 771 52 878 118 q 529 -14 664 -14 q 288 52 394 -14 q 120 232 181 118 q 60 486 60 346 q 120 740 60 626 q 288 920 181 854 q 529 986 394 986 q 771 920 664 986 q 938 740 878 854 q 999 486 999 626 m 856 486 q 814 674 856 590 q 698 806 772 758 q 529 854 624 854 q 360 807 435 854 q 244 676 286 760 q 203 486 203 592 q 244 298 203 382 q 360 166 286 214 q 529 118 435 118 q 698 166 624 118 q 814 298 772 214 q 856 486 856 382 m 685 1238 q 710 1228 700 1238 q 721 1208 721 1219 q 717 1193 721 1200 q 703 1175 714 1186 l 608 1069 q 577 1044 593 1053 q 539 1036 561 1036 l 519 1036 q 481 1044 497 1036 q 451 1069 465 1053 l 356 1175 q 343 1192 347 1185 q 339 1208 339 1200 q 349 1228 339 1219 q 374 1238 358 1238 q 431 1214 397 1238 l 531 1146 l 628 1214 q 685 1238 661 1238 z "},"Ô":{"ha":1058,"x_min":60,"x_max":999,"o":"m 999 486 q 938 232 999 346 q 771 52 878 118 q 529 -14 664 -14 q 288 52 394 -14 q 120 232 181 118 q 60 486 60 346 q 120 740 60 626 q 288 920 181 854 q 529 986 394 986 q 771 920 664 986 q 938 740 878 854 q 999 486 999 626 m 856 486 q 814 674 856 590 q 698 806 772 758 q 529 854 624 854 q 360 807 435 854 q 244 676 286 760 q 203 486 203 592 q 244 298 203 382 q 360 166 286 214 q 529 118 435 118 q 698 166 624 118 q 814 298 772 214 q 856 486 856 382 m 703 1103 q 719 1069 719 1085 q 709 1049 719 1058 q 685 1040 699 1040 q 660 1048 675 1040 q 628 1065 644 1056 l 526 1131 l 429 1065 q 398 1047 413 1054 q 372 1040 383 1040 q 348 1049 358 1040 q 338 1069 338 1058 q 342 1085 338 1078 q 354 1103 346 1093 l 450 1208 q 481 1234 465 1226 q 518 1242 496 1242 l 538 1242 q 576 1233 560 1242 q 607 1208 592 1225 l 703 1103 z "},"Ố":{"ha":1058,"x_min":60,"x_max":999,"o":"m 999 486 q 938 232 999 346 q 771 52 878 118 q 529 -14 664 -14 q 288 52 394 -14 q 120 232 181 118 q 60 486 60 346 q 120 740 60 626 q 288 920 181 854 q 529 986 394 986 q 771 920 664 986 q 938 740 878 854 q 999 486 999 626 m 856 486 q 814 674 856 590 q 698 806 772 758 q 529 854 624 854 q 360 807 435 854 q 244 676 286 760 q 203 486 203 592 q 244 298 203 382 q 360 166 286 214 q 529 118 435 118 q 698 166 624 118 q 814 298 772 214 q 856 486 856 382 m 703 1103 q 719 1069 719 1085 q 709 1049 719 1058 q 685 1040 699 1040 q 660 1048 675 1040 q 628 1065 644 1056 l 526 1131 l 429 1065 q 398 1047 413 1054 q 372 1040 383 1040 q 348 1049 358 1040 q 338 1069 338 1058 q 342 1085 338 1078 q 354 1103 346 1093 l 450 1208 q 481 1234 465 1226 q 518 1242 496 1242 l 538 1242 q 576 1233 560 1242 q 607 1208 592 1225 l 703 1103 m 743 1143 q 710 1153 722 1143 q 699 1182 699 1164 q 715 1214 699 1200 l 838 1317 q 893 1340 867 1340 q 935 1324 917 1340 q 954 1283 954 1307 q 943 1249 954 1265 q 913 1222 932 1232 l 775 1151 q 743 1143 758 1143 z "},"Ộ":{"ha":1058,"x_min":60,"x_max":999,"o":"m 999 486 q 938 232 999 346 q 771 52 878 118 q 529 -14 664 -14 q 288 52 394 -14 q 120 232 181 118 q 60 486 60 346 q 120 740 60 626 q 288 920 181 854 q 529 986 394 986 q 771 920 664 986 q 938 740 878 854 q 999 486 999 626 m 856 486 q 814 674 856 590 q 698 806 772 758 q 529 854 624 854 q 360 807 435 854 q 244 676 286 760 q 203 486 203 592 q 244 298 203 382 q 360 166 286 214 q 529 118 435 118 q 698 166 624 118 q 814 298 772 214 q 856 486 856 382 m 528 -200 q 472 -185 489 -200 q 454 -136 454 -169 l 454 -115 q 528 -51 454 -51 q 587 -66 569 -51 q 604 -115 604 -81 l 604 -136 q 586 -185 604 -171 q 528 -200 568 -200 m 703 1103 q 719 1069 719 1085 q 709 1049 719 1058 q 685 1040 699 1040 q 660 1048 675 1040 q 628 1065 644 1056 l 526 1131 l 429 1065 q 398 1047 413 1054 q 372 1040 383 1040 q 348 1049 358 1040 q 338 1069 338 1058 q 342 1085 338 1078 q 354 1103 346 1093 l 450 1208 q 481 1234 465 1226 q 518 1242 496 1242 l 538 1242 q 576 1233 560 1242 q 607 1208 592 1225 l 703 1103 z "},"Ồ":{"ha":1058,"x_min":60,"x_max":999,"o":"m 999 486 q 938 232 999 346 q 771 52 878 118 q 529 -14 664 -14 q 288 52 394 -14 q 120 232 181 118 q 60 486 60 346 q 120 740 60 626 q 288 920 181 854 q 529 986 394 986 q 771 920 664 986 q 938 740 878 854 q 999 486 999 626 m 856 486 q 814 674 856 590 q 698 806 772 758 q 529 854 624 854 q 360 807 435 854 q 244 676 286 760 q 203 486 203 592 q 244 298 203 382 q 360 166 286 214 q 529 118 435 118 q 698 166 624 118 q 814 298 772 214 q 856 486 856 382 m 703 1103 q 719 1069 719 1085 q 709 1049 719 1058 q 685 1040 699 1040 q 660 1048 675 1040 q 628 1065 644 1056 l 526 1131 l 429 1065 q 398 1047 413 1054 q 372 1040 383 1040 q 348 1049 358 1040 q 338 1069 338 1058 q 342 1085 338 1078 q 354 1103 346 1093 l 450 1208 q 481 1234 465 1226 q 518 1242 496 1242 l 538 1242 q 576 1233 560 1242 q 607 1208 592 1225 l 703 1103 m 739 1213 q 707 1222 726 1213 l 569 1293 q 539 1320 550 1304 q 528 1354 528 1336 q 547 1394 528 1378 q 589 1411 565 1411 q 646 1386 615 1411 l 767 1285 q 783 1253 783 1271 q 772 1224 783 1235 q 739 1213 760 1213 z "},"Ổ":{"ha":1058,"x_min":60,"x_max":999,"o":"m 999 486 q 938 232 999 346 q 771 52 878 118 q 529 -14 664 -14 q 288 52 394 -14 q 120 232 181 118 q 60 486 60 346 q 120 740 60 626 q 288 920 181 854 q 529 986 394 986 q 771 920 664 986 q 938 740 878 854 q 999 486 999 626 m 856 486 q 814 674 856 590 q 698 806 772 758 q 529 854 624 854 q 360 807 435 854 q 244 676 286 760 q 203 486 203 592 q 244 298 203 382 q 360 166 286 214 q 529 118 435 118 q 698 166 624 118 q 814 298 772 214 q 856 486 856 382 z "},"Ỗ":{"ha":1058,"x_min":60,"x_max":999,"o":"m 999 486 q 938 232 999 346 q 771 52 878 118 q 529 -14 664 -14 q 288 52 394 -14 q 120 232 181 118 q 60 486 60 346 q 120 740 60 626 q 288 920 181 854 q 529 986 394 986 q 771 920 664 986 q 938 740 878 854 q 999 486 999 626 m 856 486 q 814 674 856 590 q 698 806 772 758 q 529 854 624 854 q 360 807 435 854 q 244 676 286 760 q 203 486 203 592 q 244 298 203 382 q 360 166 286 214 q 529 118 435 118 q 698 166 624 118 q 814 298 772 214 q 856 486 856 382 m 703 1103 q 719 1069 719 1085 q 709 1049 719 1058 q 685 1040 699 1040 q 660 1048 675 1040 q 628 1065 644 1056 l 526 1131 l 429 1065 q 398 1047 413 1054 q 372 1040 383 1040 q 348 1049 358 1040 q 338 1069 338 1058 q 342 1085 338 1078 q 354 1103 346 1093 l 450 1208 q 481 1234 465 1226 q 518 1242 496 1242 l 538 1242 q 576 1233 560 1242 q 607 1208 592 1225 l 703 1103 m 353 1242 q 312 1262 328 1242 q 296 1317 296 1282 q 334 1401 296 1367 q 436 1436 372 1436 q 497 1423 467 1436 q 567 1386 528 1410 q 615 1359 599 1367 q 644 1351 631 1351 q 672 1363 661 1351 q 681 1392 682 1374 q 679 1406 679 1397 q 691 1435 679 1424 q 721 1446 703 1446 q 763 1425 747 1446 q 779 1372 779 1404 q 746 1289 779 1326 q 656 1251 713 1251 q 590 1265 622 1251 q 514 1303 557 1279 q 469 1325 490 1315 q 433 1335 447 1335 q 406 1324 417 1335 q 394 1294 394 1314 q 396 1283 396 1290 q 383 1253 396 1264 q 353 1242 371 1242 z "},"Ȍ":{"ha":1058,"x_min":60,"x_max":999,"o":"m 999 486 q 938 232 999 346 q 771 52 878 118 q 529 -14 664 -14 q 288 52 394 -14 q 120 232 181 118 q 60 486 60 346 q 120 740 60 626 q 288 920 181 854 q 529 986 394 986 q 771 920 664 986 q 938 740 878 854 q 999 486 999 626 m 856 486 q 814 674 856 590 q 698 806 772 758 q 529 854 624 854 q 360 807 435 854 q 244 676 286 760 q 203 486 203 592 q 244 298 203 382 q 360 166 286 214 q 529 118 435 118 q 698 166 624 118 q 814 298 772 214 q 856 486 856 382 m 683 1054 q 653 1063 672 1054 l 515 1133 q 474 1194 474 1157 q 492 1235 474 1219 q 535 1251 511 1251 q 590 1228 561 1251 l 711 1126 q 729 1093 729 1110 q 717 1065 729 1076 q 683 1054 704 1054 m 419 1046 q 389 1056 406 1046 l 251 1126 q 210 1188 210 1147 q 228 1228 210 1211 q 269 1244 247 1244 q 326 1219 299 1244 l 447 1118 q 465 1086 465 1104 q 453 1057 465 1068 q 419 1046 440 1046 z "},"Ö":{"ha":1058,"x_min":60,"x_max":999,"o":"m 999 486 q 938 232 999 346 q 771 52 878 118 q 529 -14 664 -14 q 288 52 394 -14 q 120 232 181 118 q 60 486 60 346 q 120 740 60 626 q 288 920 181 854 q 529 986 394 986 q 771 920 664 986 q 938 740 878 854 q 999 486 999 626 m 856 486 q 814 674 856 590 q 698 806 772 758 q 529 854 624 854 q 360 807 435 854 q 244 676 286 760 q 203 486 203 592 q 244 298 203 382 q 360 166 286 214 q 529 118 435 118 q 698 166 624 118 q 814 298 772 214 q 856 486 856 382 m 397 1064 q 343 1079 361 1064 q 325 1128 325 1094 l 325 1149 q 399 1211 325 1211 q 454 1197 436 1211 q 472 1149 472 1182 l 472 1128 q 454 1079 472 1094 q 397 1064 436 1064 m 658 1064 q 604 1079 622 1064 q 586 1128 586 1094 l 586 1149 q 604 1197 586 1182 q 658 1211 622 1211 q 715 1197 697 1211 q 733 1149 733 1182 l 733 1128 q 715 1079 733 1094 q 658 1064 697 1064 z "},"Ȫ":{"ha":1058,"x_min":60,"x_max":999,"o":"m 999 486 q 938 232 999 346 q 771 52 878 118 q 529 -14 664 -14 q 288 52 394 -14 q 120 232 181 118 q 60 486 60 346 q 120 740 60 626 q 288 920 181 854 q 529 986 394 986 q 771 920 664 986 q 938 740 878 854 q 999 486 999 626 m 856 486 q 814 674 856 590 q 698 806 772 758 q 529 854 624 854 q 360 807 435 854 q 244 676 286 760 q 203 486 203 592 q 244 298 203 382 q 360 166 286 214 q 529 118 435 118 q 698 166 624 118 q 814 298 772 214 q 856 486 856 382 m 397 1064 q 343 1079 361 1064 q 325 1128 325 1094 l 325 1149 q 399 1211 325 1211 q 454 1197 436 1211 q 472 1149 472 1182 l 472 1128 q 454 1079 472 1094 q 397 1064 436 1064 m 658 1064 q 604 1079 622 1064 q 586 1128 586 1094 l 586 1149 q 604 1197 586 1182 q 658 1211 622 1211 q 715 1197 697 1211 q 733 1149 733 1182 l 733 1128 q 715 1079 733 1094 q 658 1064 697 1064 m 360 1321 q 317 1334 332 1321 q 303 1372 303 1347 q 360 1422 303 1422 l 704 1422 q 761 1372 761 1422 q 747 1334 761 1347 q 704 1321 732 1321 l 360 1321 z "},"Ȱ":{"ha":1058,"x_min":60,"x_max":999,"o":"m 999 486 q 938 232 999 346 q 771 52 878 118 q 529 -14 664 -14 q 288 52 394 -14 q 120 232 181 118 q 60 486 60 346 q 120 740 60 626 q 288 920 181 854 q 529 986 394 986 q 771 920 664 986 q 938 740 878 854 q 999 486 999 626 m 856 486 q 814 674 856 590 q 698 806 772 758 q 529 854 624 854 q 360 807 435 854 q 244 676 286 760 q 203 486 203 592 q 244 298 203 382 q 360 166 286 214 q 529 118 435 118 q 698 166 624 118 q 814 298 772 214 q 856 486 856 382 m 528 1046 q 472 1060 489 1046 q 454 1108 454 1075 l 454 1131 q 473 1178 454 1164 q 529 1193 492 1193 q 587 1178 569 1193 q 604 1131 604 1164 l 604 1108 q 586 1060 604 1075 q 528 1046 568 1046 m 360 1322 q 317 1335 332 1322 q 303 1374 303 1349 q 360 1424 303 1424 l 704 1424 q 761 1374 761 1424 q 747 1335 761 1349 q 704 1322 732 1322 l 360 1322 z "},"Ọ":{"ha":1058,"x_min":60,"x_max":999,"o":"m 999 486 q 938 232 999 346 q 771 52 878 118 q 529 -14 664 -14 q 288 52 394 -14 q 120 232 181 118 q 60 486 60 346 q 120 740 60 626 q 288 920 181 854 q 529 986 394 986 q 771 920 664 986 q 938 740 878 854 q 999 486 999 626 m 856 486 q 814 674 856 590 q 698 806 772 758 q 529 854 624 854 q 360 807 435 854 q 244 676 286 760 q 203 486 203 592 q 244 298 203 382 q 360 166 286 214 q 529 118 435 118 q 698 166 624 118 q 814 298 772 214 q 856 486 856 382 m 528 -200 q 472 -185 489 -200 q 454 -136 454 -169 l 454 -115 q 528 -51 454 -51 q 587 -66 569 -51 q 604 -115 604 -81 l 604 -136 q 586 -185 604 -171 q 528 -200 568 -200 z "},"Ò":{"ha":1058,"x_min":60,"x_max":999,"o":"m 999 486 q 938 232 999 346 q 771 52 878 118 q 529 -14 664 -14 q 288 52 394 -14 q 120 232 181 118 q 60 486 60 346 q 120 740 60 626 q 288 920 181 854 q 529 986 394 986 q 771 920 664 986 q 938 740 878 854 q 999 486 999 626 m 856 486 q 814 674 856 590 q 698 806 772 758 q 529 854 624 854 q 360 807 435 854 q 244 676 286 760 q 203 486 203 592 q 244 298 203 382 q 360 166 286 214 q 529 118 435 118 q 698 166 624 118 q 814 298 772 214 q 856 486 856 382 m 528 1033 q 496 1043 515 1033 l 358 1114 q 328 1141 339 1125 q 317 1175 317 1157 q 335 1215 317 1199 q 378 1232 354 1232 q 435 1207 404 1232 l 556 1106 q 572 1074 572 1092 q 560 1044 572 1056 q 528 1033 549 1033 z "},"Ỏ":{"ha":1058,"x_min":60,"x_max":999,"o":"m 999 486 q 938 232 999 346 q 771 52 878 118 q 529 -14 664 -14 q 288 52 394 -14 q 120 232 181 118 q 60 486 60 346 q 120 740 60 626 q 288 920 181 854 q 529 986 394 986 q 771 920 664 986 q 938 740 878 854 q 999 486 999 626 m 856 486 q 814 674 856 590 q 698 806 772 758 q 529 854 624 854 q 360 807 435 854 q 244 676 286 760 q 203 486 203 592 q 244 298 203 382 q 360 166 286 214 q 529 118 435 118 q 698 166 624 118 q 814 298 772 214 q 856 486 856 382 m 407 1275 q 514 1317 456 1317 q 615 1282 585 1317 q 644 1203 644 1247 q 636 1163 644 1181 q 610 1124 628 1144 q 582 1078 583 1094 q 569 1057 582 1064 q 538 1050 557 1050 q 513 1058 524 1050 q 503 1079 503 1065 q 525 1133 503 1107 q 551 1168 543 1154 q 560 1194 560 1182 q 546 1222 560 1211 q 511 1233 532 1233 q 451 1210 486 1233 q 428 1200 439 1200 q 399 1215 413 1200 q 389 1239 389 1225 q 407 1275 389 1257 z "},"Ơ":{"ha":1058,"x_min":60,"x_max":999,"o":"m 796 903 q 944 726 890 836 q 999 486 999 617 q 938 232 999 346 q 771 52 878 118 q 529 -14 664 -14 q 288 52 394 -14 q 120 232 181 118 q 60 486 60 346 q 120 740 60 626 q 288 920 181 854 q 529 986 394 986 q 654 969 593 986 q 758 1064 758 978 q 773 1108 758 1089 q 814 1128 788 1128 q 856 1108 843 1128 q 869 1064 869 1089 q 851 972 869 1014 q 796 903 832 931 m 529 118 q 698 166 624 118 q 814 298 772 214 q 856 486 856 382 q 814 674 856 590 q 698 806 772 758 q 529 854 624 854 q 360 807 435 854 q 244 676 286 760 q 203 486 203 592 q 244 298 203 382 q 360 166 286 214 q 529 118 435 118 z "},"Ớ":{"ha":1058,"x_min":60,"x_max":999,"o":"m 796 903 q 944 726 890 836 q 999 486 999 617 q 938 232 999 346 q 771 52 878 118 q 529 -14 664 -14 q 288 52 394 -14 q 120 232 181 118 q 60 486 60 346 q 120 740 60 626 q 288 920 181 854 q 529 986 394 986 q 654 969 593 986 q 758 1064 758 978 q 773 1108 758 1089 q 814 1128 788 1128 q 856 1108 843 1128 q 869 1064 869 1089 q 851 972 869 1014 q 796 903 832 931 m 529 118 q 698 166 624 118 q 814 298 772 214 q 856 486 856 382 q 814 674 856 590 q 698 806 772 758 q 529 854 624 854 q 360 807 435 854 q 244 676 286 760 q 203 486 203 592 q 244 298 203 382 q 360 166 286 214 q 529 118 435 118 m 531 1031 q 498 1041 510 1031 q 486 1069 486 1051 q 503 1101 486 1088 l 625 1204 q 681 1228 654 1228 q 723 1211 704 1228 q 742 1171 742 1194 q 731 1136 742 1153 q 700 1110 719 1119 l 563 1039 q 531 1031 546 1031 z "},"Ợ":{"ha":1058,"x_min":60,"x_max":999,"o":"m 796 903 q 944 726 890 836 q 999 486 999 617 q 938 232 999 346 q 771 52 878 118 q 529 -14 664 -14 q 288 52 394 -14 q 120 232 181 118 q 60 486 60 346 q 120 740 60 626 q 288 920 181 854 q 529 986 394 986 q 654 969 593 986 q 758 1064 758 978 q 773 1108 758 1089 q 814 1128 788 1128 q 856 1108 843 1128 q 869 1064 869 1089 q 851 972 869 1014 q 796 903 832 931 m 529 118 q 698 166 624 118 q 814 298 772 214 q 856 486 856 382 q 814 674 856 590 q 698 806 772 758 q 529 854 624 854 q 360 807 435 854 q 244 676 286 760 q 203 486 203 592 q 244 298 203 382 q 360 166 286 214 q 529 118 435 118 m 528 -200 q 472 -185 489 -200 q 454 -136 454 -169 l 454 -115 q 528 -51 454 -51 q 587 -66 569 -51 q 604 -115 604 -81 l 604 -136 q 586 -185 604 -171 q 528 -200 568 -200 z "},"Ờ":{"ha":1058,"x_min":60,"x_max":999,"o":"m 796 903 q 944 726 890 836 q 999 486 999 617 q 938 232 999 346 q 771 52 878 118 q 529 -14 664 -14 q 288 52 394 -14 q 120 232 181 118 q 60 486 60 346 q 120 740 60 626 q 288 920 181 854 q 529 986 394 986 q 654 969 593 986 q 758 1064 758 978 q 773 1108 758 1089 q 814 1128 788 1128 q 856 1108 843 1128 q 869 1064 869 1089 q 851 972 869 1014 q 796 903 832 931 m 529 118 q 698 166 624 118 q 814 298 772 214 q 856 486 856 382 q 814 674 856 590 q 698 806 772 758 q 529 854 624 854 q 360 807 435 854 q 244 676 286 760 q 203 486 203 592 q 244 298 203 382 q 360 166 286 214 q 529 118 435 118 m 528 1033 q 496 1043 515 1033 l 358 1114 q 328 1141 339 1125 q 317 1175 317 1157 q 335 1215 317 1199 q 378 1232 354 1232 q 435 1207 404 1232 l 556 1106 q 572 1074 572 1092 q 560 1044 572 1056 q 528 1033 549 1033 z "},"Ở":{"ha":1058,"x_min":60,"x_max":999,"o":"m 796 903 q 944 726 890 836 q 999 486 999 617 q 938 232 999 346 q 771 52 878 118 q 529 -14 664 -14 q 288 52 394 -14 q 120 232 181 118 q 60 486 60 346 q 120 740 60 626 q 288 920 181 854 q 529 986 394 986 q 654 969 593 986 q 758 1064 758 978 q 773 1108 758 1089 q 814 1128 788 1128 q 856 1108 843 1128 q 869 1064 869 1089 q 851 972 869 1014 q 796 903 832 931 m 529 118 q 698 166 624 118 q 814 298 772 214 q 856 486 856 382 q 814 674 856 590 q 698 806 772 758 q 529 854 624 854 q 360 807 435 854 q 244 676 286 760 q 203 486 203 592 q 244 298 203 382 q 360 166 286 214 q 529 118 435 118 m 407 1275 q 514 1317 456 1317 q 615 1282 585 1317 q 644 1203 644 1247 q 636 1163 644 1181 q 610 1124 628 1144 q 582 1078 583 1094 q 569 1057 582 1064 q 538 1050 557 1050 q 513 1058 524 1050 q 503 1079 503 1065 q 525 1133 503 1107 q 551 1168 543 1154 q 560 1194 560 1182 q 546 1222 560 1211 q 511 1233 532 1233 q 451 1210 486 1233 q 428 1200 439 1200 q 399 1215 413 1200 q 389 1239 389 1225 q 407 1275 389 1257 z "},"Ỡ":{"ha":1058,"x_min":60,"x_max":999,"o":"m 796 903 q 944 726 890 836 q 999 486 999 617 q 938 232 999 346 q 771 52 878 118 q 529 -14 664 -14 q 288 52 394 -14 q 120 232 181 118 q 60 486 60 346 q 120 740 60 626 q 288 920 181 854 q 529 986 394 986 q 654 969 593 986 q 758 1064 758 978 q 773 1108 758 1089 q 814 1128 788 1128 q 856 1108 843 1128 q 869 1064 869 1089 q 851 972 869 1014 q 796 903 832 931 m 529 118 q 698 166 624 118 q 814 298 772 214 q 856 486 856 382 q 814 674 856 590 q 698 806 772 758 q 529 854 624 854 q 360 807 435 854 q 244 676 286 760 q 203 486 203 592 q 244 298 203 382 q 360 166 286 214 q 529 118 435 118 m 328 1057 q 287 1077 303 1057 q 271 1132 271 1097 q 309 1217 271 1182 q 411 1251 347 1251 q 472 1238 442 1251 q 542 1201 503 1225 q 590 1174 574 1182 q 619 1167 606 1167 q 647 1178 636 1167 q 656 1207 657 1189 q 654 1221 654 1213 q 666 1250 654 1239 q 696 1261 678 1261 q 738 1240 722 1261 q 754 1188 754 1219 q 721 1104 754 1142 q 631 1067 688 1067 q 565 1081 597 1067 q 489 1118 532 1094 q 444 1140 465 1131 q 408 1150 422 1150 q 381 1140 392 1150 q 369 1110 369 1129 q 371 1099 371 1106 q 358 1068 371 1079 q 328 1057 346 1057 z "},"Ő":{"ha":1058,"x_min":60,"x_max":999,"o":"m 999 486 q 938 232 999 346 q 771 52 878 118 q 529 -14 664 -14 q 288 52 394 -14 q 120 232 181 118 q 60 486 60 346 q 120 740 60 626 q 288 920 181 854 q 529 986 394 986 q 771 920 664 986 q 938 740 878 854 q 999 486 999 626 m 856 486 q 814 674 856 590 q 698 806 772 758 q 529 854 624 854 q 360 807 435 854 q 244 676 286 760 q 203 486 203 592 q 244 298 203 382 q 360 166 286 214 q 529 118 435 118 q 698 166 624 118 q 814 298 772 214 q 856 486 856 382 z "},"Ȏ":{"ha":1058,"x_min":60,"x_max":999,"o":"m 999 486 q 938 232 999 346 q 771 52 878 118 q 529 -14 664 -14 q 288 52 394 -14 q 120 232 181 118 q 60 486 60 346 q 120 740 60 626 q 288 920 181 854 q 529 986 394 986 q 771 920 664 986 q 938 740 878 854 q 999 486 999 626 m 856 486 q 814 674 856 590 q 698 806 772 758 q 529 854 624 854 q 360 807 435 854 q 244 676 286 760 q 203 486 203 592 q 244 298 203 382 q 360 166 286 214 q 529 118 435 118 q 698 166 624 118 q 814 298 772 214 q 856 486 856 382 m 529 1253 q 660 1217 604 1253 q 732 1121 715 1181 q 736 1099 736 1108 q 725 1070 736 1081 q 696 1060 714 1060 q 660 1070 674 1060 q 631 1103 646 1081 q 529 1154 603 1154 q 467 1141 493 1154 q 428 1103 440 1128 q 399 1070 413 1081 q 361 1060 385 1060 q 332 1070 343 1060 q 321 1097 321 1081 q 325 1118 321 1108 q 399 1216 343 1179 q 529 1253 454 1253 z "},"Ō":{"ha":1058,"x_min":60,"x_max":999,"o":"m 999 486 q 938 232 999 346 q 771 52 878 118 q 529 -14 664 -14 q 288 52 394 -14 q 120 232 181 118 q 60 486 60 346 q 120 740 60 626 q 288 920 181 854 q 529 986 394 986 q 771 920 664 986 q 938 740 878 854 q 999 486 999 626 m 856 486 q 814 674 856 590 q 698 806 772 758 q 529 854 624 854 q 360 807 435 854 q 244 676 286 760 q 203 486 203 592 q 244 298 203 382 q 360 166 286 214 q 529 118 435 118 q 698 166 624 118 q 814 298 772 214 q 856 486 856 382 m 360 1063 q 317 1076 332 1063 q 303 1114 303 1089 q 360 1164 303 1164 l 704 1164 q 761 1114 761 1164 q 747 1076 761 1089 q 704 1063 732 1063 l 360 1063 z "},"Ṓ":{"ha":1058,"x_min":60,"x_max":999,"o":"m 999 486 q 938 232 999 346 q 771 52 878 118 q 529 -14 664 -14 q 288 52 394 -14 q 120 232 181 118 q 60 486 60 346 q 120 740 60 626 q 288 920 181 854 q 529 986 394 986 q 771 920 664 986 q 938 740 878 854 q 999 486 999 626 m 856 486 q 814 674 856 590 q 698 806 772 758 q 529 854 624 854 q 360 807 435 854 q 244 676 286 760 q 203 486 203 592 q 244 298 203 382 q 360 166 286 214 q 529 118 435 118 q 698 166 624 118 q 814 298 772 214 q 856 486 856 382 m 360 1063 q 317 1076 332 1063 q 303 1114 303 1089 q 360 1164 303 1164 l 704 1164 q 761 1114 761 1164 q 747 1076 761 1089 q 704 1063 732 1063 l 360 1063 m 531 1256 q 498 1266 510 1256 q 486 1294 486 1276 q 503 1326 486 1313 l 625 1429 q 681 1453 654 1453 q 723 1436 704 1453 q 742 1396 742 1419 q 731 1361 742 1378 q 700 1335 719 1344 l 563 1264 q 531 1256 546 1256 z "},"Ṑ":{"ha":1058,"x_min":60,"x_max":999,"o":"m 999 486 q 938 232 999 346 q 771 52 878 118 q 529 -14 664 -14 q 288 52 394 -14 q 120 232 181 118 q 60 486 60 346 q 120 740 60 626 q 288 920 181 854 q 529 986 394 986 q 771 920 664 986 q 938 740 878 854 q 999 486 999 626 m 856 486 q 814 674 856 590 q 698 806 772 758 q 529 854 624 854 q 360 807 435 854 q 244 676 286 760 q 203 486 203 592 q 244 298 203 382 q 360 166 286 214 q 529 118 435 118 q 698 166 624 118 q 814 298 772 214 q 856 486 856 382 m 360 1063 q 317 1076 332 1063 q 303 1114 303 1089 q 360 1164 303 1164 l 704 1164 q 761 1114 761 1164 q 747 1076 761 1089 q 704 1063 732 1063 l 360 1063 m 528 1258 q 496 1268 515 1258 l 358 1339 q 328 1366 339 1350 q 317 1400 317 1382 q 335 1440 317 1424 q 378 1457 354 1457 q 435 1432 404 1457 l 556 1331 q 572 1299 572 1317 q 560 1269 572 1281 q 528 1258 549 1258 z "},"Ǫ":{"ha":1058,"x_min":60,"x_max":999,"o":"m 629 -4 q 559 -50 583 -21 q 535 -111 535 -79 q 550 -157 535 -140 q 588 -174 565 -174 q 619 -158 608 -174 q 669 -133 639 -133 q 704 -147 690 -133 q 718 -185 718 -161 q 698 -228 718 -206 q 645 -264 678 -250 q 576 -278 613 -278 q 467 -241 511 -278 q 424 -136 424 -204 q 472 -11 424 -64 q 258 72 353 3 q 112 249 164 140 q 60 486 60 357 q 120 740 60 626 q 288 920 181 854 q 529 986 394 986 q 771 920 664 986 q 938 740 878 854 q 999 486 999 626 q 952 262 999 365 q 822 89 906 158 q 629 -4 738 19 m 203 486 q 244 298 203 382 q 360 166 286 214 q 529 118 435 118 q 698 166 624 118 q 814 298 772 214 q 856 486 856 382 q 814 674 856 590 q 698 806 772 758 q 529 854 624 854 q 360 807 435 854 q 244 676 286 760 q 203 486 203 592 z "},"Ø":{"ha":1018,"x_min":60,"x_max":999,"o":"m 867 842 q 964 682 929 774 q 999 486 999 590 q 938 232 999 346 q 771 52 878 118 q 529 -14 664 -14 q 244 82 367 -14 l 168 -12 q 119 -39 146 -39 q 81 -22 99 -39 q 64 17 64 -6 q 76 54 64 38 l 165 163 q 87 310 114 228 q 60 486 60 393 q 120 740 60 626 q 288 920 181 854 q 529 986 394 986 q 781 914 669 986 l 854 1004 q 900 1026 872 1026 q 940 1011 922 1026 q 957 974 957 996 q 943 935 957 953 l 867 842 m 203 486 q 257 275 203 367 l 694 808 q 529 854 621 854 q 360 807 435 854 q 244 676 286 760 q 203 486 203 592 m 529 118 q 698 166 624 118 q 814 298 772 214 q 856 486 856 382 q 778 733 856 632 l 331 186 q 529 118 417 118 z "},"Ǿ":{"ha":1018,"x_min":60,"x_max":999,"o":"m 867 842 q 964 682 929 774 q 999 486 999 590 q 938 232 999 346 q 771 52 878 118 q 529 -14 664 -14 q 244 82 367 -14 l 168 -12 q 119 -39 146 -39 q 81 -22 99 -39 q 64 17 64 -6 q 76 54 64 38 l 165 163 q 87 310 114 228 q 60 486 60 393 q 120 740 60 626 q 288 920 181 854 q 529 986 394 986 q 781 914 669 986 l 854 1004 q 900 1026 872 1026 q 940 1011 922 1026 q 957 974 957 996 q 943 935 957 953 l 867 842 m 203 486 q 257 275 203 367 l 694 808 q 529 854 621 854 q 360 807 435 854 q 244 676 286 760 q 203 486 203 592 m 529 118 q 698 166 624 118 q 814 298 772 214 q 856 486 856 382 q 778 733 856 632 l 331 186 q 529 118 417 118 m 511 1031 q 478 1041 490 1031 q 467 1069 467 1051 q 483 1101 467 1088 l 606 1204 q 661 1228 635 1228 q 703 1211 685 1228 q 722 1171 722 1194 q 711 1136 722 1153 q 681 1110 700 1119 l 543 1039 q 511 1031 526 1031 z "},"Õ":{"ha":1058,"x_min":60,"x_max":999,"o":"m 999 486 q 938 232 999 346 q 771 52 878 118 q 529 -14 664 -14 q 288 52 394 -14 q 120 232 181 118 q 60 486 60 346 q 120 740 60 626 q 288 920 181 854 q 529 986 394 986 q 771 920 664 986 q 938 740 878 854 q 999 486 999 626 m 856 486 q 814 674 856 590 q 698 806 772 758 q 529 854 624 854 q 360 807 435 854 q 244 676 286 760 q 203 486 203 592 q 244 298 203 382 q 360 166 286 214 q 529 118 435 118 q 698 166 624 118 q 814 298 772 214 q 856 486 856 382 m 344 1042 q 303 1062 319 1042 q 288 1117 288 1082 q 326 1201 288 1167 q 428 1236 364 1236 q 489 1223 458 1236 q 558 1186 519 1210 q 606 1159 590 1167 q 636 1151 622 1151 q 663 1163 653 1151 q 672 1192 674 1174 q 671 1206 671 1197 q 683 1235 671 1224 q 713 1246 694 1246 q 755 1225 739 1246 q 771 1172 771 1204 q 738 1089 771 1126 q 647 1051 704 1051 q 581 1065 614 1051 q 506 1103 549 1079 q 460 1125 482 1115 q 425 1135 439 1135 q 397 1124 408 1135 q 386 1094 386 1114 q 388 1083 388 1090 q 375 1053 388 1064 q 344 1042 363 1042 z "},"Ṍ":{"ha":1058,"x_min":60,"x_max":999,"o":"m 999 486 q 938 232 999 346 q 771 52 878 118 q 529 -14 664 -14 q 288 52 394 -14 q 120 232 181 118 q 60 486 60 346 q 120 740 60 626 q 288 920 181 854 q 529 986 394 986 q 771 920 664 986 q 938 740 878 854 q 999 486 999 626 m 856 486 q 814 674 856 590 q 698 806 772 758 q 529 854 624 854 q 360 807 435 854 q 244 676 286 760 q 203 486 203 592 q 244 298 203 382 q 360 166 286 214 q 529 118 435 118 q 698 166 624 118 q 814 298 772 214 q 856 486 856 382 m 344 1042 q 303 1062 319 1042 q 288 1117 288 1082 q 326 1201 288 1167 q 428 1236 364 1236 q 489 1223 458 1236 q 558 1186 519 1210 q 606 1159 590 1167 q 636 1151 622 1151 q 663 1163 653 1151 q 672 1192 674 1174 q 671 1206 671 1197 q 683 1235 671 1224 q 713 1246 694 1246 q 755 1225 739 1246 q 771 1172 771 1204 q 738 1089 771 1126 q 647 1051 704 1051 q 581 1065 614 1051 q 506 1103 549 1079 q 460 1125 482 1115 q 425 1135 439 1135 q 397 1124 408 1135 q 386 1094 386 1114 q 388 1083 388 1090 q 375 1053 388 1064 q 344 1042 363 1042 m 531 1317 q 498 1327 510 1317 q 486 1356 486 1338 q 503 1388 486 1374 l 625 1490 q 681 1514 654 1514 q 723 1497 704 1514 q 742 1457 742 1481 q 731 1422 742 1439 q 700 1396 719 1406 l 563 1325 q 531 1317 546 1317 z "},"Ṏ":{"ha":1058,"x_min":60,"x_max":999,"o":"m 999 486 q 938 232 999 346 q 771 52 878 118 q 529 -14 664 -14 q 288 52 394 -14 q 120 232 181 118 q 60 486 60 346 q 120 740 60 626 q 288 920 181 854 q 529 986 394 986 q 771 920 664 986 q 938 740 878 854 q 999 486 999 626 m 856 486 q 814 674 856 590 q 698 806 772 758 q 529 854 624 854 q 360 807 435 854 q 244 676 286 760 q 203 486 203 592 q 244 298 203 382 q 360 166 286 214 q 529 118 435 118 q 698 166 624 118 q 814 298 772 214 q 856 486 856 382 m 344 1042 q 303 1062 319 1042 q 288 1117 288 1082 q 326 1201 288 1167 q 428 1236 364 1236 q 489 1223 458 1236 q 558 1186 519 1210 q 606 1159 590 1167 q 636 1151 622 1151 q 663 1163 653 1151 q 672 1192 674 1174 q 671 1206 671 1197 q 683 1235 671 1224 q 713 1246 694 1246 q 755 1225 739 1246 q 771 1172 771 1204 q 738 1089 771 1126 q 647 1051 704 1051 q 581 1065 614 1051 q 506 1103 549 1079 q 460 1125 482 1115 q 425 1135 439 1135 q 397 1124 408 1135 q 386 1094 386 1114 q 388 1083 388 1090 q 375 1053 388 1064 q 344 1042 363 1042 m 397 1351 q 343 1367 361 1351 q 325 1415 325 1382 l 325 1436 q 399 1499 325 1499 q 454 1484 436 1499 q 472 1436 472 1469 l 472 1415 q 454 1367 472 1382 q 397 1351 436 1351 m 658 1351 q 604 1367 622 1351 q 586 1415 586 1382 l 586 1436 q 604 1484 586 1469 q 658 1499 622 1499 q 715 1484 697 1499 q 733 1436 733 1469 l 733 1415 q 715 1367 733 1382 q 658 1351 697 1351 z "},"Ȭ":{"ha":1058,"x_min":60,"x_max":999,"o":"m 999 486 q 938 232 999 346 q 771 52 878 118 q 529 -14 664 -14 q 288 52 394 -14 q 120 232 181 118 q 60 486 60 346 q 120 740 60 626 q 288 920 181 854 q 529 986 394 986 q 771 920 664 986 q 938 740 878 854 q 999 486 999 626 m 856 486 q 814 674 856 590 q 698 806 772 758 q 529 854 624 854 q 360 807 435 854 q 244 676 286 760 q 203 486 203 592 q 244 298 203 382 q 360 166 286 214 q 529 118 435 118 q 698 166 624 118 q 814 298 772 214 q 856 486 856 382 m 344 1042 q 303 1062 319 1042 q 288 1117 288 1082 q 326 1201 288 1167 q 428 1236 364 1236 q 489 1223 458 1236 q 558 1186 519 1210 q 606 1159 590 1167 q 636 1151 622 1151 q 663 1163 653 1151 q 672 1192 674 1174 q 671 1206 671 1197 q 683 1235 671 1224 q 713 1246 694 1246 q 755 1225 739 1246 q 771 1172 771 1204 q 738 1089 771 1126 q 647 1051 704 1051 q 581 1065 614 1051 q 506 1103 549 1079 q 460 1125 482 1115 q 425 1135 439 1135 q 397 1124 408 1135 q 386 1094 386 1114 q 388 1083 388 1090 q 375 1053 388 1064 q 344 1042 363 1042 m 360 1350 q 317 1363 332 1350 q 303 1401 303 1376 q 360 1451 303 1451 l 704 1451 q 761 1401 761 1451 q 747 1363 761 1376 q 704 1350 732 1350 l 360 1350 z "},"Œ":{"ha":1357,"x_min":60,"x_max":1297,"o":"m 1229 132 q 1278 113 1258 132 q 1297 65 1297 93 q 1278 19 1297 38 q 1229 0 1258 0 l 472 0 q 248 65 342 0 q 107 240 154 129 q 60 486 60 350 q 108 731 60 621 q 249 907 156 842 q 472 972 342 972 l 1229 972 q 1278 953 1258 972 q 1297 906 1297 933 q 1278 859 1297 878 q 1229 840 1258 840 l 825 840 l 825 553 l 1167 553 q 1215 534 1196 553 q 1235 486 1235 515 q 1215 440 1235 458 q 1167 421 1196 421 l 825 421 l 825 132 l 1229 132 m 192 486 q 263 231 192 329 q 476 132 333 132 l 693 132 l 693 840 l 476 840 q 263 740 335 840 q 192 486 192 640 z "},"P":{"ha":833,"x_min":115,"x_max":776,"o":"m 504 972 q 640 933 578 972 q 740 825 703 893 q 776 675 776 757 q 740 524 776 593 q 640 414 703 454 q 504 374 578 374 l 243 374 l 243 67 q 225 19 243 39 q 179 0 207 0 q 133 19 150 0 q 115 67 115 38 l 115 906 q 135 953 115 933 q 182 972 154 972 l 504 972 m 504 500 q 574 524 542 500 q 624 589 606 549 q 643 675 643 629 q 602 795 643 746 q 504 844 561 844 l 243 844 l 243 500 l 504 500 z "},"Þ":{"ha":829,"x_min":115,"x_max":771,"o":"m 499 838 q 635 798 572 838 q 734 690 697 758 q 771 539 771 622 q 733 388 771 457 q 633 279 696 319 q 499 239 571 239 l 247 239 l 247 67 q 228 19 247 39 q 181 0 208 0 q 133 19 151 0 q 115 67 115 38 l 115 961 q 135 1008 115 989 q 182 1028 154 1028 q 229 1009 211 1028 q 247 961 247 990 l 247 838 l 499 838 m 499 371 q 597 420 556 371 q 639 539 639 469 q 598 658 639 610 q 499 706 557 706 l 247 706 l 247 371 l 499 371 z "},"Q":{"ha":1060,"x_min":60,"x_max":1090,"o":"m 1029 -56 q 1072 -74 1053 -56 q 1090 -118 1090 -93 q 1046 -187 1090 -154 q 938 -242 1001 -221 q 821 -262 874 -262 q 683 -246 736 -262 q 574 -197 631 -229 q 503 -163 531 -174 q 438 -153 475 -153 q 406 -158 421 -153 q 378 -169 392 -162 q 315 -186 344 -186 q 270 -166 289 -186 q 251 -121 251 -146 q 289 -64 251 -78 l 444 -7 q 244 82 332 13 q 108 257 157 151 q 60 486 60 363 q 120 740 60 626 q 288 920 181 854 q 529 986 394 986 q 771 920 664 986 q 938 740 878 854 q 999 486 999 626 q 952 261 999 364 q 822 89 906 158 q 631 -3 739 19 l 525 -42 q 588 -58 560 -46 q 657 -90 617 -69 q 744 -128 707 -115 q 828 -142 782 -142 q 897 -131 868 -142 q 953 -100 926 -119 q 978 -80 964 -92 q 1005 -62 993 -68 q 1029 -56 1017 -56 m 203 486 q 244 298 203 382 q 360 166 286 214 q 529 118 435 118 q 698 166 624 118 q 814 298 772 214 q 856 486 856 382 q 814 674 856 590 q 698 806 772 758 q 529 854 624 854 q 360 807 435 854 q 244 676 286 760 q 203 486 203 592 z "},"R":{"ha":944,"x_min":115,"x_max":886,"o":"m 856 111 q 878 87 869 101 q 886 57 886 72 q 867 14 886 28 q 822 0 849 0 q 778 11 796 0 q 710 88 736 35 q 683 243 683 140 q 642 346 683 313 q 533 379 600 379 l 253 379 l 253 67 q 236 19 253 38 q 193 0 219 0 q 138 19 161 0 q 115 67 115 39 l 115 906 q 135 953 115 933 q 182 972 154 972 l 572 972 q 710 935 647 972 q 810 834 772 899 q 847 689 847 769 q 806 544 847 611 q 699 443 764 476 q 780 369 750 417 q 813 260 810 322 q 825 152 818 181 q 856 111 832 124 m 569 494 q 635 522 604 497 q 686 590 667 547 q 706 685 706 632 q 665 798 706 751 q 565 844 624 844 l 253 844 l 253 494 l 569 494 z "},"Ŕ":{"ha":944,"x_min":115,"x_max":886,"o":"m 856 111 q 878 87 869 101 q 886 57 886 72 q 867 14 886 28 q 822 0 849 0 q 778 11 796 0 q 710 88 736 35 q 683 243 683 140 q 642 346 683 313 q 533 379 600 379 l 253 379 l 253 67 q 236 19 253 38 q 193 0 219 0 q 138 19 161 0 q 115 67 115 39 l 115 906 q 135 953 115 933 q 182 972 154 972 l 572 972 q 710 935 647 972 q 810 834 772 899 q 847 689 847 769 q 806 544 847 611 q 699 443 764 476 q 780 369 750 417 q 813 260 810 322 q 825 152 818 181 q 856 111 832 124 m 569 494 q 635 522 604 497 q 686 590 667 547 q 706 685 706 632 q 665 798 706 751 q 565 844 624 844 l 253 844 l 253 494 l 569 494 m 472 1031 q 440 1041 451 1031 q 428 1069 428 1051 q 444 1101 428 1088 l 567 1204 q 622 1228 596 1228 q 665 1211 646 1228 q 683 1171 683 1194 q 672 1136 683 1153 q 642 1110 661 1119 l 504 1039 q 472 1031 488 1031 z "},"Ř":{"ha":944,"x_min":115,"x_max":886,"o":"m 856 111 q 878 87 869 101 q 886 57 886 72 q 867 14 886 28 q 822 0 849 0 q 778 11 796 0 q 710 88 736 35 q 683 243 683 140 q 642 346 683 313 q 533 379 600 379 l 253 379 l 253 67 q 236 19 253 38 q 193 0 219 0 q 138 19 161 0 q 115 67 115 39 l 115 906 q 135 953 115 933 q 182 972 154 972 l 572 972 q 710 935 647 972 q 810 834 772 899 q 847 689 847 769 q 806 544 847 611 q 699 443 764 476 q 780 369 750 417 q 813 260 810 322 q 825 152 818 181 q 856 111 832 124 m 569 494 q 635 522 604 497 q 686 590 667 547 q 706 685 706 632 q 665 798 706 751 q 565 844 624 844 l 253 844 l 253 494 l 569 494 m 626 1238 q 652 1228 642 1238 q 663 1208 663 1219 q 659 1193 663 1200 q 644 1175 656 1186 l 550 1069 q 519 1044 535 1053 q 481 1036 503 1036 l 461 1036 q 423 1044 439 1036 q 393 1069 407 1053 l 297 1175 q 285 1192 289 1185 q 281 1208 281 1200 q 290 1228 281 1219 q 315 1238 300 1238 q 372 1214 339 1238 l 472 1146 l 569 1214 q 626 1238 603 1238 z "},"Ŗ":{"ha":944,"x_min":115,"x_max":886,"o":"m 856 111 q 878 87 869 101 q 886 57 886 72 q 867 14 886 28 q 822 0 849 0 q 778 11 796 0 q 710 88 736 35 q 683 243 683 140 q 642 346 683 313 q 533 379 600 379 l 253 379 l 253 67 q 236 19 253 38 q 193 0 219 0 q 138 19 161 0 q 115 67 115 39 l 115 906 q 135 953 115 933 q 182 972 154 972 l 572 972 q 710 935 647 972 q 810 834 772 899 q 847 689 847 769 q 806 544 847 611 q 699 443 764 476 q 780 369 750 417 q 813 260 810 322 q 825 152 818 181 q 856 111 832 124 m 569 494 q 635 522 604 497 q 686 590 667 547 q 706 685 706 632 q 665 798 706 751 q 565 844 624 844 l 253 844 l 253 494 l 569 494 m 574 -146 q 535 -229 574 -192 q 446 -267 497 -267 q 403 -256 418 -267 q 388 -229 388 -244 q 395 -208 388 -215 q 414 -200 403 -200 q 430 -203 419 -200 q 450 -206 440 -206 q 476 -194 465 -206 q 486 -164 486 -183 q 472 -146 486 -146 q 458 -152 467 -146 q 438 -158 450 -158 q 405 -144 417 -158 q 393 -110 393 -131 q 416 -65 393 -81 q 478 -50 439 -50 q 547 -76 519 -50 q 574 -146 574 -101 z "},"Ȑ":{"ha":944,"x_min":115,"x_max":886,"o":"m 856 111 q 878 87 869 101 q 886 57 886 72 q 867 14 886 28 q 822 0 849 0 q 778 11 796 0 q 710 88 736 35 q 683 243 683 140 q 642 346 683 313 q 533 379 600 379 l 253 379 l 253 67 q 236 19 253 38 q 193 0 219 0 q 138 19 161 0 q 115 67 115 39 l 115 906 q 135 953 115 933 q 182 972 154 972 l 572 972 q 710 935 647 972 q 810 834 772 899 q 847 689 847 769 q 806 544 847 611 q 699 443 764 476 q 780 369 750 417 q 813 260 810 322 q 825 152 818 181 q 856 111 832 124 m 569 494 q 635 522 604 497 q 686 590 667 547 q 706 685 706 632 q 665 798 706 751 q 565 844 624 844 l 253 844 l 253 494 l 569 494 m 625 1054 q 594 1063 614 1054 l 457 1133 q 415 1194 415 1157 q 434 1235 415 1219 q 476 1251 453 1251 q 532 1228 503 1251 l 653 1126 q 671 1093 671 1110 q 658 1065 671 1076 q 625 1054 646 1054 m 361 1046 q 331 1056 347 1046 l 193 1126 q 151 1188 151 1147 q 170 1228 151 1211 q 211 1244 189 1244 q 268 1219 240 1244 l 389 1118 q 407 1086 407 1104 q 394 1057 407 1068 q 361 1046 382 1046 z "},"Ṛ":{"ha":944,"x_min":115,"x_max":886,"o":"m 856 111 q 878 87 869 101 q 886 57 886 72 q 867 14 886 28 q 822 0 849 0 q 778 11 796 0 q 710 88 736 35 q 683 243 683 140 q 642 346 683 313 q 533 379 600 379 l 253 379 l 253 67 q 236 19 253 38 q 193 0 219 0 q 138 19 161 0 q 115 67 115 39 l 115 906 q 135 953 115 933 q 182 972 154 972 l 572 972 q 710 935 647 972 q 810 834 772 899 q 847 689 847 769 q 806 544 847 611 q 699 443 764 476 q 780 369 750 417 q 813 260 810 322 q 825 152 818 181 q 856 111 832 124 m 569 494 q 635 522 604 497 q 686 590 667 547 q 706 685 706 632 q 665 798 706 751 q 565 844 624 844 l 253 844 l 253 494 l 569 494 m 469 -200 q 413 -185 431 -200 q 396 -136 396 -169 l 396 -115 q 469 -51 396 -51 q 528 -66 511 -51 q 546 -115 546 -81 l 546 -136 q 528 -185 546 -171 q 469 -200 510 -200 z "},"Ȓ":{"ha":944,"x_min":115,"x_max":886,"o":"m 856 111 q 878 87 869 101 q 886 57 886 72 q 867 14 886 28 q 822 0 849 0 q 778 11 796 0 q 710 88 736 35 q 683 243 683 140 q 642 346 683 313 q 533 379 600 379 l 253 379 l 253 67 q 236 19 253 38 q 193 0 219 0 q 138 19 161 0 q 115 67 115 39 l 115 906 q 135 953 115 933 q 182 972 154 972 l 572 972 q 710 935 647 972 q 810 834 772 899 q 847 689 847 769 q 806 544 847 611 q 699 443 764 476 q 780 369 750 417 q 813 260 810 322 q 825 152 818 181 q 856 111 832 124 m 569 494 q 635 522 604 497 q 686 590 667 547 q 706 685 706 632 q 665 798 706 751 q 565 844 624 844 l 253 844 l 253 494 l 569 494 m 469 1253 q 600 1217 544 1253 q 672 1121 656 1181 q 676 1099 676 1108 q 665 1070 676 1081 q 636 1060 654 1060 q 600 1070 614 1060 q 571 1103 586 1081 q 469 1154 543 1154 q 407 1141 433 1154 q 368 1103 381 1128 q 339 1070 353 1081 q 301 1060 325 1060 q 272 1070 283 1060 q 261 1097 261 1081 q 265 1118 261 1108 q 339 1216 283 1179 q 469 1253 394 1253 z "},"Ṟ":{"ha":944,"x_min":115,"x_max":886,"o":"m 856 111 q 878 87 869 101 q 886 57 886 72 q 867 14 886 28 q 822 0 849 0 q 778 11 796 0 q 710 88 736 35 q 683 243 683 140 q 642 346 683 313 q 533 379 600 379 l 253 379 l 253 67 q 236 19 253 38 q 193 0 219 0 q 138 19 161 0 q 115 67 115 39 l 115 906 q 135 953 115 933 q 182 972 154 972 l 572 972 q 710 935 647 972 q 810 834 772 899 q 847 689 847 769 q 806 544 847 611 q 699 443 764 476 q 780 369 750 417 q 813 260 810 322 q 825 152 818 181 q 856 111 832 124 m 569 494 q 635 522 604 497 q 686 590 667 547 q 706 685 706 632 q 665 798 706 751 q 565 844 624 844 l 253 844 l 253 494 l 569 494 m 324 -196 q 281 -183 296 -196 q 267 -146 267 -169 q 282 -108 267 -122 q 324 -94 297 -94 l 642 -94 q 683 -108 668 -94 q 697 -146 697 -122 q 683 -183 697 -169 q 642 -196 668 -196 l 324 -196 z "},"S":{"ha":808,"x_min":53,"x_max":749,"o":"m 410 -14 q 231 15 308 -14 q 82 107 153 43 q 53 164 53 132 q 72 209 53 189 q 118 229 92 229 q 158 214 142 229 q 273 138 214 163 q 407 114 332 114 q 555 154 494 114 q 615 256 615 194 q 555 367 614 328 q 375 433 496 407 q 155 529 232 463 q 78 714 78 596 q 121 858 78 796 q 240 953 164 919 q 413 986 317 986 q 575 958 499 986 q 699 885 651 931 q 731 825 731 857 q 712 781 731 800 q 667 761 693 761 q 635 772 647 761 q 535 833 599 808 q 413 858 471 858 q 265 820 319 858 q 210 719 210 782 q 265 615 210 651 q 428 554 319 579 q 605 499 536 531 q 711 410 674 467 q 749 261 749 353 q 703 118 749 181 q 581 21 658 56 q 410 -14 503 -14 z "},"Ś":{"ha":808,"x_min":53,"x_max":749,"o":"m 410 -14 q 231 15 308 -14 q 82 107 153 43 q 53 164 53 132 q 72 209 53 189 q 118 229 92 229 q 158 214 142 229 q 273 138 214 163 q 407 114 332 114 q 555 154 494 114 q 615 256 615 194 q 555 367 614 328 q 375 433 496 407 q 155 529 232 463 q 78 714 78 596 q 121 858 78 796 q 240 953 164 919 q 413 986 317 986 q 575 958 499 986 q 699 885 651 931 q 731 825 731 857 q 712 781 731 800 q 667 761 693 761 q 635 772 647 761 q 535 833 599 808 q 413 858 471 858 q 265 820 319 858 q 210 719 210 782 q 265 615 210 651 q 428 554 319 579 q 605 499 536 531 q 711 410 674 467 q 749 261 749 353 q 703 118 749 181 q 581 21 658 56 q 410 -14 503 -14 m 407 1031 q 374 1041 386 1031 q 363 1069 363 1051 q 379 1101 363 1088 l 501 1204 q 557 1228 531 1228 q 599 1211 581 1228 q 618 1171 618 1194 q 607 1136 618 1153 q 576 1110 596 1119 l 439 1039 q 407 1031 422 1031 z "},"Ṥ":{"ha":808,"x_min":53,"x_max":749,"o":"m 410 -14 q 231 15 308 -14 q 82 107 153 43 q 53 164 53 132 q 72 209 53 189 q 118 229 92 229 q 158 214 142 229 q 273 138 214 163 q 407 114 332 114 q 555 154 494 114 q 615 256 615 194 q 555 367 614 328 q 375 433 496 407 q 155 529 232 463 q 78 714 78 596 q 121 858 78 796 q 240 953 164 919 q 413 986 317 986 q 575 958 499 986 q 699 885 651 931 q 731 825 731 857 q 712 781 731 800 q 667 761 693 761 q 635 772 647 761 q 535 833 599 808 q 413 858 471 858 q 265 820 319 858 q 210 719 210 782 q 265 615 210 651 q 428 554 319 579 q 605 499 536 531 q 711 410 674 467 q 749 261 749 353 q 703 118 749 181 q 581 21 658 56 q 410 -14 503 -14 m 407 1031 q 374 1041 386 1031 q 363 1069 363 1051 q 379 1101 363 1088 l 501 1204 q 557 1228 531 1228 q 599 1211 581 1228 q 618 1171 618 1194 q 607 1136 618 1153 q 576 1110 596 1119 l 439 1039 q 407 1031 422 1031 m 471 1292 q 415 1306 432 1292 q 397 1354 397 1321 l 397 1376 q 416 1424 397 1410 q 472 1439 435 1439 q 530 1424 513 1439 q 547 1376 547 1410 l 547 1354 q 529 1306 547 1321 q 471 1292 511 1292 z "},"Š":{"ha":808,"x_min":53,"x_max":749,"o":"m 410 -14 q 231 15 308 -14 q 82 107 153 43 q 53 164 53 132 q 72 209 53 189 q 118 229 92 229 q 158 214 142 229 q 273 138 214 163 q 407 114 332 114 q 555 154 494 114 q 615 256 615 194 q 555 367 614 328 q 375 433 496 407 q 155 529 232 463 q 78 714 78 596 q 121 858 78 796 q 240 953 164 919 q 413 986 317 986 q 575 958 499 986 q 699 885 651 931 q 731 825 731 857 q 712 781 731 800 q 667 761 693 761 q 635 772 647 761 q 535 833 599 808 q 413 858 471 858 q 265 820 319 858 q 210 719 210 782 q 265 615 210 651 q 428 554 319 579 q 605 499 536 531 q 711 410 674 467 q 749 261 749 353 q 703 118 749 181 q 581 21 658 56 q 410 -14 503 -14 m 560 1238 q 585 1228 575 1238 q 596 1208 596 1219 q 592 1193 596 1200 q 578 1175 589 1186 l 483 1069 q 452 1044 468 1053 q 414 1036 436 1036 l 394 1036 q 356 1044 372 1036 q 326 1069 340 1053 l 231 1175 q 218 1192 222 1185 q 214 1208 214 1200 q 224 1228 214 1219 q 249 1238 233 1238 q 306 1214 272 1238 l 406 1146 l 503 1214 q 560 1238 536 1238 z "},"Ṧ":{"ha":808,"x_min":53,"x_max":749,"o":"m 410 -14 q 231 15 308 -14 q 82 107 153 43 q 53 164 53 132 q 72 209 53 189 q 118 229 92 229 q 158 214 142 229 q 273 138 214 163 q 407 114 332 114 q 555 154 494 114 q 615 256 615 194 q 555 367 614 328 q 375 433 496 407 q 155 529 232 463 q 78 714 78 596 q 121 858 78 796 q 240 953 164 919 q 413 986 317 986 q 575 958 499 986 q 699 885 651 931 q 731 825 731 857 q 712 781 731 800 q 667 761 693 761 q 635 772 647 761 q 535 833 599 808 q 413 858 471 858 q 265 820 319 858 q 210 719 210 782 q 265 615 210 651 q 428 554 319 579 q 605 499 536 531 q 711 410 674 467 q 749 261 749 353 q 703 118 749 181 q 581 21 658 56 q 410 -14 503 -14 m 560 1238 q 585 1228 575 1238 q 596 1208 596 1219 q 592 1193 596 1200 q 578 1175 589 1186 l 483 1069 q 452 1044 468 1053 q 414 1036 436 1036 l 394 1036 q 356 1044 372 1036 q 326 1069 340 1053 l 231 1175 q 218 1192 222 1185 q 214 1208 214 1200 q 224 1228 214 1219 q 249 1238 233 1238 q 306 1214 272 1238 l 406 1146 l 503 1214 q 560 1238 536 1238 m 403 1331 q 347 1345 364 1331 q 329 1393 329 1360 l 329 1415 q 348 1463 329 1449 q 404 1478 367 1478 q 462 1463 444 1478 q 479 1415 479 1449 l 479 1393 q 461 1345 479 1360 q 403 1331 443 1331 z "},"Ş":{"ha":808,"x_min":53,"x_max":749,"o":"m 749 261 q 707 124 749 185 q 593 27 665 63 q 433 -14 521 -8 l 371 -168 q 322 -206 357 -206 q 272 -189 300 -206 q 244 -150 244 -172 q 258 -115 244 -131 l 339 -10 q 201 26 264 -3 q 82 107 139 54 q 53 164 53 132 q 72 209 53 189 q 118 229 92 229 q 158 214 142 229 q 273 138 214 163 q 407 114 332 114 q 555 154 494 114 q 615 256 615 194 q 555 367 614 328 q 375 433 496 407 q 155 529 232 463 q 78 714 78 596 q 121 858 78 796 q 240 953 164 919 q 413 986 317 986 q 575 958 499 986 q 699 885 651 931 q 731 825 731 857 q 712 781 731 800 q 667 761 693 761 q 635 772 647 761 q 535 833 599 808 q 413 858 471 858 q 265 820 319 858 q 210 719 210 782 q 265 615 210 651 q 428 554 319 579 q 605 499 536 531 q 711 410 674 467 q 749 261 749 353 z "},"Ŝ":{"ha":808,"x_min":53,"x_max":749,"o":"m 410 -14 q 231 15 308 -14 q 82 107 153 43 q 53 164 53 132 q 72 209 53 189 q 118 229 92 229 q 158 214 142 229 q 273 138 214 163 q 407 114 332 114 q 555 154 494 114 q 615 256 615 194 q 555 367 614 328 q 375 433 496 407 q 155 529 232 463 q 78 714 78 596 q 121 858 78 796 q 240 953 164 919 q 413 986 317 986 q 575 958 499 986 q 699 885 651 931 q 731 825 731 857 q 712 781 731 800 q 667 761 693 761 q 635 772 647 761 q 535 833 599 808 q 413 858 471 858 q 265 820 319 858 q 210 719 210 782 q 265 615 210 651 q 428 554 319 579 q 605 499 536 531 q 711 410 674 467 q 749 261 749 353 q 703 118 749 181 q 581 21 658 56 q 410 -14 503 -14 m 578 1103 q 594 1069 594 1085 q 584 1049 594 1058 q 560 1040 574 1040 q 535 1048 550 1040 q 503 1065 519 1056 l 401 1131 l 304 1065 q 273 1047 288 1054 q 247 1040 258 1040 q 223 1049 233 1040 q 213 1069 213 1058 q 217 1085 213 1078 q 229 1103 221 1093 l 325 1208 q 356 1234 340 1226 q 393 1242 371 1242 l 413 1242 q 451 1233 435 1242 q 482 1208 467 1225 l 578 1103 z "},"Ș":{"ha":808,"x_min":53,"x_max":749,"o":"m 410 -14 q 231 15 308 -14 q 82 107 153 43 q 53 164 53 132 q 72 209 53 189 q 118 229 92 229 q 158 214 142 229 q 273 138 214 163 q 407 114 332 114 q 555 154 494 114 q 615 256 615 194 q 555 367 614 328 q 375 433 496 407 q 155 529 232 463 q 78 714 78 596 q 121 858 78 796 q 240 953 164 919 q 413 986 317 986 q 575 958 499 986 q 699 885 651 931 q 731 825 731 857 q 712 781 731 800 q 667 761 693 761 q 635 772 647 761 q 535 833 599 808 q 413 858 471 858 q 265 820 319 858 q 210 719 210 782 q 265 615 210 651 q 428 554 319 579 q 605 499 536 531 q 711 410 674 467 q 749 261 749 353 q 703 118 749 181 q 581 21 658 56 q 410 -14 503 -14 m 507 -146 q 469 -229 507 -192 q 379 -267 431 -267 q 336 -256 351 -267 q 321 -229 321 -244 q 328 -208 321 -215 q 347 -200 336 -200 q 363 -203 353 -200 q 383 -206 374 -206 q 409 -194 399 -206 q 419 -164 419 -183 q 406 -146 419 -146 q 392 -152 400 -146 q 371 -158 383 -158 q 338 -144 350 -158 q 326 -110 326 -131 q 349 -65 326 -81 q 411 -50 372 -50 q 480 -76 453 -50 q 507 -146 507 -101 z "},"Ṡ":{"ha":808,"x_min":53,"x_max":749,"o":"m 410 -14 q 231 15 308 -14 q 82 107 153 43 q 53 164 53 132 q 72 209 53 189 q 118 229 92 229 q 158 214 142 229 q 273 138 214 163 q 407 114 332 114 q 555 154 494 114 q 615 256 615 194 q 555 367 614 328 q 375 433 496 407 q 155 529 232 463 q 78 714 78 596 q 121 858 78 796 q 240 953 164 919 q 413 986 317 986 q 575 958 499 986 q 699 885 651 931 q 731 825 731 857 q 712 781 731 800 q 667 761 693 761 q 635 772 647 761 q 535 833 599 808 q 413 858 471 858 q 265 820 319 858 q 210 719 210 782 q 265 615 210 651 q 428 554 319 579 q 605 499 536 531 q 711 410 674 467 q 749 261 749 353 q 703 118 749 181 q 581 21 658 56 q 410 -14 503 -14 m 403 1046 q 347 1060 364 1046 q 329 1108 329 1075 l 329 1131 q 348 1178 329 1164 q 404 1193 367 1193 q 462 1178 444 1193 q 479 1131 479 1164 l 479 1108 q 461 1060 479 1075 q 403 1046 443 1046 z "},"Ṣ":{"ha":808,"x_min":53,"x_max":749,"o":"m 410 -14 q 231 15 308 -14 q 82 107 153 43 q 53 164 53 132 q 72 209 53 189 q 118 229 92 229 q 158 214 142 229 q 273 138 214 163 q 407 114 332 114 q 555 154 494 114 q 615 256 615 194 q 555 367 614 328 q 375 433 496 407 q 155 529 232 463 q 78 714 78 596 q 121 858 78 796 q 240 953 164 919 q 413 986 317 986 q 575 958 499 986 q 699 885 651 931 q 731 825 731 857 q 712 781 731 800 q 667 761 693 761 q 635 772 647 761 q 535 833 599 808 q 413 858 471 858 q 265 820 319 858 q 210 719 210 782 q 265 615 210 651 q 428 554 319 579 q 605 499 536 531 q 711 410 674 467 q 749 261 749 353 q 703 118 749 181 q 581 21 658 56 q 410 -14 503 -14 m 403 -200 q 347 -185 364 -200 q 329 -136 329 -169 l 329 -115 q 403 -51 329 -51 q 462 -66 444 -51 q 479 -115 479 -81 l 479 -136 q 461 -185 479 -171 q 403 -200 443 -200 z "},"Ṩ":{"ha":808,"x_min":53,"x_max":749,"o":"m 410 -14 q 231 15 308 -14 q 82 107 153 43 q 53 164 53 132 q 72 209 53 189 q 118 229 92 229 q 158 214 142 229 q 273 138 214 163 q 407 114 332 114 q 555 154 494 114 q 615 256 615 194 q 555 367 614 328 q 375 433 496 407 q 155 529 232 463 q 78 714 78 596 q 121 858 78 796 q 240 953 164 919 q 413 986 317 986 q 575 958 499 986 q 699 885 651 931 q 731 825 731 857 q 712 781 731 800 q 667 761 693 761 q 635 772 647 761 q 535 833 599 808 q 413 858 471 858 q 265 820 319 858 q 210 719 210 782 q 265 615 210 651 q 428 554 319 579 q 605 499 536 531 q 711 410 674 467 q 749 261 749 353 q 703 118 749 181 q 581 21 658 56 q 410 -14 503 -14 m 403 -200 q 347 -185 364 -200 q 329 -136 329 -169 l 329 -115 q 403 -51 329 -51 q 462 -66 444 -51 q 479 -115 479 -81 l 479 -136 q 461 -185 479 -171 q 403 -200 443 -200 m 403 1046 q 347 1060 364 1046 q 329 1108 329 1075 l 329 1131 q 348 1178 329 1164 q 404 1193 367 1193 q 462 1178 444 1193 q 479 1131 479 1164 l 479 1108 q 461 1060 479 1075 q 403 1046 443 1046 z "},"ẞ":{"ha":1013,"x_min":115,"x_max":953,"o":"m 728 532 q 843 476 799 503 q 920 394 888 449 q 953 254 953 340 q 911 120 953 182 q 800 22 869 58 q 651 -14 731 -14 q 500 17 574 -14 q 383 104 426 49 q 365 163 365 132 q 383 211 365 189 q 428 233 400 233 q 452 228 439 233 q 474 214 465 224 q 556 145 508 172 q 650 118 604 118 q 767 150 724 118 q 810 238 810 182 q 789 305 810 278 q 738 350 768 332 q 654 392 707 368 q 625 406 644 397 q 492 497 540 446 q 443 640 443 549 q 504 803 443 742 q 664 885 565 864 q 549 894 621 894 q 338 819 415 894 q 260 615 260 744 l 257 68 q 237 20 257 39 q 185 1 217 1 q 135 20 154 1 q 115 68 115 39 l 118 585 q 166 797 118 701 q 309 951 214 893 q 539 1008 404 1008 q 692 992 622 1008 q 811 951 763 976 q 862 916 846 936 q 878 869 878 896 q 861 835 878 844 q 808 817 844 825 q 778 810 796 815 q 636 763 683 793 q 589 675 589 733 q 625 592 589 625 q 728 532 661 560 z "},"Ə":{"ha":1068,"x_min":60,"x_max":1008,"o":"m 531 986 q 769 919 660 986 q 944 737 879 851 q 1008 486 1008 622 q 944 235 1008 350 q 772 53 881 121 q 533 -14 663 -14 q 308 43 415 -14 q 134 203 201 100 q 60 436 67 306 l 60 467 q 83 524 60 503 q 140 544 107 544 l 865 544 q 756 774 849 693 q 531 854 664 854 q 376 828 446 854 q 246 744 306 803 q 200 726 224 726 q 157 743 176 726 q 132 793 132 763 q 154 840 132 822 q 322 952 232 918 q 531 986 411 986 m 533 118 q 685 153 615 118 q 801 256 754 189 q 863 413 849 322 l 201 413 q 263 263 215 331 q 382 157 311 196 q 533 118 453 118 z "},"T":{"ha":857,"x_min":44,"x_max":813,"o":"m 746 972 q 794 955 775 972 q 813 908 813 938 q 794 863 813 879 q 746 846 775 846 l 499 846 l 499 67 q 478 19 499 39 q 428 0 458 0 q 377 19 397 0 q 357 67 357 39 l 357 846 l 111 846 q 63 863 82 846 q 44 910 44 881 q 63 955 44 938 q 111 972 82 972 l 746 972 z "},"Ŧ":{"ha":857,"x_min":44,"x_max":813,"o":"m 746 972 q 794 955 775 972 q 813 908 813 938 q 794 863 813 879 q 746 846 775 846 l 499 846 l 499 538 l 556 538 q 604 520 585 538 q 624 476 624 503 q 604 433 624 450 q 556 415 585 415 l 499 415 l 499 67 q 478 19 499 39 q 428 0 458 0 q 377 19 397 0 q 357 67 357 39 l 357 415 l 321 415 q 273 433 292 415 q 254 478 254 450 q 273 521 254 504 q 321 538 292 538 l 357 538 l 357 846 l 111 846 q 63 863 82 846 q 44 910 44 881 q 63 955 44 938 q 111 972 82 972 l 746 972 z "},"Ť":{"ha":857,"x_min":44,"x_max":813,"o":"m 746 972 q 794 955 775 972 q 813 908 813 938 q 794 863 813 879 q 746 846 775 846 l 499 846 l 499 67 q 478 19 499 39 q 428 0 458 0 q 377 19 397 0 q 357 67 357 39 l 357 846 l 111 846 q 63 863 82 846 q 44 910 44 881 q 63 955 44 938 q 111 972 82 972 l 746 972 m 583 1238 q 609 1228 599 1238 q 619 1208 619 1219 q 616 1193 619 1200 q 601 1175 613 1186 l 507 1069 q 476 1044 492 1053 q 438 1036 460 1036 l 418 1036 q 380 1044 396 1036 q 350 1069 364 1053 l 254 1175 q 242 1192 246 1185 q 238 1208 238 1200 q 247 1228 238 1219 q 272 1238 257 1238 q 329 1214 296 1238 l 429 1146 l 526 1214 q 583 1238 560 1238 z "},"Ţ":{"ha":857,"x_min":44,"x_max":813,"o":"m 746 972 q 794 955 775 972 q 813 908 813 938 q 794 863 813 879 q 746 846 775 846 l 499 846 l 499 67 q 490 33 499 49 q 465 10 481 18 l 393 -168 q 346 -206 379 -206 q 296 -189 324 -206 q 268 -150 268 -172 q 282 -115 268 -131 l 382 15 q 364 38 371 24 q 357 67 357 51 l 357 846 l 111 846 q 63 863 82 846 q 44 910 44 881 q 63 955 44 938 q 111 972 82 972 l 746 972 z "},"Ț":{"ha":857,"x_min":44,"x_max":813,"o":"m 746 972 q 794 955 775 972 q 813 908 813 938 q 794 863 813 879 q 746 846 775 846 l 499 846 l 499 67 q 478 19 499 39 q 428 0 458 0 q 377 19 397 0 q 357 67 357 39 l 357 846 l 111 846 q 63 863 82 846 q 44 910 44 881 q 63 955 44 938 q 111 972 82 972 l 746 972 m 531 -146 q 492 -229 531 -192 q 403 -267 454 -267 q 360 -256 375 -267 q 344 -229 344 -244 q 352 -208 344 -215 q 371 -200 360 -200 q 387 -203 376 -200 q 407 -206 397 -206 q 433 -194 422 -206 q 443 -164 443 -183 q 429 -146 443 -146 q 415 -152 424 -146 q 394 -158 407 -158 q 362 -144 374 -158 q 350 -110 350 -131 q 373 -65 350 -81 q 435 -50 396 -50 q 503 -76 476 -50 q 531 -146 531 -101 z "},"Ṭ":{"ha":857,"x_min":44,"x_max":813,"o":"m 746 972 q 794 955 775 972 q 813 908 813 938 q 794 863 813 879 q 746 846 775 846 l 499 846 l 499 67 q 478 19 499 39 q 428 0 458 0 q 377 19 397 0 q 357 67 357 39 l 357 846 l 111 846 q 63 863 82 846 q 44 910 44 881 q 63 955 44 938 q 111 972 82 972 l 746 972 m 426 -200 q 370 -185 388 -200 q 353 -136 353 -169 l 353 -115 q 426 -51 353 -51 q 485 -66 468 -51 q 503 -115 503 -81 l 503 -136 q 485 -185 503 -171 q 426 -200 467 -200 z "},"Ṯ":{"ha":857,"x_min":44,"x_max":813,"o":"m 746 972 q 794 955 775 972 q 813 908 813 938 q 794 863 813 879 q 746 846 775 846 l 499 846 l 499 67 q 478 19 499 39 q 428 0 458 0 q 377 19 397 0 q 357 67 357 39 l 357 846 l 111 846 q 63 863 82 846 q 44 910 44 881 q 63 955 44 938 q 111 972 82 972 l 746 972 m 282 -196 q 240 -183 254 -196 q 225 -146 225 -169 q 240 -108 225 -122 q 282 -94 256 -94 l 600 -94 q 641 -108 626 -94 q 656 -146 656 -122 q 641 -183 656 -169 q 600 -196 626 -196 l 282 -196 z "},"U":{"ha":983,"x_min":115,"x_max":868,"o":"m 804 974 q 851 955 833 974 q 868 907 868 936 l 868 374 q 819 176 868 264 q 685 40 771 89 q 493 -10 600 -10 q 299 40 385 -10 q 164 176 213 89 q 115 374 115 264 l 115 907 q 135 955 115 936 q 185 974 154 974 q 231 954 211 974 q 251 907 251 935 l 251 374 q 285 244 251 301 q 374 154 318 186 q 493 122 429 122 q 617 154 560 122 q 708 244 674 186 q 742 374 742 301 l 742 907 q 758 955 742 936 q 804 974 775 974 z "},"Ú":{"ha":983,"x_min":115,"x_max":868,"o":"m 804 974 q 851 955 833 974 q 868 907 868 936 l 868 374 q 819 176 868 264 q 685 40 771 89 q 493 -10 600 -10 q 299 40 385 -10 q 164 176 213 89 q 115 374 115 264 l 115 907 q 135 955 115 936 q 185 974 154 974 q 231 954 211 974 q 251 907 251 935 l 251 374 q 285 244 251 301 q 374 154 318 186 q 493 122 429 122 q 617 154 560 122 q 708 244 674 186 q 742 374 742 301 l 742 907 q 758 955 742 936 q 804 974 775 974 m 494 1031 q 462 1041 474 1031 q 450 1069 450 1051 q 467 1101 450 1088 l 589 1204 q 644 1228 618 1228 q 687 1211 668 1228 q 706 1171 706 1194 q 694 1136 706 1153 q 664 1110 683 1119 l 526 1039 q 494 1031 510 1031 z "},"Ŭ":{"ha":983,"x_min":115,"x_max":868,"o":"m 804 974 q 851 955 833 974 q 868 907 868 936 l 868 374 q 819 176 868 264 q 685 40 771 89 q 493 -10 600 -10 q 299 40 385 -10 q 164 176 213 89 q 115 374 115 264 l 115 907 q 135 955 115 936 q 185 974 154 974 q 231 954 211 974 q 251 907 251 935 l 251 374 q 285 244 251 301 q 374 154 318 186 q 493 122 429 122 q 617 154 560 122 q 708 244 674 186 q 742 374 742 301 l 742 907 q 758 955 742 936 q 804 974 775 974 m 493 1063 q 363 1097 418 1063 q 286 1196 308 1132 q 281 1221 281 1208 q 291 1249 281 1239 q 319 1258 301 1258 q 354 1249 342 1258 q 386 1215 367 1239 q 493 1160 421 1160 q 600 1215 568 1160 q 628 1247 614 1238 q 665 1257 643 1257 q 695 1248 685 1257 q 706 1221 706 1239 q 701 1197 706 1210 q 624 1098 679 1133 q 493 1063 569 1063 z "},"Ǔ":{"ha":983,"x_min":115,"x_max":868,"o":"m 804 974 q 851 955 833 974 q 868 907 868 936 l 868 374 q 819 176 868 264 q 685 40 771 89 q 493 -10 600 -10 q 299 40 385 -10 q 164 176 213 89 q 115 374 115 264 l 115 907 q 135 955 115 936 q 185 974 154 974 q 231 954 211 974 q 251 907 251 935 l 251 374 q 285 244 251 301 q 374 154 318 186 q 493 122 429 122 q 617 154 560 122 q 708 244 674 186 q 742 374 742 301 l 742 907 q 758 955 742 936 q 804 974 775 974 m 647 1238 q 673 1228 663 1238 q 683 1208 683 1219 q 680 1193 683 1200 q 665 1175 676 1186 l 571 1069 q 540 1044 556 1053 q 501 1036 524 1036 l 482 1036 q 444 1044 460 1036 q 414 1069 428 1053 l 318 1175 q 306 1192 310 1185 q 301 1208 301 1200 q 311 1228 301 1219 q 336 1238 321 1238 q 393 1214 360 1238 l 493 1146 l 590 1214 q 647 1238 624 1238 z "},"Û":{"ha":983,"x_min":115,"x_max":868,"o":"m 804 974 q 851 955 833 974 q 868 907 868 936 l 868 374 q 819 176 868 264 q 685 40 771 89 q 493 -10 600 -10 q 299 40 385 -10 q 164 176 213 89 q 115 374 115 264 l 115 907 q 135 955 115 936 q 185 974 154 974 q 231 954 211 974 q 251 907 251 935 l 251 374 q 285 244 251 301 q 374 154 318 186 q 493 122 429 122 q 617 154 560 122 q 708 244 674 186 q 742 374 742 301 l 742 907 q 758 955 742 936 q 804 974 775 974 m 665 1103 q 682 1069 682 1085 q 672 1049 682 1058 q 647 1040 661 1040 q 622 1048 638 1040 q 590 1065 607 1056 l 489 1131 l 392 1065 q 360 1047 375 1054 q 335 1040 346 1040 q 310 1049 321 1040 q 300 1069 300 1058 q 304 1085 300 1078 q 317 1103 308 1093 l 413 1208 q 443 1234 428 1226 q 481 1242 458 1242 l 500 1242 q 538 1233 522 1242 q 569 1208 554 1225 l 665 1103 z "},"Ȕ":{"ha":983,"x_min":115,"x_max":868,"o":"m 804 974 q 851 955 833 974 q 868 907 868 936 l 868 374 q 819 176 868 264 q 685 40 771 89 q 493 -10 600 -10 q 299 40 385 -10 q 164 176 213 89 q 115 374 115 264 l 115 907 q 135 955 115 936 q 185 974 154 974 q 231 954 211 974 q 251 907 251 935 l 251 374 q 285 244 251 301 q 374 154 318 186 q 493 122 429 122 q 617 154 560 122 q 708 244 674 186 q 742 374 742 301 l 742 907 q 758 955 742 936 q 804 974 775 974 m 647 1054 q 617 1063 636 1054 l 479 1133 q 438 1194 438 1157 q 456 1235 438 1219 q 499 1251 475 1251 q 554 1228 525 1251 l 675 1126 q 693 1093 693 1110 q 681 1065 693 1076 q 647 1054 668 1054 m 383 1046 q 353 1056 369 1046 l 215 1126 q 174 1188 174 1147 q 192 1228 174 1211 q 233 1244 211 1244 q 290 1219 263 1244 l 411 1118 q 429 1086 429 1104 q 417 1057 429 1068 q 383 1046 404 1046 z "},"Ü":{"ha":983,"x_min":115,"x_max":868,"o":"m 804 974 q 851 955 833 974 q 868 907 868 936 l 868 374 q 819 176 868 264 q 685 40 771 89 q 493 -10 600 -10 q 299 40 385 -10 q 164 176 213 89 q 115 374 115 264 l 115 907 q 135 955 115 936 q 185 974 154 974 q 231 954 211 974 q 251 907 251 935 l 251 374 q 285 244 251 301 q 374 154 318 186 q 493 122 429 122 q 617 154 560 122 q 708 244 674 186 q 742 374 742 301 l 742 907 q 758 955 742 936 q 804 974 775 974 m 361 1064 q 307 1079 325 1064 q 289 1128 289 1094 l 289 1149 q 363 1211 289 1211 q 418 1197 400 1211 q 436 1149 436 1182 l 436 1128 q 418 1079 436 1094 q 361 1064 400 1064 m 622 1064 q 568 1079 586 1064 q 550 1128 550 1094 l 550 1149 q 568 1197 550 1182 q 622 1211 586 1211 q 679 1197 661 1211 q 697 1149 697 1182 l 697 1128 q 679 1079 697 1094 q 622 1064 661 1064 z "},"Ụ":{"ha":983,"x_min":115,"x_max":868,"o":"m 804 974 q 851 955 833 974 q 868 907 868 936 l 868 374 q 819 176 868 264 q 685 40 771 89 q 493 -10 600 -10 q 299 40 385 -10 q 164 176 213 89 q 115 374 115 264 l 115 907 q 135 955 115 936 q 185 974 154 974 q 231 954 211 974 q 251 907 251 935 l 251 374 q 285 244 251 301 q 374 154 318 186 q 493 122 429 122 q 617 154 560 122 q 708 244 674 186 q 742 374 742 301 l 742 907 q 758 955 742 936 q 804 974 775 974 m 492 -200 q 435 -185 453 -200 q 418 -136 418 -169 l 418 -115 q 492 -51 418 -51 q 551 -66 533 -51 q 568 -115 568 -81 l 568 -136 q 550 -185 568 -171 q 492 -200 532 -200 z "},"Ù":{"ha":983,"x_min":115,"x_max":868,"o":"m 804 974 q 851 955 833 974 q 868 907 868 936 l 868 374 q 819 176 868 264 q 685 40 771 89 q 493 -10 600 -10 q 299 40 385 -10 q 164 176 213 89 q 115 374 115 264 l 115 907 q 135 955 115 936 q 185 974 154 974 q 231 954 211 974 q 251 907 251 935 l 251 374 q 285 244 251 301 q 374 154 318 186 q 493 122 429 122 q 617 154 560 122 q 708 244 674 186 q 742 374 742 301 l 742 907 q 758 955 742 936 q 804 974 775 974 m 490 1033 q 458 1043 478 1033 l 321 1114 q 290 1141 301 1125 q 279 1175 279 1157 q 298 1215 279 1199 q 340 1232 317 1232 q 397 1207 367 1232 l 518 1106 q 535 1074 535 1092 q 523 1044 535 1056 q 490 1033 511 1033 z "},"Ủ":{"ha":983,"x_min":115,"x_max":868,"o":"m 804 974 q 851 955 833 974 q 868 907 868 936 l 868 374 q 819 176 868 264 q 685 40 771 89 q 493 -10 600 -10 q 299 40 385 -10 q 164 176 213 89 q 115 374 115 264 l 115 907 q 135 955 115 936 q 185 974 154 974 q 231 954 211 974 q 251 907 251 935 l 251 374 q 285 244 251 301 q 374 154 318 186 q 493 122 429 122 q 617 154 560 122 q 708 244 674 186 q 742 374 742 301 l 742 907 q 758 955 742 936 q 804 974 775 974 m 369 1275 q 476 1317 418 1317 q 577 1282 547 1317 q 607 1203 607 1247 q 599 1163 607 1181 q 572 1124 590 1144 q 544 1078 546 1094 q 532 1057 544 1064 q 500 1050 519 1050 q 476 1058 486 1050 q 465 1079 465 1065 q 488 1133 465 1107 q 514 1168 506 1154 q 522 1194 522 1182 q 508 1222 522 1211 q 474 1233 494 1233 q 414 1210 449 1233 q 390 1200 401 1200 q 361 1215 375 1200 q 351 1239 351 1225 q 369 1275 351 1257 z "},"Ư":{"ha":983,"x_min":115,"x_max":1028,"o":"m 1028 1067 q 988 938 1028 992 q 868 868 947 885 l 868 374 q 819 176 868 264 q 685 40 771 89 q 493 -10 600 -10 q 299 40 385 -10 q 164 176 213 89 q 115 374 115 264 l 115 907 q 135 955 115 936 q 185 974 154 974 q 231 954 211 974 q 251 907 251 935 l 251 374 q 285 244 251 301 q 374 154 318 186 q 493 122 429 122 q 617 154 560 122 q 708 244 674 186 q 742 374 742 301 l 742 907 q 758 955 742 936 q 804 974 775 974 l 814 974 q 917 1067 917 981 q 931 1111 917 1092 q 972 1131 946 1131 q 1015 1111 1001 1131 q 1028 1067 1028 1092 z "},"Ứ":{"ha":983,"x_min":115,"x_max":1028,"o":"m 1028 1067 q 988 938 1028 992 q 868 868 947 885 l 868 374 q 819 176 868 264 q 685 40 771 89 q 493 -10 600 -10 q 299 40 385 -10 q 164 176 213 89 q 115 374 115 264 l 115 907 q 135 955 115 936 q 185 974 154 974 q 231 954 211 974 q 251 907 251 935 l 251 374 q 285 244 251 301 q 374 154 318 186 q 493 122 429 122 q 617 154 560 122 q 708 244 674 186 q 742 374 742 301 l 742 907 q 758 955 742 936 q 804 974 775 974 l 814 974 q 917 1067 917 981 q 931 1111 917 1092 q 972 1131 946 1131 q 1015 1111 1001 1131 q 1028 1067 1028 1092 m 501 1031 q 469 1041 481 1031 q 457 1069 457 1051 q 474 1101 457 1088 l 596 1204 q 651 1228 625 1228 q 694 1211 675 1228 q 713 1171 713 1194 q 701 1136 713 1153 q 671 1110 690 1119 l 533 1039 q 501 1031 517 1031 z "},"Ự":{"ha":983,"x_min":115,"x_max":1028,"o":"m 1028 1067 q 988 938 1028 992 q 868 868 947 885 l 868 374 q 819 176 868 264 q 685 40 771 89 q 493 -10 600 -10 q 299 40 385 -10 q 164 176 213 89 q 115 374 115 264 l 115 907 q 135 955 115 936 q 185 974 154 974 q 231 954 211 974 q 251 907 251 935 l 251 374 q 285 244 251 301 q 374 154 318 186 q 493 122 429 122 q 617 154 560 122 q 708 244 674 186 q 742 374 742 301 l 742 907 q 758 955 742 936 q 804 974 775 974 l 814 974 q 917 1067 917 981 q 931 1111 917 1092 q 972 1131 946 1131 q 1015 1111 1001 1131 q 1028 1067 1028 1092 m 497 -200 q 441 -185 458 -200 q 424 -136 424 -169 l 424 -115 q 497 -51 424 -51 q 556 -66 539 -51 q 574 -115 574 -81 l 574 -136 q 556 -185 574 -171 q 497 -200 538 -200 z "},"Ừ":{"ha":983,"x_min":115,"x_max":1028,"o":"m 1028 1067 q 988 938 1028 992 q 868 868 947 885 l 868 374 q 819 176 868 264 q 685 40 771 89 q 493 -10 600 -10 q 299 40 385 -10 q 164 176 213 89 q 115 374 115 264 l 115 907 q 135 955 115 936 q 185 974 154 974 q 231 954 211 974 q 251 907 251 935 l 251 374 q 285 244 251 301 q 374 154 318 186 q 493 122 429 122 q 617 154 560 122 q 708 244 674 186 q 742 374 742 301 l 742 907 q 758 955 742 936 q 804 974 775 974 l 814 974 q 917 1067 917 981 q 931 1111 917 1092 q 972 1131 946 1131 q 1015 1111 1001 1131 q 1028 1067 1028 1092 m 499 1033 q 467 1043 486 1033 l 329 1114 q 299 1141 310 1125 q 288 1175 288 1157 q 306 1215 288 1199 q 349 1232 325 1232 q 406 1207 375 1232 l 526 1106 q 543 1074 543 1092 q 531 1044 543 1056 q 499 1033 519 1033 z "},"Ử":{"ha":983,"x_min":115,"x_max":1028,"o":"m 1028 1067 q 988 938 1028 992 q 868 868 947 885 l 868 374 q 819 176 868 264 q 685 40 771 89 q 493 -10 600 -10 q 299 40 385 -10 q 164 176 213 89 q 115 374 115 264 l 115 907 q 135 955 115 936 q 185 974 154 974 q 231 954 211 974 q 251 907 251 935 l 251 374 q 285 244 251 301 q 374 154 318 186 q 493 122 429 122 q 617 154 560 122 q 708 244 674 186 q 742 374 742 301 l 742 907 q 758 955 742 936 q 804 974 775 974 l 814 974 q 917 1067 917 981 q 931 1111 917 1092 q 972 1131 946 1131 q 1015 1111 1001 1131 q 1028 1067 1028 1092 m 378 1275 q 485 1317 426 1317 q 585 1282 556 1317 q 615 1203 615 1247 q 607 1163 615 1181 q 581 1124 599 1144 q 553 1078 554 1094 q 540 1057 553 1064 q 508 1050 528 1050 q 484 1058 494 1050 q 474 1079 474 1065 q 496 1133 474 1107 q 522 1168 514 1154 q 531 1194 531 1182 q 517 1222 531 1211 q 482 1233 503 1233 q 422 1210 457 1233 q 399 1200 410 1200 q 369 1215 383 1200 q 360 1239 360 1225 q 378 1275 360 1257 z "},"Ữ":{"ha":983,"x_min":115,"x_max":1028,"o":"m 1028 1067 q 988 938 1028 992 q 868 868 947 885 l 868 374 q 819 176 868 264 q 685 40 771 89 q 493 -10 600 -10 q 299 40 385 -10 q 164 176 213 89 q 115 374 115 264 l 115 907 q 135 955 115 936 q 185 974 154 974 q 231 954 211 974 q 251 907 251 935 l 251 374 q 285 244 251 301 q 374 154 318 186 q 493 122 429 122 q 617 154 560 122 q 708 244 674 186 q 742 374 742 301 l 742 907 q 758 955 742 936 q 804 974 775 974 l 814 974 q 917 1067 917 981 q 931 1111 917 1092 q 972 1131 946 1131 q 1015 1111 1001 1131 q 1028 1067 1028 1092 m 315 1042 q 274 1062 290 1042 q 258 1117 258 1082 q 297 1201 258 1167 q 399 1236 335 1236 q 460 1223 429 1236 q 529 1186 490 1210 q 577 1159 561 1167 q 607 1151 593 1151 q 634 1163 624 1151 q 643 1192 644 1174 q 642 1206 642 1197 q 653 1235 642 1224 q 683 1246 665 1246 q 726 1225 710 1246 q 742 1172 742 1204 q 708 1089 742 1126 q 618 1051 675 1051 q 552 1065 585 1051 q 476 1103 519 1079 q 431 1125 453 1115 q 396 1135 410 1135 q 368 1124 379 1135 q 357 1094 357 1114 q 358 1083 358 1090 q 346 1053 358 1064 q 315 1042 333 1042 z "},"Ű":{"ha":983,"x_min":115,"x_max":868,"o":"m 804 974 q 851 955 833 974 q 868 907 868 936 l 868 374 q 819 176 868 264 q 685 40 771 89 q 493 -10 600 -10 q 299 40 385 -10 q 164 176 213 89 q 115 374 115 264 l 115 907 q 135 955 115 936 q 185 974 154 974 q 231 954 211 974 q 251 907 251 935 l 251 374 q 285 244 251 301 q 374 154 318 186 q 493 122 429 122 q 617 154 560 122 q 708 244 674 186 q 742 374 742 301 l 742 907 q 758 955 742 936 q 804 974 775 974 z "},"Ȗ":{"ha":983,"x_min":115,"x_max":868,"o":"m 804 974 q 851 955 833 974 q 868 907 868 936 l 868 374 q 819 176 868 264 q 685 40 771 89 q 493 -10 600 -10 q 299 40 385 -10 q 164 176 213 89 q 115 374 115 264 l 115 907 q 135 955 115 936 q 185 974 154 974 q 231 954 211 974 q 251 907 251 935 l 251 374 q 285 244 251 301 q 374 154 318 186 q 493 122 429 122 q 617 154 560 122 q 708 244 674 186 q 742 374 742 301 l 742 907 q 758 955 742 936 q 804 974 775 974 m 492 1253 q 622 1217 567 1253 q 694 1121 678 1181 q 699 1099 699 1108 q 688 1070 699 1081 q 658 1060 676 1060 q 622 1070 636 1060 q 593 1103 608 1081 q 492 1154 565 1154 q 429 1141 456 1154 q 390 1103 403 1128 q 361 1070 375 1081 q 324 1060 347 1060 q 294 1070 306 1060 q 283 1097 283 1081 q 288 1118 283 1108 q 361 1216 306 1179 q 492 1253 417 1253 z "},"Ū":{"ha":983,"x_min":115,"x_max":868,"o":"m 804 974 q 851 955 833 974 q 868 907 868 936 l 868 374 q 819 176 868 264 q 685 40 771 89 q 493 -10 600 -10 q 299 40 385 -10 q 164 176 213 89 q 115 374 115 264 l 115 907 q 135 955 115 936 q 185 974 154 974 q 231 954 211 974 q 251 907 251 935 l 251 374 q 285 244 251 301 q 374 154 318 186 q 493 122 429 122 q 617 154 560 122 q 708 244 674 186 q 742 374 742 301 l 742 907 q 758 955 742 936 q 804 974 775 974 m 322 1063 q 280 1076 294 1063 q 265 1114 265 1089 q 322 1164 265 1164 l 667 1164 q 724 1114 724 1164 q 709 1076 724 1089 q 667 1063 694 1063 l 322 1063 z "},"Ṻ":{"ha":983,"x_min":115,"x_max":868,"o":"m 804 974 q 851 955 833 974 q 868 907 868 936 l 868 374 q 819 176 868 264 q 685 40 771 89 q 493 -10 600 -10 q 299 40 385 -10 q 164 176 213 89 q 115 374 115 264 l 115 907 q 135 955 115 936 q 185 974 154 974 q 231 954 211 974 q 251 907 251 935 l 251 374 q 285 244 251 301 q 374 154 318 186 q 493 122 429 122 q 617 154 560 122 q 708 244 674 186 q 742 374 742 301 l 742 907 q 758 955 742 936 q 804 974 775 974 m 322 1063 q 280 1076 294 1063 q 265 1114 265 1089 q 322 1164 265 1164 l 667 1164 q 724 1114 724 1164 q 709 1076 724 1089 q 667 1063 694 1063 l 322 1063 m 361 1290 q 307 1306 325 1290 q 289 1354 289 1321 l 289 1375 q 363 1438 289 1438 q 418 1423 400 1438 q 436 1375 436 1408 l 436 1354 q 418 1306 436 1321 q 361 1290 400 1290 m 622 1290 q 568 1306 586 1290 q 550 1354 550 1321 l 550 1375 q 568 1423 550 1408 q 622 1438 586 1438 q 679 1423 661 1438 q 697 1375 697 1408 l 697 1354 q 679 1306 697 1321 q 622 1290 661 1290 z "},"Ų":{"ha":983,"x_min":115,"x_max":868,"o":"m 804 974 q 851 955 833 974 q 868 907 868 936 l 868 374 q 826 188 868 278 q 704 51 785 99 q 565 -111 565 -36 q 581 -157 565 -140 q 619 -174 597 -174 q 653 -157 640 -174 q 701 -133 669 -133 q 736 -147 722 -133 q 750 -185 750 -161 q 730 -228 750 -206 q 676 -264 710 -250 q 607 -278 643 -278 q 498 -241 542 -278 q 454 -136 454 -204 q 499 -10 454 -68 l 493 -10 q 299 40 385 -10 q 164 176 213 89 q 115 374 115 264 l 115 907 q 135 955 115 936 q 185 974 154 974 q 233 955 215 974 q 251 907 251 936 l 251 374 q 285 244 251 301 q 374 154 318 186 q 493 122 429 122 q 617 154 560 122 q 708 244 674 186 q 742 374 742 301 l 742 907 q 760 954 742 935 q 804 974 779 974 z "},"Ů":{"ha":983,"x_min":115,"x_max":868,"o":"m 804 974 q 851 955 833 974 q 868 907 868 936 l 868 374 q 819 176 868 264 q 685 40 771 89 q 493 -10 600 -10 q 299 40 385 -10 q 164 176 213 89 q 115 374 115 264 l 115 907 q 135 955 115 936 q 185 974 154 974 q 231 954 211 974 q 251 907 251 935 l 251 374 q 285 244 251 301 q 374 154 318 186 q 493 122 429 122 q 617 154 560 122 q 708 244 674 186 q 742 374 742 301 l 742 907 q 758 955 742 936 q 804 974 775 974 m 493 1038 q 388 1081 433 1038 q 342 1182 342 1124 q 388 1286 342 1243 q 493 1329 433 1329 q 599 1286 554 1329 q 644 1182 644 1243 q 599 1081 644 1124 q 493 1038 554 1038 m 493 1118 q 542 1137 522 1118 q 563 1182 563 1156 q 542 1231 563 1213 q 493 1249 521 1249 q 444 1230 464 1249 q 424 1182 424 1211 q 444 1137 424 1156 q 493 1118 464 1118 z "},"Ũ":{"ha":983,"x_min":115,"x_max":868,"o":"m 804 974 q 851 955 833 974 q 868 907 868 936 l 868 374 q 819 176 868 264 q 685 40 771 89 q 493 -10 600 -10 q 299 40 385 -10 q 164 176 213 89 q 115 374 115 264 l 115 907 q 135 955 115 936 q 185 974 154 974 q 231 954 211 974 q 251 907 251 935 l 251 374 q 285 244 251 301 q 374 154 318 186 q 493 122 429 122 q 617 154 560 122 q 708 244 674 186 q 742 374 742 301 l 742 907 q 758 955 742 936 q 804 974 775 974 m 307 1042 q 266 1062 282 1042 q 250 1117 250 1082 q 288 1201 250 1167 q 390 1236 326 1236 q 451 1223 421 1236 q 521 1186 482 1210 q 569 1159 553 1167 q 599 1151 585 1151 q 626 1163 615 1151 q 635 1192 636 1174 q 633 1206 633 1197 q 645 1235 633 1224 q 675 1246 657 1246 q 717 1225 701 1246 q 733 1172 733 1204 q 700 1089 733 1126 q 610 1051 667 1051 q 544 1065 576 1051 q 468 1103 511 1079 q 423 1125 444 1115 q 388 1135 401 1135 q 360 1124 371 1135 q 349 1094 349 1114 q 350 1083 350 1090 q 338 1053 350 1064 q 307 1042 325 1042 z "},"Ṹ":{"ha":983,"x_min":115,"x_max":868,"o":"m 804 974 q 851 955 833 974 q 868 907 868 936 l 868 374 q 819 176 868 264 q 685 40 771 89 q 493 -10 600 -10 q 299 40 385 -10 q 164 176 213 89 q 115 374 115 264 l 115 907 q 135 955 115 936 q 185 974 154 974 q 231 954 211 974 q 251 907 251 935 l 251 374 q 285 244 251 301 q 374 154 318 186 q 493 122 429 122 q 617 154 560 122 q 708 244 674 186 q 742 374 742 301 l 742 907 q 758 955 742 936 q 804 974 775 974 m 307 1042 q 266 1062 282 1042 q 250 1117 250 1082 q 288 1201 250 1167 q 390 1236 326 1236 q 451 1223 421 1236 q 521 1186 482 1210 q 569 1159 553 1167 q 599 1151 585 1151 q 626 1163 615 1151 q 635 1192 636 1174 q 633 1206 633 1197 q 645 1235 633 1224 q 675 1246 657 1246 q 717 1225 701 1246 q 733 1172 733 1204 q 700 1089 733 1126 q 610 1051 667 1051 q 544 1065 576 1051 q 468 1103 511 1079 q 423 1125 444 1115 q 388 1135 401 1135 q 360 1124 371 1135 q 349 1094 349 1114 q 350 1083 350 1090 q 338 1053 350 1064 q 307 1042 325 1042 m 494 1317 q 462 1327 474 1317 q 450 1356 450 1338 q 467 1388 450 1374 l 589 1490 q 644 1514 618 1514 q 687 1497 668 1514 q 706 1457 706 1481 q 694 1422 706 1439 q 664 1396 683 1406 l 526 1325 q 494 1317 510 1317 z "},"V":{"ha":933,"x_min":44,"x_max":890,"o":"m 822 974 q 870 956 850 974 q 890 911 890 938 q 883 881 890 897 l 529 43 q 501 11 519 22 q 464 0 483 0 q 430 12 446 1 q 404 42 414 22 l 50 881 q 44 910 44 892 q 65 957 44 939 q 111 975 86 975 q 172 931 153 975 l 475 215 l 761 932 q 787 963 771 951 q 822 974 803 974 z "},"W":{"ha":1324,"x_min":31,"x_max":1293,"o":"m 1222 976 q 1271 957 1249 976 q 1293 906 1293 938 q 1289 882 1293 894 l 1001 42 q 978 12 996 22 q 942 0 961 1 q 904 11 922 0 q 878 43 886 22 l 661 550 l 446 43 q 419 11 438 22 q 381 0 401 0 q 344 13 361 1 q 322 42 328 24 l 35 882 q 31 906 31 894 q 53 956 31 936 q 103 976 76 976 q 143 965 125 976 q 167 933 161 953 l 401 238 l 603 732 q 628 763 611 751 q 665 774 644 774 q 703 763 686 774 q 728 732 719 751 l 924 238 l 1157 933 q 1181 965 1163 954 q 1222 976 1199 976 z "},"Ẃ":{"ha":1324,"x_min":31,"x_max":1293,"o":"m 1222 976 q 1271 957 1249 976 q 1293 906 1293 938 q 1289 882 1293 894 l 1001 42 q 978 12 996 22 q 942 0 961 1 q 904 11 922 0 q 878 43 886 22 l 661 550 l 446 43 q 419 11 438 22 q 381 0 401 0 q 344 13 361 1 q 322 42 328 24 l 35 882 q 31 906 31 894 q 53 956 31 936 q 103 976 76 976 q 143 965 125 976 q 167 933 161 953 l 401 238 l 603 732 q 628 763 611 751 q 665 774 644 774 q 703 763 686 774 q 728 732 719 751 l 924 238 l 1157 933 q 1181 965 1163 954 q 1222 976 1199 976 m 664 1031 q 631 1041 643 1031 q 619 1069 619 1051 q 636 1101 619 1088 l 758 1204 q 814 1228 788 1228 q 856 1211 838 1228 q 875 1171 875 1194 q 864 1136 875 1153 q 833 1110 853 1119 l 696 1039 q 664 1031 679 1031 z "},"Ŵ":{"ha":1324,"x_min":31,"x_max":1293,"o":"m 1222 976 q 1271 957 1249 976 q 1293 906 1293 938 q 1289 882 1293 894 l 1001 42 q 978 12 996 22 q 942 0 961 1 q 904 11 922 0 q 878 43 886 22 l 661 550 l 446 43 q 419 11 438 22 q 381 0 401 0 q 344 13 361 1 q 322 42 328 24 l 35 882 q 31 906 31 894 q 53 956 31 936 q 103 976 76 976 q 143 965 125 976 q 167 933 161 953 l 401 238 l 603 732 q 628 763 611 751 q 665 774 644 774 q 703 763 686 774 q 728 732 719 751 l 924 238 l 1157 933 q 1181 965 1163 954 q 1222 976 1199 976 m 835 1103 q 851 1069 851 1085 q 841 1049 851 1058 q 817 1040 831 1040 q 792 1048 807 1040 q 760 1065 776 1056 l 658 1131 l 561 1065 q 530 1047 544 1054 q 504 1040 515 1040 q 480 1049 490 1040 q 469 1069 469 1058 q 474 1085 469 1078 q 486 1103 478 1093 l 582 1208 q 613 1234 597 1226 q 650 1242 628 1242 l 669 1242 q 708 1233 692 1242 q 739 1208 724 1225 l 835 1103 z "},"Ẅ":{"ha":1324,"x_min":31,"x_max":1293,"o":"m 1222 976 q 1271 957 1249 976 q 1293 906 1293 938 q 1289 882 1293 894 l 1001 42 q 978 12 996 22 q 942 0 961 1 q 904 11 922 0 q 878 43 886 22 l 661 550 l 446 43 q 419 11 438 22 q 381 0 401 0 q 344 13 361 1 q 322 42 328 24 l 35 882 q 31 906 31 894 q 53 956 31 936 q 103 976 76 976 q 143 965 125 976 q 167 933 161 953 l 401 238 l 603 732 q 628 763 611 751 q 665 774 644 774 q 703 763 686 774 q 728 732 719 751 l 924 238 l 1157 933 q 1181 965 1163 954 q 1222 976 1199 976 m 531 1064 q 476 1079 494 1064 q 458 1128 458 1094 l 458 1149 q 532 1211 458 1211 q 588 1197 569 1211 q 606 1149 606 1182 l 606 1128 q 588 1079 606 1094 q 531 1064 569 1064 m 792 1064 q 738 1079 756 1064 q 719 1128 719 1094 l 719 1149 q 738 1197 719 1182 q 792 1211 756 1211 q 849 1197 831 1211 q 867 1149 867 1182 l 867 1128 q 849 1079 867 1094 q 792 1064 831 1064 z "},"Ẁ":{"ha":1324,"x_min":31,"x_max":1293,"o":"m 1222 976 q 1271 957 1249 976 q 1293 906 1293 938 q 1289 882 1293 894 l 1001 42 q 978 12 996 22 q 942 0 961 1 q 904 11 922 0 q 878 43 886 22 l 661 550 l 446 43 q 419 11 438 22 q 381 0 401 0 q 344 13 361 1 q 322 42 328 24 l 35 882 q 31 906 31 894 q 53 956 31 936 q 103 976 76 976 q 143 965 125 976 q 167 933 161 953 l 401 238 l 603 732 q 628 763 611 751 q 665 774 644 774 q 703 763 686 774 q 728 732 719 751 l 924 238 l 1157 933 q 1181 965 1163 954 q 1222 976 1199 976 m 660 1033 q 628 1043 647 1033 l 490 1114 q 460 1141 471 1125 q 449 1175 449 1157 q 467 1215 449 1199 q 510 1232 486 1232 q 567 1207 536 1232 l 688 1106 q 704 1074 704 1092 q 692 1044 704 1056 q 660 1033 681 1033 z "},"X":{"ha":881,"x_min":57,"x_max":825,"o":"m 811 100 q 824 60 824 83 q 803 13 824 31 q 758 -6 783 -6 q 704 22 724 -6 l 435 383 l 171 24 q 117 -6 150 -6 q 74 12 92 -6 q 57 51 57 29 q 74 97 57 75 l 358 485 l 72 869 q 58 910 58 888 q 78 957 58 938 q 125 976 99 976 q 155 969 140 976 q 179 949 169 963 l 446 590 l 710 944 q 763 975 733 975 q 806 956 788 975 q 825 914 825 938 q 811 874 825 893 l 522 488 l 811 100 z "},"Y":{"ha":807,"x_min":25,"x_max":783,"o":"m 783 910 q 771 868 783 889 l 472 447 l 472 67 q 453 19 472 39 q 408 0 435 0 q 361 19 381 0 q 342 67 342 39 l 342 458 l 44 860 q 25 910 25 885 q 47 957 25 938 q 96 976 69 976 q 150 946 128 976 l 411 585 l 663 944 q 718 976 685 976 q 764 957 744 976 q 783 910 783 938 z "},"Ý":{"ha":807,"x_min":25,"x_max":783,"o":"m 783 910 q 771 868 783 889 l 472 447 l 472 67 q 453 19 472 39 q 408 0 435 0 q 361 19 381 0 q 342 67 342 39 l 342 458 l 44 860 q 25 910 25 885 q 47 957 25 938 q 96 976 69 976 q 150 946 128 976 l 411 585 l 663 944 q 718 976 685 976 q 764 957 744 976 q 783 910 783 938 m 406 1031 q 373 1041 385 1031 q 361 1069 361 1051 q 378 1101 361 1088 l 500 1204 q 556 1228 529 1228 q 598 1211 579 1228 q 617 1171 617 1194 q 606 1136 617 1153 q 575 1110 594 1119 l 438 1039 q 406 1031 421 1031 z "},"Ŷ":{"ha":807,"x_min":25,"x_max":783,"o":"m 783 910 q 771 868 783 889 l 472 447 l 472 67 q 453 19 472 39 q 408 0 435 0 q 361 19 381 0 q 342 67 342 39 l 342 458 l 44 860 q 25 910 25 885 q 47 957 25 938 q 96 976 69 976 q 150 946 128 976 l 411 585 l 663 944 q 718 976 685 976 q 764 957 744 976 q 783 910 783 938 m 576 1103 q 593 1069 593 1085 q 583 1049 593 1058 q 558 1040 572 1040 q 533 1048 549 1040 q 501 1065 518 1056 l 400 1131 l 303 1065 q 272 1047 286 1054 q 246 1040 257 1040 q 222 1049 232 1040 q 211 1069 211 1058 q 215 1085 211 1078 q 228 1103 219 1093 l 324 1208 q 354 1234 339 1226 q 392 1242 369 1242 l 411 1242 q 449 1233 433 1242 q 481 1208 465 1225 l 576 1103 z "},"Ÿ":{"ha":807,"x_min":25,"x_max":783,"o":"m 783 910 q 771 868 783 889 l 472 447 l 472 67 q 453 19 472 39 q 408 0 435 0 q 361 19 381 0 q 342 67 342 39 l 342 458 l 44 860 q 25 910 25 885 q 47 957 25 938 q 96 976 69 976 q 150 946 128 976 l 411 585 l 663 944 q 718 976 685 976 q 764 957 744 976 q 783 910 783 938 m 271 1064 q 217 1079 235 1064 q 199 1128 199 1094 l 199 1149 q 272 1211 199 1211 q 328 1197 310 1211 q 346 1149 346 1182 l 346 1128 q 328 1079 346 1094 q 271 1064 310 1064 m 532 1064 q 478 1079 496 1064 q 460 1128 460 1094 l 460 1149 q 478 1197 460 1182 q 532 1211 496 1211 q 589 1197 571 1211 q 607 1149 607 1182 l 607 1128 q 589 1079 607 1094 q 532 1064 571 1064 z "},"Ẏ":{"ha":807,"x_min":25,"x_max":783,"o":"m 783 910 q 771 868 783 889 l 472 447 l 472 67 q 453 19 472 39 q 408 0 435 0 q 361 19 381 0 q 342 67 342 39 l 342 458 l 44 860 q 25 910 25 885 q 47 957 25 938 q 96 976 69 976 q 150 946 128 976 l 411 585 l 663 944 q 718 976 685 976 q 764 957 744 976 q 783 910 783 938 m 401 1046 q 345 1060 363 1046 q 328 1108 328 1075 l 328 1131 q 347 1178 328 1164 q 403 1193 365 1193 q 460 1178 443 1193 q 478 1131 478 1164 l 478 1108 q 460 1060 478 1075 q 401 1046 442 1046 z "},"Ỵ":{"ha":807,"x_min":25,"x_max":783,"o":"m 783 910 q 771 868 783 889 l 472 447 l 472 67 q 453 19 472 39 q 408 0 435 0 q 361 19 381 0 q 342 67 342 39 l 342 458 l 44 860 q 25 910 25 885 q 47 957 25 938 q 96 976 69 976 q 150 946 128 976 l 411 585 l 663 944 q 718 976 685 976 q 764 957 744 976 q 783 910 783 938 m 407 -201 q 351 -186 368 -201 q 333 -137 333 -171 l 333 -117 q 407 -53 333 -53 q 466 -67 449 -53 q 483 -117 483 -82 l 483 -137 q 465 -187 483 -172 q 407 -201 447 -201 z "},"Ỳ":{"ha":807,"x_min":25,"x_max":783,"o":"m 783 910 q 771 868 783 889 l 472 447 l 472 67 q 453 19 472 39 q 408 0 435 0 q 361 19 381 0 q 342 67 342 39 l 342 458 l 44 860 q 25 910 25 885 q 47 957 25 938 q 96 976 69 976 q 150 946 128 976 l 411 585 l 663 944 q 718 976 685 976 q 764 957 744 976 q 783 910 783 938 m 401 1033 q 369 1043 389 1033 l 232 1114 q 201 1141 213 1125 q 190 1175 190 1157 q 209 1215 190 1199 q 251 1232 228 1232 q 308 1207 278 1232 l 429 1106 q 446 1074 446 1092 q 434 1044 446 1056 q 401 1033 422 1033 z "},"Ỷ":{"ha":807,"x_min":25,"x_max":783,"o":"m 783 910 q 771 868 783 889 l 472 447 l 472 67 q 453 19 472 39 q 408 0 435 0 q 361 19 381 0 q 342 67 342 39 l 342 458 l 44 860 q 25 910 25 885 q 47 957 25 938 q 96 976 69 976 q 150 946 128 976 l 411 585 l 663 944 q 718 976 685 976 q 764 957 744 976 q 783 910 783 938 m 281 1275 q 388 1317 329 1317 q 488 1282 458 1317 q 518 1203 518 1247 q 510 1163 518 1181 q 483 1124 501 1144 q 456 1078 457 1094 q 443 1057 456 1064 q 411 1050 431 1050 q 387 1058 397 1050 q 376 1079 376 1065 q 399 1133 376 1107 q 425 1168 417 1154 q 433 1194 433 1182 q 419 1222 433 1211 q 385 1233 406 1233 q 325 1210 360 1233 q 301 1200 313 1200 q 272 1215 286 1200 q 263 1239 263 1225 q 281 1275 263 1257 z "},"Ȳ":{"ha":807,"x_min":25,"x_max":783,"o":"m 783 910 q 771 868 783 889 l 472 447 l 472 67 q 453 19 472 39 q 408 0 435 0 q 361 19 381 0 q 342 67 342 39 l 342 458 l 44 860 q 25 910 25 885 q 47 957 25 938 q 96 976 69 976 q 150 946 128 976 l 411 585 l 663 944 q 718 976 685 976 q 764 957 744 976 q 783 910 783 938 m 233 1063 q 191 1076 206 1063 q 176 1114 176 1089 q 233 1164 176 1164 l 578 1164 q 635 1114 635 1164 q 620 1076 635 1089 q 578 1063 606 1063 l 233 1063 z "},"Ỹ":{"ha":807,"x_min":25,"x_max":783,"o":"m 783 910 q 771 868 783 889 l 472 447 l 472 67 q 453 19 472 39 q 408 0 435 0 q 361 19 381 0 q 342 67 342 39 l 342 458 l 44 860 q 25 910 25 885 q 47 957 25 938 q 96 976 69 976 q 150 946 128 976 l 411 585 l 663 944 q 718 976 685 976 q 764 957 744 976 q 783 910 783 938 m 218 1042 q 177 1062 193 1042 q 161 1117 161 1082 q 199 1201 161 1167 q 301 1236 238 1236 q 363 1223 332 1236 q 432 1186 393 1210 q 480 1159 464 1167 q 510 1151 496 1151 q 537 1163 526 1151 q 546 1192 547 1174 q 544 1206 544 1197 q 556 1235 544 1224 q 586 1246 568 1246 q 628 1225 613 1246 q 644 1172 644 1204 q 611 1089 644 1126 q 521 1051 578 1051 q 455 1065 488 1051 q 379 1103 422 1079 q 334 1125 356 1115 q 299 1135 313 1135 q 271 1124 282 1135 q 260 1094 260 1114 q 261 1083 261 1090 q 249 1053 261 1064 q 218 1042 236 1042 z "},"Z":{"ha":897,"x_min":60,"x_max":843,"o":"m 763 126 q 810 109 792 126 q 829 64 829 92 q 810 18 829 36 q 763 0 790 0 l 129 0 q 80 20 100 0 q 60 65 60 40 q 75 107 60 88 l 642 846 l 176 846 q 128 864 147 846 q 110 910 110 882 q 128 955 110 938 q 176 972 147 972 l 771 972 q 821 953 799 972 q 843 907 843 935 q 828 865 843 888 l 261 126 l 763 126 z "},"Ź":{"ha":897,"x_min":60,"x_max":843,"o":"m 763 126 q 810 109 792 126 q 829 64 829 92 q 810 18 829 36 q 763 0 790 0 l 129 0 q 80 20 100 0 q 60 65 60 40 q 75 107 60 88 l 642 846 l 176 846 q 128 864 147 846 q 110 910 110 882 q 128 955 110 938 q 176 972 147 972 l 771 972 q 821 953 799 972 q 843 907 843 935 q 828 865 843 888 l 261 126 l 763 126 m 451 1031 q 419 1041 431 1031 q 407 1069 407 1051 q 424 1101 407 1088 l 546 1204 q 601 1228 575 1228 q 644 1211 625 1228 q 663 1171 663 1194 q 651 1136 663 1153 q 621 1110 640 1119 l 483 1039 q 451 1031 467 1031 z "},"Ž":{"ha":897,"x_min":60,"x_max":843,"o":"m 763 126 q 810 109 792 126 q 829 64 829 92 q 810 18 829 36 q 763 0 790 0 l 129 0 q 80 20 100 0 q 60 65 60 40 q 75 107 60 88 l 642 846 l 176 846 q 128 864 147 846 q 110 910 110 882 q 128 955 110 938 q 176 972 147 972 l 771 972 q 821 953 799 972 q 843 907 843 935 q 828 865 843 888 l 261 126 l 763 126 m 604 1238 q 630 1228 619 1238 q 640 1208 640 1219 q 637 1193 640 1200 q 622 1175 633 1186 l 528 1069 q 497 1044 513 1053 q 458 1036 481 1036 l 439 1036 q 401 1044 417 1036 q 371 1069 385 1053 l 275 1175 q 263 1192 267 1185 q 258 1208 258 1200 q 268 1228 258 1219 q 293 1238 278 1238 q 350 1214 317 1238 l 450 1146 l 547 1214 q 604 1238 581 1238 z "},"Ż":{"ha":897,"x_min":60,"x_max":843,"o":"m 763 126 q 810 109 792 126 q 829 64 829 92 q 810 18 829 36 q 763 0 790 0 l 129 0 q 80 20 100 0 q 60 65 60 40 q 75 107 60 88 l 642 846 l 176 846 q 128 864 147 846 q 110 910 110 882 q 128 955 110 938 q 176 972 147 972 l 771 972 q 821 953 799 972 q 843 907 843 935 q 828 865 843 888 l 261 126 l 763 126 m 447 1046 q 391 1060 408 1046 q 374 1108 374 1075 l 374 1131 q 392 1178 374 1164 q 449 1193 411 1193 q 506 1178 489 1193 q 524 1131 524 1164 l 524 1108 q 506 1060 524 1075 q 447 1046 488 1046 z "},"Ẓ":{"ha":897,"x_min":60,"x_max":843,"o":"m 763 126 q 810 109 792 126 q 829 64 829 92 q 810 18 829 36 q 763 0 790 0 l 129 0 q 80 20 100 0 q 60 65 60 40 q 75 107 60 88 l 642 846 l 176 846 q 128 864 147 846 q 110 910 110 882 q 128 955 110 938 q 176 972 147 972 l 771 972 q 821 953 799 972 q 843 907 843 935 q 828 865 843 888 l 261 126 l 763 126 m 447 -200 q 391 -185 408 -200 q 374 -136 374 -169 l 374 -115 q 447 -51 374 -51 q 506 -66 489 -51 q 524 -115 524 -81 l 524 -136 q 506 -185 524 -171 q 447 -200 488 -200 z "},"a":{"ha":853,"x_min":54,"x_max":756,"o":"m 689 738 q 737 719 718 738 q 756 669 756 700 l 756 67 q 737 19 756 39 q 689 0 718 0 q 642 19 660 0 q 624 67 624 38 l 624 103 q 525 20 588 54 q 390 -14 463 -14 q 219 35 296 -14 q 98 170 142 83 q 54 365 54 257 q 98 560 54 474 q 218 696 142 647 q 386 744 294 744 q 523 714 460 744 q 624 636 586 683 l 624 669 q 642 718 624 699 q 689 738 660 738 m 406 108 q 522 142 471 108 q 601 233 572 175 q 629 365 629 292 q 601 496 629 438 q 522 588 572 554 q 406 622 471 622 q 290 589 340 622 q 210 497 239 556 q 182 365 182 439 q 210 233 182 292 q 290 142 239 175 q 406 108 340 108 z "},"á":{"ha":853,"x_min":54,"x_max":756,"o":"m 689 738 q 737 719 718 738 q 756 669 756 700 l 756 67 q 737 19 756 39 q 689 0 718 0 q 642 19 660 0 q 624 67 624 38 l 624 103 q 525 20 588 54 q 390 -14 463 -14 q 219 35 296 -14 q 98 170 142 83 q 54 365 54 257 q 98 560 54 474 q 218 696 142 647 q 386 744 294 744 q 523 714 460 744 q 624 636 586 683 l 624 669 q 642 718 624 699 q 689 738 660 738 m 406 108 q 522 142 471 108 q 601 233 572 175 q 629 365 629 292 q 601 496 629 438 q 522 588 572 554 q 406 622 471 622 q 290 589 340 622 q 210 497 239 556 q 182 365 182 439 q 210 233 182 292 q 290 142 239 175 q 406 108 340 108 z "},"ă":{"ha":853,"x_min":54,"x_max":756,"o":"m 689 738 q 737 719 718 738 q 756 669 756 700 l 756 67 q 737 19 756 39 q 689 0 718 0 q 642 19 660 0 q 624 67 624 38 l 624 103 q 525 20 588 54 q 390 -14 463 -14 q 219 35 296 -14 q 98 170 142 83 q 54 365 54 257 q 98 560 54 474 q 218 696 142 647 q 386 744 294 744 q 523 714 460 744 q 624 636 586 683 l 624 669 q 642 718 624 699 q 689 738 660 738 m 406 108 q 522 142 471 108 q 601 233 572 175 q 629 365 629 292 q 601 496 629 438 q 522 588 572 554 q 406 622 471 622 q 290 589 340 622 q 210 497 239 556 q 182 365 182 439 q 210 233 182 292 q 290 142 239 175 q 406 108 340 108 z "},"ắ":{"ha":853,"x_min":54,"x_max":756,"o":"m 689 738 q 737 719 718 738 q 756 669 756 700 l 756 67 q 737 19 756 39 q 689 0 718 0 q 642 19 660 0 q 624 67 624 38 l 624 103 q 525 20 588 54 q 390 -14 463 -14 q 219 35 296 -14 q 98 170 142 83 q 54 365 54 257 q 98 560 54 474 q 218 696 142 647 q 386 744 294 744 q 523 714 460 744 q 624 636 586 683 l 624 669 q 642 718 624 699 q 689 738 660 738 m 406 108 q 522 142 471 108 q 601 233 572 175 q 629 365 629 292 q 601 496 629 438 q 522 588 572 554 q 406 622 471 622 q 290 589 340 622 q 210 497 239 556 q 182 365 182 439 q 210 233 182 292 q 290 142 239 175 q 406 108 340 108 z "},"ặ":{"ha":853,"x_min":54,"x_max":756,"o":"m 689 738 q 737 719 718 738 q 756 669 756 700 l 756 67 q 737 19 756 39 q 689 0 718 0 q 642 19 660 0 q 624 67 624 38 l 624 103 q 525 20 588 54 q 390 -14 463 -14 q 219 35 296 -14 q 98 170 142 83 q 54 365 54 257 q 98 560 54 474 q 218 696 142 647 q 386 744 294 744 q 523 714 460 744 q 624 636 586 683 l 624 669 q 642 718 624 699 q 689 738 660 738 m 406 108 q 522 142 471 108 q 601 233 572 175 q 629 365 629 292 q 601 496 629 438 q 522 588 572 554 q 406 622 471 622 q 290 589 340 622 q 210 497 239 556 q 182 365 182 439 q 210 233 182 292 q 290 142 239 175 q 406 108 340 108 m 417 -210 q 360 -195 378 -210 q 343 -147 343 -181 l 343 -126 q 417 -64 343 -64 q 476 -78 458 -64 q 493 -126 493 -93 l 493 -147 q 475 -195 493 -181 q 417 -210 457 -210 z "},"ằ":{"ha":853,"x_min":54,"x_max":756,"o":"m 689 738 q 737 719 718 738 q 756 669 756 700 l 756 67 q 737 19 756 39 q 689 0 718 0 q 642 19 660 0 q 624 67 624 38 l 624 103 q 525 20 588 54 q 390 -14 463 -14 q 219 35 296 -14 q 98 170 142 83 q 54 365 54 257 q 98 560 54 474 q 218 696 142 647 q 386 744 294 744 q 523 714 460 744 q 624 636 586 683 l 624 669 q 642 718 624 699 q 689 738 660 738 m 406 108 q 522 142 471 108 q 601 233 572 175 q 629 365 629 292 q 601 496 629 438 q 522 588 572 554 q 406 622 471 622 q 290 589 340 622 q 210 497 239 556 q 182 365 182 439 q 210 233 182 292 q 290 142 239 175 q 406 108 340 108 z "},"ẳ":{"ha":853,"x_min":54,"x_max":756,"o":"m 689 738 q 737 719 718 738 q 756 669 756 700 l 756 67 q 737 19 756 39 q 689 0 718 0 q 642 19 660 0 q 624 67 624 38 l 624 103 q 525 20 588 54 q 390 -14 463 -14 q 219 35 296 -14 q 98 170 142 83 q 54 365 54 257 q 98 560 54 474 q 218 696 142 647 q 386 744 294 744 q 523 714 460 744 q 624 636 586 683 l 624 669 q 642 718 624 699 q 689 738 660 738 m 406 108 q 522 142 471 108 q 601 233 572 175 q 629 365 629 292 q 601 496 629 438 q 522 588 572 554 q 406 622 471 622 q 290 589 340 622 q 210 497 239 556 q 182 365 182 439 q 210 233 182 292 q 290 142 239 175 q 406 108 340 108 z "},"ẵ":{"ha":853,"x_min":54,"x_max":756,"o":"m 689 738 q 737 719 718 738 q 756 669 756 700 l 756 67 q 737 19 756 39 q 689 0 718 0 q 642 19 660 0 q 624 67 624 38 l 624 103 q 525 20 588 54 q 390 -14 463 -14 q 219 35 296 -14 q 98 170 142 83 q 54 365 54 257 q 98 560 54 474 q 218 696 142 647 q 386 744 294 744 q 523 714 460 744 q 624 636 586 683 l 624 669 q 642 718 624 699 q 689 738 660 738 m 406 108 q 522 142 471 108 q 601 233 572 175 q 629 365 629 292 q 601 496 629 438 q 522 588 572 554 q 406 622 471 622 q 290 589 340 622 q 210 497 239 556 q 182 365 182 439 q 210 233 182 292 q 290 142 239 175 q 406 108 340 108 z "},"ǎ":{"ha":853,"x_min":54,"x_max":756,"o":"m 689 738 q 737 719 718 738 q 756 669 756 700 l 756 67 q 737 19 756 39 q 689 0 718 0 q 642 19 660 0 q 624 67 624 38 l 624 103 q 525 20 588 54 q 390 -14 463 -14 q 219 35 296 -14 q 98 170 142 83 q 54 365 54 257 q 98 560 54 474 q 218 696 142 647 q 386 744 294 744 q 523 714 460 744 q 624 636 586 683 l 624 669 q 642 718 624 699 q 689 738 660 738 m 406 108 q 522 142 471 108 q 601 233 572 175 q 629 365 629 292 q 601 496 629 438 q 522 588 572 554 q 406 622 471 622 q 290 589 340 622 q 210 497 239 556 q 182 365 182 439 q 210 233 182 292 q 290 142 239 175 q 406 108 340 108 m 558 1007 q 583 998 572 1007 q 594 978 594 989 q 576 939 594 958 l 500 849 q 431 815 475 815 l 392 815 q 353 823 369 815 q 324 849 338 831 l 246 939 q 232 974 232 957 q 244 998 232 989 q 276 1007 256 1007 q 328 981 297 1007 l 414 908 l 497 981 q 526 1001 514 994 q 558 1007 539 1007 z "},"â":{"ha":853,"x_min":54,"x_max":756,"o":"m 689 738 q 737 719 718 738 q 756 669 756 700 l 756 67 q 737 19 756 39 q 689 0 718 0 q 642 19 660 0 q 624 67 624 38 l 624 103 q 525 20 588 54 q 390 -14 463 -14 q 219 35 296 -14 q 98 170 142 83 q 54 365 54 257 q 98 560 54 474 q 218 696 142 647 q 386 744 294 744 q 523 714 460 744 q 624 636 586 683 l 624 669 q 642 718 624 699 q 689 738 660 738 m 406 108 q 522 142 471 108 q 601 233 572 175 q 629 365 629 292 q 601 496 629 438 q 522 588 572 554 q 406 622 471 622 q 290 589 340 622 q 210 497 239 556 q 182 365 182 439 q 210 233 182 292 q 290 142 239 175 q 406 108 340 108 z "},"ấ":{"ha":853,"x_min":54,"x_max":768,"o":"m 689 738 q 737 719 718 738 q 756 669 756 700 l 756 67 q 737 19 756 39 q 689 0 718 0 q 642 19 660 0 q 624 67 624 38 l 624 103 q 525 20 588 54 q 390 -14 463 -14 q 219 35 296 -14 q 98 170 142 83 q 54 365 54 257 q 98 560 54 474 q 218 696 142 647 q 386 744 294 744 q 523 714 460 744 q 624 636 586 683 l 624 669 q 642 718 624 699 q 689 738 660 738 m 406 108 q 522 142 471 108 q 601 233 572 175 q 629 365 629 292 q 601 496 629 438 q 522 588 572 554 q 406 622 471 622 q 290 589 340 622 q 210 497 239 556 q 182 365 182 439 q 210 233 182 292 q 290 142 239 175 q 406 108 340 108 z "},"ậ":{"ha":853,"x_min":54,"x_max":756,"o":"m 689 738 q 737 719 718 738 q 756 669 756 700 l 756 67 q 737 19 756 39 q 689 0 718 0 q 642 19 660 0 q 624 67 624 38 l 624 103 q 525 20 588 54 q 390 -14 463 -14 q 219 35 296 -14 q 98 170 142 83 q 54 365 54 257 q 98 560 54 474 q 218 696 142 647 q 386 744 294 744 q 523 714 460 744 q 624 636 586 683 l 624 669 q 642 718 624 699 q 689 738 660 738 m 406 108 q 522 142 471 108 q 601 233 572 175 q 629 365 629 292 q 601 496 629 438 q 522 588 572 554 q 406 622 471 622 q 290 589 340 622 q 210 497 239 556 q 182 365 182 439 q 210 233 182 292 q 290 142 239 175 q 406 108 340 108 m 417 -210 q 360 -195 378 -210 q 343 -147 343 -181 l 343 -126 q 417 -64 343 -64 q 476 -78 458 -64 q 493 -126 493 -93 l 493 -147 q 475 -195 493 -181 q 417 -210 457 -210 z "},"ầ":{"ha":853,"x_min":54,"x_max":756,"o":"m 689 738 q 737 719 718 738 q 756 669 756 700 l 756 67 q 737 19 756 39 q 689 0 718 0 q 642 19 660 0 q 624 67 624 38 l 624 103 q 525 20 588 54 q 390 -14 463 -14 q 219 35 296 -14 q 98 170 142 83 q 54 365 54 257 q 98 560 54 474 q 218 696 142 647 q 386 744 294 744 q 523 714 460 744 q 624 636 586 683 l 624 669 q 642 718 624 699 q 689 738 660 738 m 406 108 q 522 142 471 108 q 601 233 572 175 q 629 365 629 292 q 601 496 629 438 q 522 588 572 554 q 406 622 471 622 q 290 589 340 622 q 210 497 239 556 q 182 365 182 439 q 210 233 182 292 q 290 142 239 175 q 406 108 340 108 z "},"ẩ":{"ha":853,"x_min":54,"x_max":756,"o":"m 689 738 q 737 719 718 738 q 756 669 756 700 l 756 67 q 737 19 756 39 q 689 0 718 0 q 642 19 660 0 q 624 67 624 38 l 624 103 q 525 20 588 54 q 390 -14 463 -14 q 219 35 296 -14 q 98 170 142 83 q 54 365 54 257 q 98 560 54 474 q 218 696 142 647 q 386 744 294 744 q 523 714 460 744 q 624 636 586 683 l 624 669 q 642 718 624 699 q 689 738 660 738 m 406 108 q 522 142 471 108 q 601 233 572 175 q 629 365 629 292 q 601 496 629 438 q 522 588 572 554 q 406 622 471 622 q 290 589 340 622 q 210 497 239 556 q 182 365 182 439 q 210 233 182 292 q 290 142 239 175 q 406 108 340 108 z "},"ẫ":{"ha":853,"x_min":54,"x_max":756,"o":"m 689 738 q 737 719 718 738 q 756 669 756 700 l 756 67 q 737 19 756 39 q 689 0 718 0 q 642 19 660 0 q 624 67 624 38 l 624 103 q 525 20 588 54 q 390 -14 463 -14 q 219 35 296 -14 q 98 170 142 83 q 54 365 54 257 q 98 560 54 474 q 218 696 142 647 q 386 744 294 744 q 523 714 460 744 q 624 636 586 683 l 624 669 q 642 718 624 699 q 689 738 660 738 m 406 108 q 522 142 471 108 q 601 233 572 175 q 629 365 629 292 q 601 496 629 438 q 522 588 572 554 q 406 622 471 622 q 290 589 340 622 q 210 497 239 556 q 182 365 182 439 q 210 233 182 292 q 290 142 239 175 q 406 108 340 108 z "},"ȁ":{"ha":853,"x_min":54,"x_max":756,"o":"m 689 738 q 737 719 718 738 q 756 669 756 700 l 756 67 q 737 19 756 39 q 689 0 718 0 q 642 19 660 0 q 624 67 624 38 l 624 103 q 525 20 588 54 q 390 -14 463 -14 q 219 35 296 -14 q 98 170 142 83 q 54 365 54 257 q 98 560 54 474 q 218 696 142 647 q 386 744 294 744 q 523 714 460 744 q 624 636 586 683 l 624 669 q 642 718 624 699 q 689 738 660 738 m 406 108 q 522 142 471 108 q 601 233 572 175 q 629 365 629 292 q 601 496 629 438 q 522 588 572 554 q 406 622 471 622 q 290 589 340 622 q 210 497 239 556 q 182 365 182 439 q 210 233 182 292 q 290 142 239 175 q 406 108 340 108 m 321 831 q 288 842 307 831 l 161 928 q 122 985 122 950 q 141 1026 122 1010 q 183 1042 160 1042 q 240 1014 213 1042 l 350 901 q 365 869 365 886 q 353 841 365 851 q 321 831 340 831 m 554 831 q 521 842 540 831 l 394 928 q 356 985 356 950 q 374 1026 356 1010 q 415 1042 393 1042 q 474 1014 446 1042 l 583 901 q 599 869 599 886 q 586 841 599 851 q 554 831 574 831 z "},"ä":{"ha":853,"x_min":54,"x_max":756,"o":"m 689 738 q 737 719 718 738 q 756 669 756 700 l 756 67 q 737 19 756 39 q 689 0 718 0 q 642 19 660 0 q 624 67 624 38 l 624 103 q 525 20 588 54 q 390 -14 463 -14 q 219 35 296 -14 q 98 170 142 83 q 54 365 54 257 q 98 560 54 474 q 218 696 142 647 q 386 744 294 744 q 523 714 460 744 q 624 636 586 683 l 624 669 q 642 718 624 699 q 689 738 660 738 m 406 108 q 522 142 471 108 q 601 233 572 175 q 629 365 629 292 q 601 496 629 438 q 522 588 572 554 q 406 622 471 622 q 290 589 340 622 q 210 497 239 556 q 182 365 182 439 q 210 233 182 292 q 290 142 239 175 q 406 108 340 108 z "},"ạ":{"ha":853,"x_min":54,"x_max":756,"o":"m 689 738 q 737 719 718 738 q 756 669 756 700 l 756 67 q 737 19 756 39 q 689 0 718 0 q 642 19 660 0 q 624 67 624 38 l 624 103 q 525 20 588 54 q 390 -14 463 -14 q 219 35 296 -14 q 98 170 142 83 q 54 365 54 257 q 98 560 54 474 q 218 696 142 647 q 386 744 294 744 q 523 714 460 744 q 624 636 586 683 l 624 669 q 642 718 624 699 q 689 738 660 738 m 406 108 q 522 142 471 108 q 601 233 572 175 q 629 365 629 292 q 601 496 629 438 q 522 588 572 554 q 406 622 471 622 q 290 589 340 622 q 210 497 239 556 q 182 365 182 439 q 210 233 182 292 q 290 142 239 175 q 406 108 340 108 m 417 -210 q 360 -195 378 -210 q 343 -147 343 -181 l 343 -126 q 417 -64 343 -64 q 476 -78 458 -64 q 493 -126 493 -93 l 493 -147 q 475 -195 493 -181 q 417 -210 457 -210 z "},"à":{"ha":853,"x_min":54,"x_max":756,"o":"m 689 738 q 737 719 718 738 q 756 669 756 700 l 756 67 q 737 19 756 39 q 689 0 718 0 q 642 19 660 0 q 624 67 624 38 l 624 103 q 525 20 588 54 q 390 -14 463 -14 q 219 35 296 -14 q 98 170 142 83 q 54 365 54 257 q 98 560 54 474 q 218 696 142 647 q 386 744 294 744 q 523 714 460 744 q 624 636 586 683 l 624 669 q 642 718 624 699 q 689 738 660 738 m 406 108 q 522 142 471 108 q 601 233 572 175 q 629 365 629 292 q 601 496 629 438 q 522 588 572 554 q 406 622 471 622 q 290 589 340 622 q 210 497 239 556 q 182 365 182 439 q 210 233 182 292 q 290 142 239 175 q 406 108 340 108 z "},"ả":{"ha":853,"x_min":54,"x_max":756,"o":"m 689 738 q 737 719 718 738 q 756 669 756 700 l 756 67 q 737 19 756 39 q 689 0 718 0 q 642 19 660 0 q 624 67 624 38 l 624 103 q 525 20 588 54 q 390 -14 463 -14 q 219 35 296 -14 q 98 170 142 83 q 54 365 54 257 q 98 560 54 474 q 218 696 142 647 q 386 744 294 744 q 523 714 460 744 q 624 636 586 683 l 624 669 q 642 718 624 699 q 689 738 660 738 m 406 108 q 522 142 471 108 q 601 233 572 175 q 629 365 629 292 q 601 496 629 438 q 522 588 572 554 q 406 622 471 622 q 290 589 340 622 q 210 497 239 556 q 182 365 182 439 q 210 233 182 292 q 290 142 239 175 q 406 108 340 108 m 290 1011 q 397 1053 339 1053 q 498 1018 468 1053 q 528 939 528 983 q 519 899 528 917 q 493 860 511 881 q 475 836 483 849 q 467 814 467 824 q 455 790 467 800 q 426 781 443 781 q 399 790 410 781 q 388 815 388 800 q 408 869 388 844 q 436 906 428 893 q 444 931 444 918 q 430 958 444 947 q 396 969 415 969 q 365 963 379 969 q 335 946 351 957 q 311 936 322 936 q 282 951 296 936 q 272 975 272 961 q 290 1011 272 993 z "},"ȃ":{"ha":853,"x_min":54,"x_max":756,"o":"m 689 738 q 737 719 718 738 q 756 669 756 700 l 756 67 q 737 19 756 39 q 689 0 718 0 q 642 19 660 0 q 624 67 624 38 l 624 103 q 525 20 588 54 q 390 -14 463 -14 q 219 35 296 -14 q 98 170 142 83 q 54 365 54 257 q 98 560 54 474 q 218 696 142 647 q 386 744 294 744 q 523 714 460 744 q 624 636 586 683 l 624 669 q 642 718 624 699 q 689 738 660 738 m 406 108 q 522 142 471 108 q 601 233 572 175 q 629 365 629 292 q 601 496 629 438 q 522 588 572 554 q 406 622 471 622 q 290 589 340 622 q 210 497 239 556 q 182 365 182 439 q 210 233 182 292 q 290 142 239 175 q 406 108 340 108 m 418 1024 q 549 984 493 1024 q 622 878 604 944 q 626 857 626 868 q 615 828 626 839 q 586 818 604 818 q 549 828 563 818 q 519 861 535 839 q 481 910 507 893 q 418 926 454 926 q 356 909 382 926 q 317 861 331 892 q 288 828 301 839 q 251 818 274 818 q 222 828 233 818 q 210 856 210 839 q 214 876 210 867 q 288 983 232 943 q 418 1024 343 1024 z "},"ā":{"ha":853,"x_min":54,"x_max":756,"o":"m 689 738 q 737 719 718 738 q 756 669 756 700 l 756 67 q 737 19 756 39 q 689 0 718 0 q 642 19 660 0 q 624 67 624 38 l 624 103 q 525 20 588 54 q 390 -14 463 -14 q 219 35 296 -14 q 98 170 142 83 q 54 365 54 257 q 98 560 54 474 q 218 696 142 647 q 386 744 294 744 q 523 714 460 744 q 624 636 586 683 l 624 669 q 642 718 624 699 q 689 738 660 738 m 406 108 q 522 142 471 108 q 601 233 572 175 q 629 365 629 292 q 601 496 629 438 q 522 588 572 554 q 406 622 471 622 q 290 589 340 622 q 210 497 239 556 q 182 365 182 439 q 210 233 182 292 q 290 142 239 175 q 406 108 340 108 z "},"ą":{"ha":853,"x_min":54,"x_max":775,"o":"m 726 -143 q 761 -157 747 -143 q 775 -194 775 -171 q 755 -237 775 -215 q 701 -274 735 -260 q 632 -287 668 -287 q 523 -251 567 -287 q 479 -146 479 -214 q 624 36 479 -22 l 624 103 q 525 20 588 54 q 390 -14 463 -14 q 219 35 296 -14 q 98 170 142 83 q 54 365 54 257 q 98 560 54 474 q 218 696 142 647 q 386 744 294 744 q 523 714 460 744 q 624 636 586 683 l 624 669 q 642 718 624 699 q 689 738 660 738 q 737 719 718 738 q 756 669 756 700 l 756 32 q 717 -15 756 -3 q 626 -60 661 -32 q 590 -121 590 -87 q 606 -167 590 -150 q 644 -183 622 -183 q 678 -167 665 -183 q 726 -143 694 -143 m 406 108 q 522 142 471 108 q 601 233 572 175 q 629 365 629 292 q 601 496 629 438 q 522 588 572 554 q 406 622 471 622 q 290 589 340 622 q 210 497 239 556 q 182 365 182 439 q 210 233 182 292 q 290 142 239 175 q 406 108 340 108 z "},"å":{"ha":853,"x_min":54,"x_max":756,"o":"m 689 738 q 737 719 718 738 q 756 669 756 700 l 756 67 q 737 19 756 39 q 689 0 718 0 q 642 19 660 0 q 624 67 624 38 l 624 103 q 525 20 588 54 q 390 -14 463 -14 q 219 35 296 -14 q 98 170 142 83 q 54 365 54 257 q 98 560 54 474 q 218 696 142 647 q 386 744 294 744 q 523 714 460 744 q 624 636 586 683 l 624 669 q 642 718 624 699 q 689 738 660 738 m 406 108 q 522 142 471 108 q 601 233 572 175 q 629 365 629 292 q 601 496 629 438 q 522 588 572 554 q 406 622 471 622 q 290 589 340 622 q 210 497 239 556 q 182 365 182 439 q 210 233 182 292 q 290 142 239 175 q 406 108 340 108 m 415 783 q 310 826 356 783 q 264 928 264 869 q 310 1032 264 989 q 415 1075 356 1075 q 522 1032 476 1075 q 567 928 567 989 q 522 826 567 869 q 415 783 476 783 m 415 864 q 465 883 444 864 q 485 928 485 901 q 464 976 485 958 q 415 994 443 994 q 366 976 386 994 q 346 928 346 957 q 366 883 346 901 q 415 864 386 864 z "},"ǻ":{"ha":853,"x_min":54,"x_max":756,"o":"m 689 738 q 737 719 718 738 q 756 669 756 700 l 756 67 q 737 19 756 39 q 689 0 718 0 q 642 19 660 0 q 624 67 624 38 l 624 103 q 525 20 588 54 q 390 -14 463 -14 q 219 35 296 -14 q 98 170 142 83 q 54 365 54 257 q 98 560 54 474 q 218 696 142 647 q 386 744 294 744 q 523 714 460 744 q 624 636 586 683 l 624 669 q 642 718 624 699 q 689 738 660 738 m 406 108 q 522 142 471 108 q 601 233 572 175 q 629 365 629 292 q 601 496 629 438 q 522 588 572 554 q 406 622 471 622 q 290 589 340 622 q 210 497 239 556 q 182 365 182 439 q 210 233 182 292 q 290 142 239 175 q 406 108 340 108 m 425 783 q 319 826 365 783 q 274 928 274 869 q 319 1032 274 989 q 425 1075 365 1075 q 531 1032 486 1075 q 576 928 576 989 q 531 826 576 869 q 425 783 486 783 m 425 864 q 474 883 454 864 q 494 928 494 901 q 474 976 494 958 q 425 994 453 994 q 376 976 396 994 q 356 928 356 957 q 376 883 356 901 q 425 864 396 864 m 424 1118 q 391 1128 403 1118 q 379 1157 379 1139 q 396 1189 379 1175 l 518 1292 q 574 1315 547 1315 q 616 1299 597 1315 q 635 1258 635 1282 q 624 1224 635 1240 q 593 1197 613 1207 l 456 1126 q 424 1118 439 1118 z "},"ã":{"ha":853,"x_min":54,"x_max":756,"o":"m 689 738 q 737 719 718 738 q 756 669 756 700 l 756 67 q 737 19 756 39 q 689 0 718 0 q 642 19 660 0 q 624 67 624 38 l 624 103 q 525 20 588 54 q 390 -14 463 -14 q 219 35 296 -14 q 98 170 142 83 q 54 365 54 257 q 98 560 54 474 q 218 696 142 647 q 386 744 294 744 q 523 714 460 744 q 624 636 586 683 l 624 669 q 642 718 624 699 q 689 738 660 738 m 406 108 q 522 142 471 108 q 601 233 572 175 q 629 365 629 292 q 601 496 629 438 q 522 588 572 554 q 406 622 471 622 q 290 589 340 622 q 210 497 239 556 q 182 365 182 439 q 210 233 182 292 q 290 142 239 175 q 406 108 340 108 m 231 814 q 187 835 203 814 q 172 894 171 856 q 217 974 176 942 q 325 1006 257 1006 q 383 992 356 1006 q 450 954 411 979 q 492 928 475 938 q 522 919 508 919 q 549 930 539 919 q 557 958 558 940 q 556 972 556 963 q 568 1001 556 990 q 599 1013 581 1013 q 642 992 626 1013 q 657 935 658 971 q 617 855 653 889 q 515 821 582 821 q 463 833 490 821 q 396 868 436 844 q 345 896 365 886 q 310 906 325 906 q 283 896 293 906 q 272 867 272 886 q 274 856 274 863 q 261 825 274 836 q 231 814 249 814 z "},"æ":{"ha":1260,"x_min":57,"x_max":1206,"o":"m 1206 392 q 1185 349 1204 367 q 1139 332 1165 332 l 650 332 q 727 169 660 231 q 892 108 794 108 q 1000 128 958 108 q 1074 178 1042 147 q 1114 190 1094 190 q 1153 174 1138 190 q 1169 135 1169 157 q 1142 82 1169 106 q 1035 14 1101 42 q 897 -14 968 -14 q 717 25 797 -14 q 589 133 638 64 q 469 30 542 74 q 304 -14 397 -14 q 186 10 243 -14 q 93 84 129 35 q 57 206 57 133 q 137 381 57 318 q 381 443 217 443 l 524 443 l 524 496 q 478 596 524 569 q 368 622 432 622 q 167 518 247 622 q 117 494 146 494 q 77 510 94 494 q 60 547 60 525 q 75 592 60 571 q 201 700 126 656 q 371 744 275 744 q 522 719 454 744 q 624 638 590 693 q 734 717 671 689 q 865 744 797 744 q 1032 699 954 744 q 1157 572 1110 653 q 1206 392 1204 492 m 865 622 q 731 578 788 622 q 656 443 674 535 l 1065 443 l 1065 454 q 999 575 1058 528 q 865 622 940 622 m 539 238 q 522 332 526 281 l 369 332 q 233 297 276 332 q 189 210 189 263 q 225 133 189 160 q 310 106 261 106 q 451 147 390 106 q 539 238 511 188 z "},"ǽ":{"ha":1260,"x_min":57,"x_max":1206,"o":"m 1206 392 q 1185 349 1204 367 q 1139 332 1165 332 l 650 332 q 727 169 660 231 q 892 108 794 108 q 1000 128 958 108 q 1074 178 1042 147 q 1114 190 1094 190 q 1153 174 1138 190 q 1169 135 1169 157 q 1142 82 1169 106 q 1035 14 1101 42 q 897 -14 968 -14 q 717 25 797 -14 q 589 133 638 64 q 469 30 542 74 q 304 -14 397 -14 q 186 10 243 -14 q 93 84 129 35 q 57 206 57 133 q 137 381 57 318 q 381 443 217 443 l 524 443 l 524 496 q 478 596 524 569 q 368 622 432 622 q 167 518 247 622 q 117 494 146 494 q 77 510 94 494 q 60 547 60 525 q 75 592 60 571 q 201 700 126 656 q 371 744 275 744 q 522 719 454 744 q 624 638 590 693 q 734 717 671 689 q 865 744 797 744 q 1032 699 954 744 q 1157 572 1110 653 q 1206 392 1204 492 m 865 622 q 731 578 788 622 q 656 443 674 535 l 1065 443 l 1065 454 q 999 575 1058 528 q 865 622 940 622 m 539 238 q 522 332 526 281 l 369 332 q 233 297 276 332 q 189 210 189 263 q 225 133 189 160 q 310 106 261 106 q 451 147 390 106 q 539 238 511 188 z "},"b":{"ha":853,"x_min":99,"x_max":799,"o":"m 464 744 q 635 696 558 744 q 755 561 711 647 q 799 367 799 475 q 755 171 799 258 q 635 35 711 83 q 467 -14 558 -14 q 332 18 394 -14 q 231 97 269 50 l 231 57 q 212 10 231 29 q 164 -10 193 -10 q 117 9 136 -10 q 99 57 99 28 l 99 961 q 117 1009 99 990 q 164 1028 135 1028 q 212 1008 193 1028 q 231 961 231 989 l 231 622 q 328 708 264 672 q 464 744 392 744 m 449 108 q 564 142 513 108 q 644 235 615 176 q 672 367 672 294 q 644 497 672 439 q 564 589 615 556 q 449 622 513 622 q 332 589 383 622 q 252 498 281 556 q 224 367 224 440 q 252 235 224 293 q 332 142 281 176 q 449 108 383 108 z "}}}
